<?xml version="1.0" encoding="UTF-8" standalone="no"?>
<!DOCTYPE svg PUBLIC "-//W3C//DTD SVG 1.1//EN" "http://www.w3.org/Graphics/SVG/1.1/DTD/svg11.dtd">
<svg xmlns="http://www.w3.org/2000/svg" xmlns:xlink="http://www.w3.org/1999/xlink" width="1024.0pt" height="1024.0pt" version="1.1" viewBox="0 0 1024 1024">
    <defs>
        <path id="p0" d="M 0.00 0.00 L 1024.00 0.00 L 1024.00 1024.00 L 0.00 1024.00 L 0.00 0.00 Z M 437.46 194.45 C 435.39 196.60 434.14 199.85 431.96 201.96 C 430.17 204.35 428.72 207.42 426.46 209.46 C 426.06 210.81 425.59 211.86 424.00 211.78 C 413.60 210.62 404.49 213.48 394.79 216.63 C 389.53 218.19 385.21 219.20 380.00 220.69 C 374.78 219.83 367.35 217.03 364.73 212.00 C 364.49 210.65 362.87 211.77 362.41 212.41 C 356.07 216.89 350.89 222.90 345.46 228.46 C 344.70 230.41 342.86 231.94 341.46 233.46 C 340.72 235.23 338.96 236.61 337.21 237.31 C 324.98 243.80 313.94 250.34 302.94 258.81 C 296.57 264.00 289.05 269.97 286.25 278.00 C 285.83 280.31 285.19 283.06 288.00 284.04 C 296.44 285.44 303.92 283.11 311.37 279.42 C 312.43 279.17 313.57 277.80 314.61 278.24 C 313.52 280.69 308.82 282.66 306.24 283.36 C 305.97 284.52 309.35 283.96 310.00 283.98 C 324.83 282.17 338.98 278.92 353.00 273.76 C 363.15 269.71 372.75 264.72 382.00 258.92 C 384.00 257.87 385.59 255.99 388.00 255.88 C 394.97 255.64 398.69 255.92 405.54 254.55 C 405.01 247.60 412.36 242.03 414.65 236.00 C 414.79 233.18 418.99 231.62 420.81 229.75 C 423.58 228.18 424.93 225.57 428.00 225.82 C 431.41 225.98 434.94 225.48 438.00 226.58 C 441.51 226.52 445.05 226.68 448.55 226.54 C 444.94 221.89 441.61 215.88 440.58 210.00 C 438.80 205.43 437.94 199.42 437.54 194.45 L 437.46 194.45 Z M 813.45 286.44 C 811.10 289.07 810.17 293.14 807.91 295.96 C 806.31 297.74 805.62 302.64 803.00 303.05 C 794.84 302.90 786.31 306.42 779.00 309.78 C 774.16 311.78 768.93 314.00 764.00 315.74 C 759.93 315.51 754.73 314.22 751.55 311.46 C 750.50 310.73 749.89 308.87 748.45 309.46 C 741.37 315.89 736.26 323.03 731.28 331.00 C 729.91 333.88 727.45 335.07 724.96 336.80 C 718.69 341.21 711.88 346.16 706.20 351.24 C 698.87 357.63 690.17 365.26 686.46 374.43 C 685.78 376.35 685.37 378.93 686.25 380.84 C 687.30 382.45 689.36 382.02 691.00 382.02 C 697.71 381.62 703.43 378.65 709.00 375.14 L 709.93 375.18 C 710.05 377.31 705.32 378.56 704.35 379.70 C 706.27 380.65 708.89 378.95 711.00 378.86 C 726.59 374.71 742.34 368.75 755.90 359.80 C 761.95 356.01 767.55 351.68 773.13 347.24 C 777.66 345.90 785.07 344.89 790.54 343.54 C 789.95 337.01 793.90 333.01 796.54 327.56 C 796.27 323.19 801.76 320.41 804.33 317.31 C 806.08 314.94 807.76 316.07 810.00 314.99 C 815.84 314.55 820.02 315.04 825.69 313.62 C 824.40 310.62 821.46 308.95 820.54 305.46 C 818.45 303.13 817.91 299.63 816.24 296.91 C 815.21 293.89 814.05 289.56 813.54 286.44 L 813.45 286.44 Z M 238.72 589.33 C 236.94 591.14 231.93 590.00 229.45 590.46 C 236.38 593.65 247.54 596.08 255.23 597.59 C 268.15 599.89 279.92 600.57 293.00 599.04 C 296.77 599.07 300.23 597.75 304.00 597.94 C 306.82 598.16 309.29 600.49 312.00 600.85 C 314.26 601.99 317.28 602.55 319.54 603.54 C 320.99 598.29 326.42 597.19 330.22 594.25 C 332.68 593.25 333.28 590.86 336.00 590.28 C 339.25 589.80 342.74 588.51 345.94 588.32 C 350.29 590.14 355.55 593.13 359.95 595.15 C 360.99 595.67 362.36 596.78 363.54 596.54 C 362.50 594.70 362.80 593.08 362.58 591.00 C 362.58 587.32 362.48 583.66 362.96 580.00 C 364.04 578.14 363.23 576.19 364.54 574.56 C 364.32 572.11 366.10 570.53 365.76 568.25 C 364.16 568.15 362.13 569.82 360.91 570.77 C 357.27 572.41 354.68 574.62 351.00 576.33 C 349.45 576.49 348.39 575.34 347.00 574.80 C 338.32 570.45 327.85 570.17 318.29 568.57 C 315.44 567.57 312.33 568.36 309.74 566.28 C 308.66 565.11 306.99 564.01 306.54 562.46 C 304.13 560.38 302.55 557.68 302.54 554.45 C 296.08 555.02 288.73 557.76 282.88 560.75 C 279.44 561.67 277.72 563.82 274.00 564.85 C 259.16 565.78 244.63 567.26 230.32 571.40 C 225.39 573.13 218.90 575.43 215.88 580.00 C 214.75 581.64 214.77 583.32 216.37 584.61 C 219.29 586.35 222.64 587.74 226.00 588.29 C 230.05 589.58 234.69 588.48 238.72 589.33 Z M 367.62 760.42 C 365.17 762.45 360.30 757.79 358.05 757.24 L 357.92 758.00 C 367.92 769.79 378.46 779.83 391.00 788.90 C 399.71 795.28 409.26 800.40 419.00 804.95 C 422.17 806.48 425.63 807.58 428.67 809.36 C 429.56 810.87 430.86 811.85 431.46 813.55 C 432.56 814.70 433.99 815.98 434.46 817.54 C 436.15 819.38 438.46 821.24 439.46 823.54 C 441.00 824.30 441.69 823.33 443.00 822.77 C 448.06 820.47 455.03 822.18 460.57 821.54 C 462.48 820.12 465.25 820.73 467.26 821.62 C 470.25 822.43 472.75 823.60 475.75 824.37 C 477.46 825.16 478.69 826.90 479.46 828.55 C 481.27 831.71 484.74 836.62 486.84 840.07 C 487.15 841.15 488.69 843.35 489.64 843.73 C 491.24 841.27 491.81 837.41 494.04 835.04 C 498.16 827.53 503.91 821.79 510.55 816.46 C 503.52 815.76 496.06 816.55 489.00 815.97 L 488.36 815.66 C 482.15 802.99 469.33 795.88 459.24 786.72 C 457.18 784.59 454.11 783.42 453.54 780.41 C 452.09 778.37 453.21 776.15 451.87 774.00 C 451.71 771.62 451.51 769.36 451.92 767.00 C 452.32 765.69 453.21 764.94 452.56 763.46 C 446.53 761.62 439.30 759.19 433.00 759.02 C 429.41 757.62 424.83 758.74 421.10 757.74 C 419.93 757.07 418.31 757.67 417.00 757.00 C 400.16 748.20 381.79 739.64 363.00 736.16 C 358.16 735.83 351.50 735.15 347.58 738.58 C 346.55 739.89 346.65 742.05 347.63 743.35 C 352.09 751.38 359.56 756.48 367.62 760.42 Z"/>
        <path id="p1" d="M 437.46 194.45 L 437.54 194.45 C 437.94 199.42 438.80 205.43 440.58 210.00 C 441.61 215.88 444.94 221.89 448.55 226.54 C 445.05 226.68 441.51 226.52 438.00 226.58 C 434.94 225.48 431.41 225.98 428.00 225.82 C 424.93 225.57 423.58 228.18 420.81 229.75 C 418.99 231.62 414.79 233.18 414.65 236.00 C 412.36 242.03 405.01 247.60 405.54 254.55 C 398.69 255.92 394.97 255.64 388.00 255.88 C 385.59 255.99 384.00 257.87 382.00 258.92 C 372.75 264.72 363.15 269.71 353.00 273.76 C 338.98 278.92 324.83 282.17 310.00 283.98 C 309.35 283.96 305.97 284.52 306.24 283.36 C 308.82 282.66 313.52 280.69 314.61 278.24 C 313.57 277.80 312.43 279.17 311.37 279.42 C 303.92 283.11 296.44 285.44 288.00 284.04 C 285.19 283.06 285.83 280.31 286.25 278.00 C 289.05 269.97 296.57 264.00 302.94 258.81 C 313.94 250.34 324.98 243.80 337.21 237.31 C 338.96 236.61 340.72 235.23 341.46 233.46 C 342.86 231.94 344.70 230.41 345.46 228.46 C 350.89 222.90 356.07 216.89 362.41 212.41 C 362.87 211.77 364.49 210.65 364.73 212.00 C 367.35 217.03 374.78 219.83 380.00 220.69 C 385.21 219.20 389.53 218.19 394.79 216.63 C 404.49 213.48 413.60 210.62 424.00 211.78 C 425.59 211.86 426.06 210.81 426.46 209.46 C 428.72 207.42 430.17 204.35 431.96 201.96 C 434.14 199.85 435.39 196.60 437.46 194.45 Z M 319.30 249.38 L 319.30 249.73 C 325.54 252.04 328.74 258.91 330.25 264.90 C 331.63 269.40 331.02 274.34 330.16 278.67 C 330.68 278.71 331.15 278.36 331.58 277.63 C 333.82 273.76 333.06 268.15 331.99 264.00 C 330.73 259.21 328.65 254.52 324.82 251.22 C 323.25 249.66 321.59 248.62 319.30 249.38 Z"/>
        <path id="p2" d="M 319.30 249.38 C 321.59 248.62 323.25 249.66 324.82 251.22 C 328.65 254.52 330.73 259.21 331.99 264.00 C 333.06 268.15 333.82 273.76 331.58 277.63 C 331.15 278.36 330.68 278.71 330.16 278.67 C 331.02 274.34 331.63 269.40 330.25 264.90 C 328.74 258.91 325.54 252.04 319.30 249.73 L 319.30 249.38 Z"/>
        <path id="p3" d="M 813.45 286.44 L 813.54 286.44 C 814.05 289.56 815.21 293.89 816.24 296.91 C 817.91 299.63 818.45 303.13 820.54 305.46 C 821.46 308.95 824.40 310.62 825.69 313.62 C 820.02 315.04 815.84 314.55 810.00 314.99 C 807.76 316.07 806.08 314.94 804.33 317.31 C 801.76 320.41 796.27 323.19 796.54 327.56 C 793.90 333.01 789.95 337.01 790.54 343.54 C 785.07 344.89 777.66 345.90 773.13 347.24 C 767.55 351.68 761.95 356.01 755.90 359.80 C 742.34 368.75 726.59 374.71 711.00 378.86 C 708.89 378.95 706.27 380.65 704.35 379.70 C 705.32 378.56 710.05 377.31 709.93 375.18 L 709.00 375.14 C 703.43 378.65 697.71 381.62 691.00 382.02 C 689.36 382.02 687.30 382.45 686.25 380.84 C 685.37 378.93 685.78 376.35 686.46 374.43 C 690.17 365.26 698.87 357.63 706.20 351.24 C 711.88 346.16 718.69 341.21 724.96 336.80 C 727.45 335.07 729.91 333.88 731.28 331.00 C 736.26 323.03 741.37 315.89 748.45 309.46 C 749.89 308.87 750.50 310.73 751.55 311.46 C 754.73 314.22 759.93 315.51 764.00 315.74 C 768.93 314.00 774.16 311.78 779.00 309.78 C 786.31 306.42 794.84 302.90 803.00 303.05 C 805.62 302.64 806.31 297.74 807.91 295.96 C 810.17 293.14 811.10 289.07 813.45 286.44 Z M 725.23 372.73 C 727.01 372.45 727.08 369.38 727.09 368.00 C 727.44 362.71 725.06 357.93 722.54 353.46 C 720.55 350.97 716.92 346.64 713.34 347.40 C 713.39 347.87 713.71 348.28 714.31 348.65 C 719.09 350.37 721.98 355.59 723.84 360.00 C 725.08 363.47 726.72 368.50 725.03 372.00 L 725.23 372.73 Z"/>
        <path id="p4" d="M 713.34 347.40 C 716.92 346.64 720.55 350.97 722.54 353.46 C 725.06 357.93 727.44 362.71 727.09 368.00 C 727.08 369.38 727.01 372.45 725.23 372.73 L 725.03 372.00 C 726.72 368.50 725.08 363.47 723.84 360.00 C 721.98 355.59 719.09 350.37 714.31 348.65 C 713.71 348.28 713.39 347.87 713.34 347.40 Z"/>
        <path id="p5" d="M 302.54 554.45 C 302.55 557.68 304.13 560.38 306.54 562.46 C 306.99 564.01 308.66 565.11 309.74 566.28 C 312.33 568.36 315.44 567.57 318.29 568.57 C 327.85 570.17 338.32 570.45 347.00 574.80 C 348.39 575.34 349.45 576.49 351.00 576.33 C 354.68 574.62 357.27 572.41 360.91 570.77 C 362.13 569.82 364.16 568.15 365.76 568.25 C 366.10 570.53 364.32 572.11 364.54 574.56 C 363.23 576.19 364.04 578.14 362.96 580.00 C 362.48 583.66 362.58 587.32 362.58 591.00 C 362.80 593.08 362.50 594.70 363.54 596.54 C 362.36 596.78 360.99 595.67 359.95 595.15 C 355.55 593.13 350.29 590.14 345.94 588.32 C 342.74 588.51 339.25 589.80 336.00 590.28 C 333.28 590.86 332.68 593.25 330.22 594.25 C 326.42 597.19 320.99 598.29 319.54 603.54 C 317.28 602.55 314.26 601.99 312.00 600.85 C 309.29 600.49 306.82 598.16 304.00 597.94 C 300.23 597.75 296.77 599.07 293.00 599.04 C 279.92 600.57 268.15 599.89 255.23 597.59 C 247.54 596.08 236.38 593.65 229.45 590.46 C 231.93 590.00 236.94 591.14 238.72 589.33 C 234.69 588.48 230.05 589.58 226.00 588.29 C 222.64 587.74 219.29 586.35 216.37 584.61 C 214.77 583.32 214.75 581.64 215.88 580.00 C 218.90 575.43 225.39 573.13 230.32 571.40 C 244.63 567.26 259.16 565.78 274.00 564.85 C 277.72 563.82 279.44 561.67 282.88 560.75 C 288.73 557.76 296.08 555.02 302.54 554.45 Z M 253.05 593.82 C 255.38 593.69 256.86 588.46 257.54 586.56 C 257.96 584.19 258.40 581.38 258.57 579.00 C 257.88 575.47 257.95 570.69 254.54 568.46 C 253.52 568.19 253.09 568.29 253.25 568.75 C 258.22 574.05 257.16 583.69 254.64 589.88 C 254.26 591.06 252.53 592.66 253.05 593.82 Z"/>
        <path id="p6" d="M 254.54 568.46 C 257.95 570.69 257.88 575.47 258.57 579.00 C 258.40 581.38 257.96 584.19 257.54 586.56 C 256.86 588.46 255.38 593.69 253.05 593.82 C 252.53 592.66 254.26 591.06 254.64 589.88 C 257.16 583.69 258.22 574.05 253.25 568.75 C 253.09 568.29 253.52 568.19 254.54 568.46 Z"/>
        <path id="p7" d="M 363.00 736.16 C 381.79 739.64 400.16 748.20 417.00 757.00 C 418.31 757.67 419.93 757.07 421.10 757.74 C 424.83 758.74 429.41 757.62 433.00 759.02 C 439.30 759.19 446.53 761.62 452.56 763.46 C 453.21 764.94 452.32 765.69 451.92 767.00 C 451.51 769.36 451.71 771.62 451.87 774.00 C 453.21 776.15 452.09 778.37 453.54 780.41 C 454.11 783.42 457.18 784.59 459.24 786.72 C 469.33 795.88 482.15 802.99 488.36 815.66 L 489.00 815.97 C 496.06 816.55 503.52 815.76 510.55 816.46 C 503.91 821.79 498.16 827.53 494.04 835.04 C 491.81 837.41 491.24 841.27 489.64 843.73 C 488.69 843.35 487.15 841.15 486.84 840.07 C 484.74 836.62 481.27 831.71 479.46 828.55 C 478.69 826.90 477.46 825.16 475.75 824.37 C 472.75 823.60 470.25 822.43 467.26 821.62 C 465.25 820.73 462.48 820.12 460.57 821.54 C 455.03 822.18 448.06 820.47 443.00 822.77 C 441.69 823.33 441.00 824.30 439.46 823.54 C 438.46 821.24 436.15 819.38 434.46 817.54 C 433.99 815.98 432.56 814.70 431.46 813.55 C 430.86 811.85 429.56 810.87 428.67 809.36 C 425.63 807.58 422.17 806.48 419.00 804.95 C 409.26 800.40 399.71 795.28 391.00 788.90 C 378.46 779.83 367.92 769.79 357.92 758.00 L 358.05 757.24 C 360.30 757.79 365.17 762.45 367.62 760.42 C 359.56 756.48 352.09 751.38 347.63 743.35 C 346.65 742.05 346.55 739.89 347.58 738.58 C 351.50 735.15 358.16 735.83 363.00 736.16 Z M 376.06 774.70 C 378.44 775.49 379.86 774.39 382.00 773.75 C 387.81 770.42 392.22 765.09 394.95 759.00 C 396.13 755.81 397.44 752.38 395.71 749.15 C 394.02 748.68 395.01 752.13 394.68 753.00 C 393.69 760.09 388.49 766.58 383.05 771.08 C 380.80 772.53 378.71 773.62 376.06 774.15 L 376.06 774.70 Z"/>
        <path id="p8" d="M 395.71 749.15 C 397.44 752.38 396.13 755.81 394.95 759.00 C 392.22 765.09 387.81 770.42 382.00 773.75 C 379.86 774.39 378.44 775.49 376.06 774.70 L 376.06 774.15 C 378.71 773.62 380.80 772.53 383.05 771.08 C 388.49 766.58 393.69 760.09 394.68 753.00 C 395.01 752.13 394.02 748.68 395.71 749.15 Z"/>
    </defs>
    <g stroke-width="10pt">
        <use stroke="#b5b5b5" xlink:href="#p1"/>
        <use stroke="#b5b5b5" xlink:href="#p3"/>
        <use stroke="#b5b5b5" xlink:href="#p5"/>
        <use stroke="#b5b5b5" xlink:href="#p7"/>
    </g>
    <g>
        <use fill="#b5b5b5" xlink:href="#p1"/>
        <use fill="#b5b5b5" xlink:href="#p3"/>
        <use fill="#b5b5b5" xlink:href="#p5"/>
        <use fill="#b5b5b5" xlink:href="#p7"/>
    </g>
</svg>
