<?xml version="1.0" encoding="UTF-8" standalone="no"?>
<!DOCTYPE svg PUBLIC "-//W3C//DTD SVG 1.1//EN" "http://www.w3.org/Graphics/SVG/1.1/DTD/svg11.dtd">
<svg xmlns="http://www.w3.org/2000/svg" xmlns:xlink="http://www.w3.org/1999/xlink" width="1024.0pt" height="1024.0pt" version="1.1" viewBox="0 0 1024 1024">
    <defs>
        <path id="p0" d="M 0.00 0.00 L 1024.00 0.00 L 1024.00 1024.00 L 0.00 1024.00 L 0.00 0.00 Z M 425.08 211.67 C 415.85 210.65 407.15 212.68 398.44 215.48 C 392.12 217.51 385.69 219.15 379.27 220.84 C 376.42 219.71 373.45 218.67 370.75 217.21 C 367.98 215.70 366.09 213.39 363.81 211.26 C 354.57 217.54 346.72 226.03 340.48 235.26 C 330.82 241.04 320.80 246.08 311.56 252.58 C 305.48 256.58 300.04 261.33 294.31 265.80 C 294.93 266.45 295.55 267.09 296.17 267.72 C 298.16 267.75 300.63 267.17 302.17 268.82 C 303.72 270.61 305.09 273.14 303.23 275.24 C 301.61 277.61 299.03 277.14 296.49 277.62 C 294.79 274.56 293.45 272.68 294.86 269.07 C 294.13 268.50 293.39 267.93 292.65 267.36 C 290.03 271.29 285.81 276.09 285.85 281.02 C 285.61 284.36 289.65 284.40 291.99 284.52 C 301.11 284.76 308.09 280.88 316.05 277.19 C 313.01 280.39 309.38 282.42 305.44 284.29 C 318.96 283.30 332.38 280.40 345.32 276.38 C 360.24 271.69 373.64 264.38 386.72 255.93 C 393.00 256.16 399.04 255.82 405.24 254.89 C 406.08 251.38 406.90 248.04 409.13 245.11 C 411.66 241.76 413.91 238.44 415.09 234.35 C 418.57 231.38 422.26 228.70 425.90 225.93 C 433.52 226.36 441.14 226.61 448.76 226.88 C 441.67 217.07 438.74 205.67 437.68 193.77 C 433.34 199.65 429.25 205.68 425.08 211.67 Z M 296.54 275.49 C 298.22 275.56 299.91 275.56 301.62 275.51 C 301.83 273.39 301.81 271.40 301.58 269.29 C 299.60 269.28 297.66 269.26 295.74 269.83 C 295.53 271.81 296.07 273.60 296.54 275.49 Z M 804.05 302.84 C 788.24 303.33 777.71 311.58 762.90 316.00 C 757.38 314.66 753.24 312.51 748.78 309.05 C 740.88 315.74 734.94 324.35 729.86 333.28 C 716.56 342.72 702.18 353.04 691.68 365.69 C 688.78 369.37 684.86 375.11 685.90 379.98 C 686.12 382.51 689.16 381.99 690.99 382.05 C 699.22 381.57 704.76 377.28 711.82 373.85 C 709.46 376.44 706.68 378.45 703.71 380.29 C 724.16 376.37 744.21 368.32 761.22 356.23 C 765.51 353.29 769.52 350.02 773.64 346.87 C 779.25 346.00 784.84 345.21 790.36 343.83 C 790.89 340.43 791.37 337.16 793.19 334.15 C 794.99 331.08 796.42 328.00 797.12 324.48 C 799.95 321.44 802.99 318.62 805.97 315.74 C 812.76 315.21 819.55 314.78 826.32 314.06 C 823.38 310.02 820.52 306.07 818.44 301.50 C 816.04 296.41 814.84 291.15 813.51 285.72 C 810.18 291.33 807.15 297.10 804.05 302.84 Z M 274.59 564.73 C 259.18 566.01 243.83 567.11 228.94 571.91 C 224.35 573.48 218.75 575.84 215.91 579.96 C 214.90 581.43 214.70 583.52 216.43 584.54 C 223.77 589.55 231.25 588.50 239.58 589.45 C 236.06 590.32 232.50 590.57 228.88 590.55 C 246.90 596.79 265.86 600.59 285.00 599.59 C 291.04 599.41 297.01 598.62 302.98 597.80 C 308.45 599.55 313.59 602.08 319.17 603.55 C 323.02 597.37 329.60 596.02 334.39 590.86 C 338.19 589.80 342.05 589.02 345.88 588.12 C 351.69 591.25 357.55 594.21 363.50 597.04 C 362.97 592.66 362.46 588.43 362.86 584.00 C 363.31 578.30 365.04 572.89 366.44 567.36 C 360.65 570.00 355.61 574.36 349.58 576.24 C 337.53 569.17 324.65 570.58 310.45 567.01 C 306.63 563.24 303.74 559.25 302.18 554.05 C 292.28 555.80 283.26 559.77 274.59 564.73 Z M 368.39 761.30 C 363.87 760.69 360.28 758.54 356.58 756.07 C 359.05 759.36 361.66 762.52 364.53 765.48 C 377.30 778.87 391.29 790.60 407.70 799.29 C 414.54 803.11 421.79 805.99 428.80 809.44 C 432.10 814.74 435.91 819.48 440.04 824.15 C 448.39 820.43 456.10 822.53 465.08 820.89 C 469.15 821.99 472.99 823.63 477.01 824.87 C 481.08 831.46 485.06 838.15 489.59 844.44 C 491.70 839.46 493.97 834.62 497.28 830.29 C 501.22 824.79 506.16 820.49 511.19 816.05 C 503.71 815.83 496.24 815.68 488.76 816.04 C 485.07 809.34 480.05 803.64 474.07 798.89 C 467.24 793.42 460.43 787.97 453.91 782.12 C 452.32 775.81 451.19 769.95 453.18 763.54 C 447.27 761.33 441.23 759.74 434.98 758.87 C 429.03 757.92 422.99 757.90 417.04 757.04 C 403.94 750.13 390.67 744.00 376.54 739.50 C 369.04 737.22 360.06 734.77 352.25 736.36 C 349.74 737.02 346.81 737.88 346.67 740.98 C 347.78 744.68 350.64 747.98 353.28 750.71 C 357.82 755.32 363.12 757.76 368.39 761.30 Z"/>
        <path id="p1" d="M 437.68 193.77 C 438.74 205.67 441.67 217.07 448.76 226.88 C 441.14 226.61 433.52 226.36 425.90 225.93 C 428.30 223.88 432.24 220.60 431.85 217.10 C 431.18 213.63 427.99 212.70 425.08 211.67 C 429.25 205.68 433.34 199.65 437.68 193.77 Z"/>
        <path id="p2" d="M 363.81 211.26 C 366.09 213.39 367.98 215.70 370.75 217.21 C 373.45 218.67 376.42 219.71 379.27 220.84 C 369.67 223.63 360.02 226.73 350.90 230.87 C 347.46 232.42 343.94 233.76 340.48 235.26 C 346.72 226.03 354.57 217.54 363.81 211.26 Z"/>
        <path id="p3" d="M 425.08 211.67 C 427.99 212.70 431.18 213.63 431.85 217.10 C 432.24 220.60 428.30 223.88 425.90 225.93 C 422.26 228.70 418.57 231.38 415.09 234.35 C 405.74 241.74 396.63 249.29 386.72 255.93 C 373.64 264.38 360.24 271.69 345.32 276.38 C 332.38 280.40 318.96 283.30 305.44 284.29 C 309.38 282.42 313.01 280.39 316.05 277.19 C 308.09 280.88 301.11 284.76 291.99 284.52 C 289.65 284.40 285.61 284.36 285.85 281.02 C 285.81 276.09 290.03 271.29 292.65 267.36 C 293.39 267.93 294.13 268.50 294.86 269.07 C 293.45 272.68 294.79 274.56 296.49 277.62 C 299.03 277.14 301.61 277.61 303.23 275.24 C 305.09 273.14 303.72 270.61 302.17 268.82 C 300.63 267.17 298.16 267.75 296.17 267.72 C 295.55 267.09 294.93 266.45 294.31 265.80 C 300.04 261.33 305.48 256.58 311.56 252.58 C 320.80 246.08 330.82 241.04 340.48 235.26 C 343.94 233.76 347.46 232.42 350.90 230.87 C 360.02 226.73 369.67 223.63 379.27 220.84 C 385.69 219.15 392.12 217.51 398.44 215.48 C 407.15 212.68 415.85 210.65 425.08 211.67 Z M 318.53 248.88 C 321.33 251.03 324.22 252.76 326.16 255.78 C 328.08 258.73 329.42 262.10 330.19 265.54 C 331.14 270.09 330.31 275.26 330.05 279.90 C 334.18 274.86 333.49 268.98 331.91 263.09 C 330.16 257.37 327.48 252.15 322.05 249.16 C 320.88 249.05 319.70 248.96 318.53 248.88 Z M 335.70 269.00 C 344.77 269.50 354.29 267.02 363.18 265.08 C 363.16 261.51 363.48 258.12 364.43 254.66 C 359.90 258.00 355.54 261.14 350.30 263.31 C 345.47 265.31 340.47 266.83 335.70 269.00 Z"/>
        <path id="p4" d="M 415.09 234.35 C 413.91 238.44 411.66 241.76 409.13 245.11 C 406.90 248.04 406.08 251.38 405.24 254.89 C 399.04 255.82 393.00 256.16 386.72 255.93 C 396.63 249.29 405.74 241.74 415.09 234.35 Z"/>
        <path id="p5" d="M 318.53 248.88 C 319.70 248.96 320.88 249.05 322.05 249.16 C 327.48 252.15 330.16 257.37 331.91 263.09 C 333.49 268.98 334.18 274.86 330.05 279.90 C 330.31 275.26 331.14 270.09 330.19 265.54 C 329.42 262.10 328.08 258.73 326.16 255.78 C 324.22 252.76 321.33 251.03 318.53 248.88 Z"/>
        <path id="p6" d="M 364.43 254.66 C 363.48 258.12 363.16 261.51 363.18 265.08 C 354.29 267.02 344.77 269.50 335.70 269.00 C 340.47 266.83 345.47 265.31 350.30 263.31 C 355.54 261.14 359.90 258.00 364.43 254.66 Z"/>
        <path id="p7" d="M 301.58 269.29 C 301.81 271.40 301.83 273.39 301.62 275.51 C 299.91 275.56 298.22 275.56 296.54 275.49 C 296.07 273.60 295.53 271.81 295.74 269.83 C 297.66 269.26 299.60 269.28 301.58 269.29 Z"/>
        <path id="p8" d="M 813.51 285.72 C 814.84 291.15 816.04 296.41 818.44 301.50 C 820.52 306.07 823.38 310.02 826.32 314.06 C 819.55 314.78 812.76 315.21 805.97 315.74 C 807.93 313.66 810.94 310.43 810.56 307.36 C 810.12 304.45 806.39 303.63 804.05 302.84 C 807.15 297.10 810.18 291.33 813.51 285.72 Z"/>
        <path id="p9" d="M 804.05 302.84 C 806.39 303.63 810.12 304.45 810.56 307.36 C 810.94 310.43 807.93 313.66 805.97 315.74 C 802.99 318.62 799.95 321.44 797.12 324.48 C 789.42 332.13 781.86 339.75 773.64 346.87 C 769.52 350.02 765.51 353.29 761.22 356.23 C 744.21 368.32 724.16 376.37 703.71 380.29 C 706.68 378.45 709.46 376.44 711.82 373.85 C 704.76 377.28 699.22 381.57 690.99 382.05 C 689.16 381.99 686.12 382.51 685.90 379.98 C 684.86 375.11 688.78 369.37 691.68 365.69 C 702.18 353.04 716.56 342.72 729.86 333.28 C 740.42 326.63 751.56 321.18 762.90 316.00 C 777.71 311.58 788.24 303.33 804.05 302.84 Z M 712.33 346.81 C 715.57 349.66 719.17 351.76 721.36 355.53 C 723.12 358.61 724.60 362.01 725.18 365.52 C 725.48 368.30 725.28 371.16 725.28 373.96 C 727.50 370.14 727.81 367.43 726.82 363.10 C 725.66 358.34 723.32 353.63 719.86 350.14 C 717.75 347.94 715.14 347.53 712.33 346.81 Z M 728.92 363.80 C 737.55 363.02 745.22 359.91 753.43 357.45 C 753.37 354.26 753.37 351.07 753.46 347.89 C 750.01 351.10 746.61 354.19 742.52 356.57 C 738.08 359.15 733.37 361.22 728.92 363.80 Z M 694.45 365.50 C 690.83 367.38 690.39 371.88 693.53 374.48 C 696.58 377.07 700.70 375.52 701.75 371.80 C 702.71 367.65 698.42 363.88 694.45 365.50 Z"/>
        <path id="p10" d="M 748.78 309.05 C 753.24 312.51 757.38 314.66 762.90 316.00 C 751.56 321.18 740.42 326.63 729.86 333.28 C 734.94 324.35 740.88 315.74 748.78 309.05 Z"/>
        <path id="p11" d="M 797.12 324.48 C 796.42 328.00 794.99 331.08 793.19 334.15 C 791.37 337.16 790.89 340.43 790.36 343.83 C 784.84 345.21 779.25 346.00 773.64 346.87 C 781.86 339.75 789.42 332.13 797.12 324.48 Z"/>
        <path id="p12" d="M 712.33 346.81 C 715.14 347.53 717.75 347.94 719.86 350.14 C 723.32 353.63 725.66 358.34 726.82 363.10 C 727.81 367.43 727.50 370.14 725.28 373.96 C 725.28 371.16 725.48 368.30 725.18 365.52 C 724.60 362.01 723.12 358.61 721.36 355.53 C 719.17 351.76 715.57 349.66 712.33 346.81 Z"/>
        <path id="p13" d="M 753.46 347.89 C 753.37 351.07 753.37 354.26 753.43 357.45 C 745.22 359.91 737.55 363.02 728.92 363.80 C 733.37 361.22 738.08 359.15 742.52 356.57 C 746.61 354.19 750.01 351.10 753.46 347.89 Z"/>
        <path id="p14" d="M 694.45 365.50 C 698.42 363.88 702.71 367.65 701.75 371.80 C 700.70 375.52 696.58 377.07 693.53 374.48 C 690.39 371.88 690.83 367.38 694.45 365.50 Z M 693.24 369.84 C 694.20 371.20 694.89 373.63 697.00 373.31 C 699.29 373.42 700.42 369.96 698.66 368.36 C 696.44 366.21 694.88 368.24 693.24 369.84 Z"/>
        <path id="p15" d="M 698.66 368.36 C 700.42 369.96 699.29 373.42 697.00 373.31 C 694.89 373.63 694.20 371.20 693.24 369.84 C 694.88 368.24 696.44 366.21 698.66 368.36 Z"/>
        <path id="p16" d="M 302.18 554.05 C 303.74 559.25 306.63 563.24 310.45 567.01 C 298.56 565.44 286.58 564.66 274.59 564.73 C 283.26 559.77 292.28 555.80 302.18 554.05 Z"/>
        <path id="p17" d="M 274.59 564.73 C 286.58 564.66 298.56 565.44 310.45 567.01 C 324.65 570.58 337.53 569.17 349.58 576.24 C 352.00 578.31 354.57 580.11 353.73 583.74 C 352.02 586.23 348.65 587.29 345.88 588.12 C 342.05 589.02 338.19 589.80 334.39 590.86 C 323.92 593.48 313.68 596.21 302.98 597.80 C 297.01 598.62 291.04 599.41 285.00 599.59 C 265.86 600.59 246.90 596.79 228.88 590.55 C 232.50 590.57 236.06 590.32 239.58 589.45 C 231.25 588.50 223.77 589.55 216.43 584.54 C 214.70 583.52 214.90 581.43 215.91 579.96 C 218.75 575.84 224.35 573.48 228.94 571.91 C 243.83 567.11 259.18 566.01 274.59 564.73 Z M 252.21 595.43 C 258.31 590.48 259.32 581.23 257.95 574.02 C 257.42 570.85 255.58 569.11 253.03 567.40 C 254.48 571.36 256.61 574.63 256.55 578.98 C 256.76 585.14 254.03 589.76 252.21 595.43 Z M 226.17 574.17 C 223.45 575.57 223.13 579.22 224.18 581.78 C 225.51 583.64 227.78 584.44 230.02 584.33 C 232.36 583.33 234.29 580.63 234.06 578.04 C 233.41 574.49 229.38 572.56 226.17 574.17 Z M 281.82 596.40 C 283.35 593.83 284.95 591.28 286.64 588.80 C 277.07 590.99 267.74 590.19 258.08 589.40 C 265.78 593.03 273.62 594.43 281.82 596.40 Z"/>
        <path id="p18" d="M 253.03 567.40 C 255.58 569.11 257.42 570.85 257.95 574.02 C 259.32 581.23 258.31 590.48 252.21 595.43 C 254.03 589.76 256.76 585.14 256.55 578.98 C 256.61 574.63 254.48 571.36 253.03 567.40 Z"/>
        <path id="p19" d="M 366.44 567.36 C 365.04 572.89 363.31 578.30 362.86 584.00 C 362.46 588.43 362.97 592.66 363.50 597.04 C 357.55 594.21 351.69 591.25 345.88 588.12 C 348.65 587.29 352.02 586.23 353.73 583.74 C 354.57 580.11 352.00 578.31 349.58 576.24 C 355.61 574.36 360.65 570.00 366.44 567.36 Z"/>
        <path id="p20" d="M 226.17 574.17 C 229.38 572.56 233.41 574.49 234.06 578.04 C 234.29 580.63 232.36 583.33 230.02 584.33 C 227.78 584.44 225.51 583.64 224.18 581.78 C 223.13 579.22 223.45 575.57 226.17 574.17 Z M 227.42 576.46 C 224.88 578.36 226.37 582.48 229.61 581.63 C 233.34 580.18 231.21 574.80 227.42 576.46 Z"/>
        <path id="p21" d="M 227.42 576.46 C 231.21 574.80 233.34 580.18 229.61 581.63 C 226.37 582.48 224.88 578.36 227.42 576.46 Z"/>
        <path id="p22" d="M 258.08 589.40 C 267.74 590.19 277.07 590.99 286.64 588.80 C 284.95 591.28 283.35 593.83 281.82 596.40 C 273.62 594.43 265.78 593.03 258.08 589.40 Z"/>
        <path id="p23" d="M 334.39 590.86 C 329.60 596.02 323.02 597.37 319.17 603.55 C 313.59 602.08 308.45 599.55 302.98 597.80 C 313.68 596.21 323.92 593.48 334.39 590.86 Z"/>
        <path id="p24" d="M 352.25 736.36 C 360.06 734.77 369.04 737.22 376.54 739.50 C 390.67 744.00 403.94 750.13 417.04 757.04 C 430.26 764.06 442.28 772.73 453.91 782.12 C 460.43 787.97 467.24 793.42 474.07 798.89 C 480.05 803.64 485.07 809.34 488.76 816.04 C 489.44 819.13 490.39 823.17 487.18 825.24 C 484.22 826.58 480.06 825.61 477.01 824.87 C 472.99 823.63 469.15 821.99 465.08 820.89 C 452.82 817.56 440.82 813.54 428.80 809.44 C 421.79 805.99 414.54 803.11 407.70 799.29 C 391.29 790.60 377.30 778.87 364.53 765.48 C 361.66 762.52 359.05 759.36 356.58 756.07 C 360.28 758.54 363.87 760.69 368.39 761.30 C 363.12 757.76 357.82 755.32 353.28 750.71 C 350.64 747.98 347.78 744.68 346.67 740.98 C 346.81 737.88 349.74 737.02 352.25 736.36 Z M 361.36 738.42 C 357.58 739.70 355.99 744.46 358.24 747.76 C 360.11 750.56 364.26 750.97 366.78 748.83 C 369.01 747.09 369.64 743.93 368.58 741.37 C 367.27 738.81 364.12 737.41 361.36 738.42 Z M 395.13 747.57 C 394.52 751.41 394.38 755.27 392.71 758.84 C 390.99 762.49 388.48 765.79 385.58 768.59 C 382.48 771.59 378.64 773.07 374.88 775.15 C 378.98 775.02 382.38 774.27 385.51 771.52 C 390.57 767.39 394.90 761.48 396.30 755.02 C 397.02 752.30 396.00 750.10 395.13 747.57 Z M 406.98 794.52 C 410.02 791.99 413.05 790.52 416.82 789.38 C 412.10 787.89 407.51 786.26 403.20 783.78 C 397.80 780.80 393.27 776.68 387.84 773.75 C 392.50 781.76 400.44 788.03 406.98 794.52 Z"/>
        <path id="p25" d="M 361.36 738.42 C 364.12 737.41 367.27 738.81 368.58 741.37 C 369.64 743.93 369.01 747.09 366.78 748.83 C 364.26 750.97 360.11 750.56 358.24 747.76 C 355.99 744.46 357.58 739.70 361.36 738.42 Z M 361.38 741.47 C 359.08 742.97 359.80 747.70 363.00 747.49 C 365.69 747.76 367.49 744.32 365.90 742.18 C 364.83 740.72 362.87 740.36 361.38 741.47 Z"/>
        <path id="p26" d="M 361.38 741.47 C 362.87 740.36 364.83 740.72 365.90 742.18 C 367.49 744.32 365.69 747.76 363.00 747.49 C 359.80 747.70 359.08 742.97 361.38 741.47 Z"/>
        <path id="p27" d="M 395.13 747.57 C 396.00 750.10 397.02 752.30 396.30 755.02 C 394.90 761.48 390.57 767.39 385.51 771.52 C 382.38 774.27 378.98 775.02 374.88 775.15 C 378.64 773.07 382.48 771.59 385.58 768.59 C 388.48 765.79 390.99 762.49 392.71 758.84 C 394.38 755.27 394.52 751.41 395.13 747.57 Z"/>
        <path id="p28" d="M 417.04 757.04 C 422.99 757.90 429.03 757.92 434.98 758.87 C 441.23 759.74 447.27 761.33 453.18 763.54 C 451.19 769.95 452.32 775.81 453.91 782.12 C 442.28 772.73 430.26 764.06 417.04 757.04 Z"/>
        <path id="p29" d="M 387.84 773.75 C 393.27 776.68 397.80 780.80 403.20 783.78 C 407.51 786.26 412.10 787.89 416.82 789.38 C 413.05 790.52 410.02 791.99 406.98 794.52 C 400.44 788.03 392.50 781.76 387.84 773.75 Z"/>
        <path id="p30" d="M 428.80 809.44 C 440.82 813.54 452.82 817.56 465.08 820.89 C 456.10 822.53 448.39 820.43 440.04 824.15 C 435.91 819.48 432.10 814.74 428.80 809.44 Z"/>
        <path id="p31" d="M 488.76 816.04 C 496.24 815.68 503.71 815.83 511.19 816.05 C 506.16 820.49 501.22 824.79 497.28 830.29 C 493.97 834.62 491.70 839.46 489.59 844.44 C 485.06 838.15 481.08 831.46 477.01 824.87 C 480.06 825.61 484.22 826.58 487.18 825.24 C 490.39 823.17 489.44 819.13 488.76 816.04 Z"/>
    </defs>
    <g stroke-width="10pt">
        <use stroke="#cccccc" xlink:href="#p1"/>
        <use stroke="#cccccc" xlink:href="#p2"/>
        <use stroke="#b3b3b3" xlink:href="#p3"/>
        <use stroke="#cccccc" xlink:href="#p4"/>
        <use stroke="#efefef" xlink:href="#p5"/>
        <use stroke="#cccccc" xlink:href="#p6"/>
        <use stroke="#010101" xlink:href="#p7"/>
        <use stroke="#cccccc" xlink:href="#p8"/>
        <use stroke="#b3b3b3" xlink:href="#p9"/>
        <use stroke="#cccccc" xlink:href="#p10"/>
        <use stroke="#cccccc" xlink:href="#p11"/>
        <use stroke="#eeeeee" xlink:href="#p12"/>
        <use stroke="#cccccc" xlink:href="#p13"/>
        <use stroke="#cccccc" xlink:href="#p14"/>
        <use stroke="#010101" xlink:href="#p15"/>
        <use stroke="#cccccc" xlink:href="#p16"/>
        <use stroke="#b3b3b3" xlink:href="#p17"/>
        <use stroke="#efefef" xlink:href="#p18"/>
        <use stroke="#cccccc" xlink:href="#p19"/>
        <use stroke="#c0c0c0" xlink:href="#p20"/>
        <use stroke="#010101" xlink:href="#p21"/>
        <use stroke="#cccccc" xlink:href="#p22"/>
        <use stroke="#cccccc" xlink:href="#p23"/>
        <use stroke="#b3b3b3" xlink:href="#p24"/>
        <use stroke="#cccccc" xlink:href="#p25"/>
        <use stroke="#000000" xlink:href="#p26"/>
        <use stroke="#f2f2f2" xlink:href="#p27"/>
        <use stroke="#cccccc" xlink:href="#p28"/>
        <use stroke="#cccccc" xlink:href="#p29"/>
        <use stroke="#cccccc" xlink:href="#p30"/>
        <use stroke="#cccccc" xlink:href="#p31"/>
    </g>
    <g>
        <use fill="#cccccc" xlink:href="#p1"/>
        <use fill="#cccccc" xlink:href="#p2"/>
        <use fill="#b3b3b3" xlink:href="#p3"/>
        <use fill="#cccccc" xlink:href="#p4"/>
        <use fill="#efefef" xlink:href="#p5"/>
        <use fill="#cccccc" xlink:href="#p6"/>
        <use fill="#010101" xlink:href="#p7"/>
        <use fill="#cccccc" xlink:href="#p8"/>
        <use fill="#b3b3b3" xlink:href="#p9"/>
        <use fill="#cccccc" xlink:href="#p10"/>
        <use fill="#cccccc" xlink:href="#p11"/>
        <use fill="#eeeeee" xlink:href="#p12"/>
        <use fill="#cccccc" xlink:href="#p13"/>
        <use fill="#cccccc" xlink:href="#p14"/>
        <use fill="#010101" xlink:href="#p15"/>
        <use fill="#cccccc" xlink:href="#p16"/>
        <use fill="#b3b3b3" xlink:href="#p17"/>
        <use fill="#efefef" xlink:href="#p18"/>
        <use fill="#cccccc" xlink:href="#p19"/>
        <use fill="#c0c0c0" xlink:href="#p20"/>
        <use fill="#010101" xlink:href="#p21"/>
        <use fill="#cccccc" xlink:href="#p22"/>
        <use fill="#cccccc" xlink:href="#p23"/>
        <use fill="#b3b3b3" xlink:href="#p24"/>
        <use fill="#cccccc" xlink:href="#p25"/>
        <use fill="#000000" xlink:href="#p26"/>
        <use fill="#f2f2f2" xlink:href="#p27"/>
        <use fill="#cccccc" xlink:href="#p28"/>
        <use fill="#cccccc" xlink:href="#p29"/>
        <use fill="#cccccc" xlink:href="#p30"/>
        <use fill="#cccccc" xlink:href="#p31"/>
    </g>
</svg>
