<?xml version="1.0" encoding="UTF-8" standalone="no"?>
<!DOCTYPE svg PUBLIC "-//W3C//DTD SVG 1.1//EN" "http://www.w3.org/Graphics/SVG/1.1/DTD/svg11.dtd">
<svg xmlns="http://www.w3.org/2000/svg" xmlns:xlink="http://www.w3.org/1999/xlink" width="1024.0pt" height="1024.0pt" version="1.1" viewBox="0 0 1024 1024">
    <defs>
        <path id="p0" d="M 0.00 0.00 L 1024.00 0.00 L 1024.00 1024.00 L 0.00 1024.00 L 0.00 0.00 Z M 387.68 189.45 C 383.59 193.68 379.00 197.38 373.76 200.11 C 370.34 201.72 366.61 203.28 363.67 205.68 C 361.12 207.68 360.73 212.08 359.90 215.01 C 359.10 213.33 358.30 211.65 357.50 209.96 C 348.28 215.58 338.44 222.17 331.68 230.68 C 329.25 233.63 327.29 236.88 325.98 240.48 C 325.55 243.35 325.67 246.10 325.67 248.98 C 325.10 248.33 324.53 247.67 323.96 247.01 L 323.05 245.91 C 320.31 251.23 319.20 257.00 319.37 262.96 C 319.57 268.27 319.46 273.67 320.24 278.93 C 321.35 286.79 326.83 293.76 334.02 297.01 C 339.31 299.22 345.81 299.49 351.07 297.02 C 356.60 294.49 361.81 291.45 366.12 287.10 C 366.97 286.35 367.81 285.58 368.64 284.81 C 370.24 283.37 371.75 281.85 373.19 280.23 C 374.74 278.49 376.14 276.60 377.59 274.77 C 379.99 271.76 382.29 268.69 384.32 265.42 C 385.31 263.87 386.16 262.25 387.00 260.62 C 384.94 260.67 382.88 260.72 380.82 260.86 C 384.44 258.54 388.58 256.05 391.02 252.44 C 393.21 249.33 394.93 245.91 396.22 242.33 C 397.11 239.95 398.00 237.58 398.81 235.17 C 400.62 229.73 401.67 224.08 402.11 218.37 C 402.30 215.66 402.40 212.95 402.36 210.24 C 402.45 201.12 401.37 190.02 394.05 183.60 C 391.71 185.32 389.67 187.35 387.68 189.45 Z M 654.92 330.58 C 651.98 331.43 649.60 333.87 646.65 334.41 C 646.69 333.49 646.73 332.58 646.76 331.67 C 643.34 332.33 640.03 333.32 636.85 334.78 C 631.32 337.41 626.45 341.75 621.40 345.40 C 616.86 348.71 613.11 352.79 611.15 358.14 C 607.65 367.28 609.91 378.12 617.57 384.40 C 622.76 388.13 628.69 390.94 634.90 392.47 C 646.83 396.29 660.53 396.00 672.96 395.55 C 672.71 395.18 672.46 394.82 672.21 394.45 C 671.16 392.96 670.10 391.47 668.98 390.03 C 673.25 391.80 677.29 393.75 681.99 393.83 C 687.66 394.12 692.71 392.70 698.11 391.23 C 699.42 390.90 700.72 390.55 702.02 390.18 C 708.67 388.10 715.12 385.14 720.93 381.30 C 723.84 379.47 726.64 377.45 729.37 375.35 C 735.99 370.45 742.38 363.73 743.35 355.17 C 740.05 354.28 736.73 353.60 733.35 353.08 C 728.36 352.38 723.66 350.80 719.04 348.82 C 714.94 346.72 710.88 343.87 706.48 342.51 C 702.82 341.41 698.75 343.72 695.36 344.99 C 696.55 343.26 697.72 341.52 698.86 339.76 C 685.88 333.90 669.27 327.60 654.92 330.58 Z M 274.36 529.50 C 272.43 530.50 270.68 531.75 268.86 532.90 C 268.37 532.01 267.87 531.11 267.36 530.23 C 263.71 530.78 260.33 532.13 257.06 533.80 C 252.45 536.21 248.79 539.40 244.51 542.51 C 240.37 545.50 236.73 548.87 234.53 553.56 C 229.90 562.78 232.04 575.20 240.65 581.32 C 247.69 585.96 255.60 589.12 263.97 590.25 C 273.45 592.02 283.37 591.74 292.96 591.46 C 292.73 591.11 292.50 590.76 292.27 590.41 C 291.41 589.12 290.53 587.83 289.64 586.57 C 293.27 587.82 297.16 589.53 300.98 589.72 C 306.27 590.15 311.16 588.87 316.22 587.54 C 317.83 587.13 319.42 586.67 321.01 586.19 C 327.64 584.06 334.15 581.13 339.88 577.14 C 343.18 575.02 346.26 572.60 349.38 570.20 C 354.50 566.17 359.83 559.79 360.39 553.08 C 357.73 551.55 354.52 551.28 351.52 550.80 C 345.61 549.99 340.20 547.91 334.74 545.61 C 331.51 543.30 327.72 540.93 323.76 540.23 C 320.83 539.96 317.63 541.78 314.90 542.72 C 315.84 541.08 316.80 539.44 317.75 537.79 C 309.01 533.95 299.81 530.32 290.34 528.85 C 285.13 528.17 279.41 527.78 274.36 529.50 Z M 532.96 729.88 C 534.55 732.70 536.35 735.33 538.32 737.90 C 541.70 742.31 544.42 747.18 546.12 752.48 C 547.33 756.12 548.17 760.46 550.41 763.60 C 552.35 766.05 556.16 767.09 558.94 768.36 C 557.01 768.75 555.07 769.16 553.14 769.57 C 558.53 782.14 565.79 798.15 578.25 805.08 C 580.67 805.84 583.10 806.16 585.60 806.50 C 585.24 807.15 584.88 807.80 584.54 808.45 L 584.07 809.45 C 586.47 810.96 589.01 812.21 591.71 813.09 C 595.68 814.55 599.80 815.21 603.99 815.60 C 610.62 816.29 616.77 817.52 623.23 815.09 C 632.90 811.49 639.76 801.48 637.81 791.05 C 636.28 784.08 633.34 777.53 629.32 771.64 C 627.78 769.28 626.12 767.01 624.26 764.89 C 622.89 763.29 621.41 761.77 619.97 760.23 C 617.55 757.62 615.07 755.07 612.40 752.71 C 610.79 751.24 609.10 749.90 607.38 748.57 C 607.08 750.48 606.77 752.38 606.56 754.31 C 604.62 750.31 602.69 745.90 599.38 742.85 C 594.75 738.71 589.05 735.49 583.44 732.86 C 576.90 729.61 569.83 727.33 562.60 726.28 C 553.23 724.62 540.89 723.54 532.96 729.88 Z"/>
        <path id="p1" d="M 394.05 183.60 C 401.37 190.02 402.45 201.12 402.36 210.24 C 401.82 207.14 401.42 203.78 400.12 200.91 C 398.82 199.21 396.87 197.94 395.20 196.63 C 395.39 195.32 395.58 194.02 395.77 192.71 C 394.61 193.12 393.44 193.52 392.28 193.93 C 390.77 192.41 389.26 190.89 387.68 189.45 C 389.67 187.35 391.71 185.32 394.05 183.60 Z"/>
        <path id="p2" d="M 387.68 189.45 C 389.26 190.89 390.77 192.41 392.28 193.93 C 393.44 193.52 394.61 193.12 395.77 192.71 C 395.58 194.02 395.39 195.32 395.20 196.63 C 396.87 197.94 398.82 199.21 400.12 200.91 C 401.42 203.78 401.82 207.14 402.36 210.24 C 402.40 212.95 402.30 215.66 402.11 218.37 C 401.19 216.07 400.34 213.21 398.58 211.44 C 396.05 210.78 392.95 211.93 390.49 212.58 C 391.44 210.30 392.19 208.02 392.77 205.62 C 391.43 207.02 390.11 208.45 388.82 209.90 C 388.36 207.50 387.87 205.11 387.33 202.72 C 386.04 206.02 385.28 209.41 384.76 212.91 C 382.79 209.12 380.97 205.29 379.50 201.28 C 377.60 200.86 375.68 200.43 373.76 200.11 C 379.00 197.38 383.59 193.68 387.68 189.45 Z"/>
        <path id="p3" d="M 373.76 200.11 C 375.68 200.43 377.60 200.86 379.50 201.28 C 380.97 205.29 382.79 209.12 384.76 212.91 C 385.28 209.41 386.04 206.02 387.33 202.72 C 387.87 205.11 388.36 207.50 388.82 209.90 C 390.11 208.45 391.43 207.02 392.77 205.62 C 392.19 208.02 391.44 210.30 390.49 212.58 C 392.95 211.93 396.05 210.78 398.58 211.44 C 400.34 213.21 401.19 216.07 402.11 218.37 C 401.67 224.08 400.62 229.73 398.81 235.17 C 394.79 235.99 391.70 235.68 387.79 234.53 C 389.97 231.93 392.07 229.29 394.05 226.53 C 390.28 226.58 386.52 226.43 382.75 226.25 C 385.86 223.72 388.23 220.57 390.30 217.17 C 388.04 217.71 385.24 218.12 383.36 219.56 C 381.63 221.04 380.27 222.97 378.80 224.69 L 379.16 223.00 C 379.62 220.78 380.20 218.46 380.20 216.18 C 380.02 214.22 378.68 212.29 377.78 210.60 C 376.53 211.67 375.23 212.31 374.97 214.10 C 374.04 219.17 374.87 224.41 374.09 229.54 C 369.78 224.39 369.30 218.60 366.73 212.60 C 365.59 214.91 364.28 217.14 364.16 219.78 C 363.93 223.88 365.62 227.42 366.82 231.24 C 367.08 233.96 366.49 236.54 365.79 239.15 C 363.60 234.29 361.25 229.70 358.11 225.38 L 357.80 224.46 C 356.85 221.47 355.52 218.67 353.99 215.94 C 352.41 216.64 350.84 217.34 349.27 218.04 C 351.98 224.65 353.61 231.01 353.75 238.21 C 353.86 240.10 354.02 241.98 354.20 243.87 C 354.32 248.56 353.67 252.12 351.25 256.16 C 350.93 251.46 350.80 246.65 350.14 241.99 C 349.59 237.16 348.74 232.38 347.45 227.68 C 346.80 225.43 346.01 223.22 345.04 221.08 C 342.08 223.35 339.67 226.12 337.45 229.09 C 339.72 235.23 341.61 241.48 343.41 247.77 C 344.11 251.31 343.92 254.83 343.44 258.38 C 341.97 253.82 340.47 249.28 339.12 244.68 C 338.33 244.90 337.53 245.12 336.74 245.34 C 336.46 244.47 336.19 243.60 335.93 242.73 C 335.45 238.95 334.61 236.47 331.96 233.66 C 329.62 241.16 331.43 248.66 334.30 255.70 C 333.93 256.48 333.57 257.26 333.21 258.04 C 331.66 254.38 329.80 250.98 328.88 247.08 C 328.30 244.57 327.49 242.58 325.98 240.48 C 327.29 236.88 329.25 233.63 331.68 230.68 C 338.44 222.17 348.28 215.58 357.50 209.96 C 358.30 211.65 359.10 213.33 359.90 215.01 C 360.73 212.08 361.12 207.68 363.67 205.68 C 366.61 203.28 370.34 201.72 373.76 200.11 Z"/>
        <path id="p4" d="M 377.78 210.60 C 378.68 212.29 380.02 214.22 380.20 216.18 C 380.20 218.46 379.62 220.78 379.16 223.00 C 377.04 228.87 372.83 232.81 369.59 237.95 C 371.06 237.53 373.15 237.44 374.13 236.14 C 377.11 232.64 378.60 228.70 382.75 226.25 C 386.52 226.43 390.28 226.58 394.05 226.53 C 392.07 229.29 389.97 231.93 387.79 234.53 C 391.70 235.68 394.79 235.99 398.81 235.17 C 398.00 237.58 397.11 239.95 396.22 242.33 C 395.85 241.42 395.45 240.52 395.04 239.63 C 392.15 241.32 389.37 243.09 386.17 244.18 C 386.77 242.50 387.37 240.83 387.96 239.15 C 384.09 239.96 380.37 241.26 376.57 242.30 C 373.87 243.06 370.93 243.39 368.36 244.50 C 365.91 245.83 364.15 248.72 362.58 250.97 C 361.87 251.21 361.15 251.44 360.44 251.67 C 360.79 250.41 361.15 249.14 361.51 247.88 C 361.23 247.25 360.96 246.62 360.69 245.98 C 362.37 238.72 359.12 233.05 358.11 225.38 C 361.25 229.70 363.60 234.29 365.79 239.15 C 365.35 240.78 364.90 242.41 364.48 244.04 C 366.64 240.00 369.02 235.49 369.68 230.92 C 370.11 227.39 368.75 224.42 366.47 221.82 C 366.42 224.97 366.64 228.10 366.82 231.24 C 365.62 227.42 363.93 223.88 364.16 219.78 C 364.28 217.14 365.59 214.91 366.73 212.60 C 369.30 218.60 369.78 224.39 374.09 229.54 C 374.87 224.41 374.04 219.17 374.97 214.10 C 375.23 212.31 376.53 211.67 377.78 210.60 Z"/>
        <path id="p5" d="M 353.99 215.94 C 355.52 218.67 356.85 221.47 357.80 224.46 C 356.49 225.54 354.39 226.43 354.13 228.24 C 353.42 231.45 353.61 234.94 353.75 238.21 C 353.61 231.01 351.98 224.65 349.27 218.04 C 350.84 217.34 352.41 216.64 353.99 215.94 Z"/>
        <path id="p6" d="M 390.30 217.17 C 388.23 220.57 385.86 223.72 382.75 226.25 C 378.60 228.70 377.11 232.64 374.13 236.14 C 373.15 237.44 371.06 237.53 369.59 237.95 C 372.83 232.81 377.04 228.87 379.16 223.00 L 378.80 224.69 C 380.27 222.97 381.63 221.04 383.36 219.56 C 385.24 218.12 388.04 217.71 390.30 217.17 Z"/>
        <path id="p7" d="M 345.04 221.08 C 346.01 223.22 346.80 225.43 347.45 227.68 C 345.94 226.57 344.44 225.44 342.90 224.36 C 342.99 228.06 343.26 231.74 343.74 235.40 C 344.60 241.33 344.83 247.12 346.77 252.85 C 347.96 252.65 349.14 252.46 350.33 252.26 C 349.69 254.00 348.94 255.71 348.19 257.40 C 347.33 257.20 346.47 257.00 345.61 256.80 C 344.99 253.76 344.26 250.75 343.41 247.77 C 341.61 241.48 339.72 235.23 337.45 229.09 C 339.67 226.12 342.08 223.35 345.04 221.08 Z"/>
        <path id="p8" d="M 366.47 221.82 C 368.75 224.42 370.11 227.39 369.68 230.92 C 369.02 235.49 366.64 240.00 364.48 244.04 C 364.90 242.41 365.35 240.78 365.79 239.15 C 366.49 236.54 367.08 233.96 366.82 231.24 C 366.64 228.10 366.42 224.97 366.47 221.82 Z"/>
        <path id="p9" d="M 342.90 224.36 C 344.44 225.44 345.94 226.57 347.45 227.68 C 348.74 232.38 349.59 237.16 350.14 241.99 C 350.35 245.39 350.48 248.85 350.33 252.26 C 349.14 252.46 347.96 252.65 346.77 252.85 C 344.83 247.12 344.60 241.33 343.74 235.40 C 343.26 231.74 342.99 228.06 342.90 224.36 Z"/>
        <path id="p10" d="M 357.80 224.46 L 358.11 225.38 C 359.12 233.05 362.37 238.72 360.69 245.98 C 359.08 246.57 357.47 247.16 355.87 247.76 C 355.30 246.47 354.72 245.18 354.20 243.87 C 354.02 241.98 353.86 240.10 353.75 238.21 C 353.61 234.94 353.42 231.45 354.13 228.24 C 354.39 226.43 356.49 225.54 357.80 224.46 Z"/>
        <path id="p11" d="M 331.96 233.66 C 334.61 236.47 335.45 238.95 335.93 242.73 C 336.87 249.77 339.41 256.56 340.77 263.54 C 339.44 262.73 338.09 261.91 336.78 261.06 C 335.93 259.29 335.08 257.51 334.30 255.70 C 331.43 248.66 329.62 241.16 331.96 233.66 Z"/>
        <path id="p12" d="M 387.96 239.15 C 387.37 240.83 386.77 242.50 386.17 244.18 C 382.13 245.38 378.01 246.02 373.94 247.02 C 369.96 247.99 366.45 249.68 362.58 250.97 C 364.15 248.72 365.91 245.83 368.36 244.50 C 370.93 243.39 373.87 243.06 376.57 242.30 C 380.37 241.26 384.09 239.96 387.96 239.15 Z"/>
        <path id="p13" d="M 395.04 239.63 C 395.45 240.52 395.85 241.42 396.22 242.33 C 394.93 245.91 393.21 249.33 391.02 252.44 L 390.67 251.10 C 390.33 249.85 390.01 248.60 389.68 247.34 C 385.67 247.93 381.68 248.69 377.67 249.32 C 373.21 249.72 369.04 251.00 364.93 252.75 C 362.52 253.67 359.85 254.37 357.61 255.65 C 355.07 257.16 353.37 260.16 351.81 262.60 C 356.88 262.22 361.48 261.05 366.24 259.26 C 370.23 258.25 374.19 257.41 378.01 256.01 C 375.95 257.81 374.16 259.61 371.59 260.71 C 365.06 263.55 358.04 262.36 351.67 266.04 C 351.79 266.79 351.91 267.54 352.03 268.29 C 349.74 269.28 347.63 270.58 345.58 272.00 C 344.53 272.72 343.50 273.47 342.47 274.22 C 340.43 272.33 338.33 270.50 337.00 268.01 C 335.37 264.91 334.50 261.30 333.21 258.04 C 333.57 257.26 333.93 256.48 334.30 255.70 C 335.08 257.51 335.93 259.29 336.78 261.06 C 338.09 264.26 339.58 267.27 341.68 270.03 C 342.44 266.17 343.04 262.29 343.44 258.38 C 343.92 254.83 344.11 251.31 343.41 247.77 C 344.26 250.75 344.99 253.76 345.61 256.80 C 346.47 257.00 347.33 257.20 348.19 257.40 C 348.94 255.71 349.69 254.00 350.33 252.26 C 350.48 248.85 350.35 245.39 350.14 241.99 C 350.80 246.65 350.93 251.46 351.25 256.16 C 353.67 252.12 354.32 248.56 354.20 243.87 C 354.72 245.18 355.30 246.47 355.87 247.76 C 357.47 247.16 359.08 246.57 360.69 245.98 C 360.96 246.62 361.23 247.25 361.51 247.88 C 361.15 249.14 360.79 250.41 360.44 251.67 C 361.15 251.44 361.87 251.21 362.58 250.97 C 366.45 249.68 369.96 247.99 373.94 247.02 C 378.01 246.02 382.13 245.38 386.17 244.18 C 389.37 243.09 392.15 241.32 395.04 239.63 Z"/>
        <path id="p14" d="M 325.98 240.48 C 327.49 242.58 328.30 244.57 328.88 247.08 C 329.80 250.98 331.66 254.38 333.21 258.04 C 334.50 261.30 335.37 264.91 337.00 268.01 C 338.33 270.50 340.43 272.33 342.47 274.22 C 345.34 276.64 348.98 280.87 353.01 280.78 C 362.12 280.26 368.13 273.27 377.59 274.77 C 376.14 276.60 374.74 278.49 373.19 280.23 C 371.31 281.36 369.22 282.66 367.04 283.03 C 365.81 282.78 364.58 282.25 363.40 281.79 C 357.10 283.69 351.04 284.12 346.00 287.85 C 348.06 288.09 350.05 288.33 352.12 288.18 C 358.00 287.77 362.60 284.48 368.64 284.81 C 367.81 285.58 366.97 286.35 366.12 287.10 C 362.56 288.90 359.01 290.84 355.29 292.27 C 353.33 293.02 351.51 293.27 349.54 292.41 C 342.42 289.29 336.18 284.79 330.75 279.25 C 328.07 276.45 324.33 274.02 322.41 270.63 C 320.60 265.80 320.91 259.89 320.99 254.79 C 324.90 261.03 327.62 267.92 331.81 273.96 C 331.86 271.50 331.86 269.04 331.87 266.58 C 331.14 266.94 330.41 267.30 329.68 267.65 C 330.11 265.88 330.55 264.11 330.99 262.34 C 330.06 263.24 329.14 264.15 328.22 265.05 C 326.46 261.01 323.87 257.21 322.53 253.02 C 322.67 250.99 323.45 248.97 323.96 247.01 C 324.53 247.67 325.10 248.33 325.67 248.98 C 325.67 246.10 325.55 243.35 325.98 240.48 Z"/>
        <path id="p15" d="M 335.93 242.73 C 336.19 243.60 336.46 244.47 336.74 245.34 C 337.53 245.12 338.33 244.90 339.12 244.68 C 340.47 249.28 341.97 253.82 343.44 258.38 C 343.04 262.29 342.44 266.17 341.68 270.03 C 339.58 267.27 338.09 264.26 336.78 261.06 C 338.09 261.91 339.44 262.73 340.77 263.54 C 339.41 256.56 336.87 249.77 335.93 242.73 Z"/>
        <path id="p16" d="M 323.05 245.91 L 323.96 247.01 C 323.45 248.97 322.67 250.99 322.53 253.02 C 323.87 257.21 326.46 261.01 328.22 265.05 C 329.14 264.15 330.06 263.24 330.99 262.34 C 330.55 264.11 330.11 265.88 329.68 267.65 C 330.41 267.30 331.14 266.94 331.87 266.58 C 331.86 269.04 331.86 271.50 331.81 273.96 C 327.62 267.92 324.90 261.03 320.99 254.79 C 320.91 259.89 320.60 265.80 322.41 270.63 C 324.33 274.02 328.07 276.45 330.75 279.25 C 336.18 284.79 342.42 289.29 349.54 292.41 C 351.51 293.27 353.33 293.02 355.29 292.27 C 359.01 290.84 362.56 288.90 366.12 287.10 C 361.81 291.45 356.60 294.49 351.07 297.02 C 345.81 299.49 339.31 299.22 334.02 297.01 C 326.83 293.76 321.35 286.79 320.24 278.93 C 319.46 273.67 319.57 268.27 319.37 262.96 C 319.20 257.00 320.31 251.23 323.05 245.91 Z"/>
        <path id="p17" d="M 389.68 247.34 C 390.01 248.60 390.33 249.85 390.67 251.10 C 388.54 251.59 386.42 252.14 384.34 252.80 C 383.66 252.11 382.99 251.41 382.32 250.72 C 381.35 250.78 380.37 250.83 379.40 250.88 C 378.83 250.35 378.25 249.83 377.67 249.32 C 381.68 248.69 385.67 247.93 389.68 247.34 Z"/>
        <path id="p18" d="M 377.67 249.32 C 378.25 249.83 378.83 250.35 379.40 250.88 C 380.37 250.83 381.35 250.78 382.32 250.72 C 382.99 251.41 383.66 252.11 384.34 252.80 C 382.12 253.66 380.02 254.75 378.01 256.01 C 374.19 257.41 370.23 258.25 366.24 259.26 C 363.76 259.17 361.29 258.94 358.81 258.72 C 360.72 256.60 362.71 254.56 364.93 252.75 C 369.04 251.00 373.21 249.72 377.67 249.32 Z"/>
        <path id="p19" d="M 390.67 251.10 L 391.02 252.44 C 388.58 256.05 384.44 258.54 380.82 260.86 C 374.52 262.66 368.13 264.08 361.83 265.90 C 358.58 266.75 355.27 267.39 352.03 268.29 C 351.91 267.54 351.79 266.79 351.67 266.04 C 358.04 262.36 365.06 263.55 371.59 260.71 C 374.16 259.61 375.95 257.81 378.01 256.01 C 380.02 254.75 382.12 253.66 384.34 252.80 C 386.42 252.14 388.54 251.59 390.67 251.10 Z"/>
        <path id="p20" d="M 364.93 252.75 C 362.71 254.56 360.72 256.60 358.81 258.72 C 361.29 258.94 363.76 259.17 366.24 259.26 C 361.48 261.05 356.88 262.22 351.81 262.60 C 353.37 260.16 355.07 257.16 357.61 255.65 C 359.85 254.37 362.52 253.67 364.93 252.75 Z"/>
        <path id="p21" d="M 380.82 260.86 C 382.88 260.72 384.94 260.67 387.00 260.62 C 386.16 262.25 385.31 263.87 384.32 265.42 C 378.45 269.92 372.16 268.95 365.18 270.17 C 363.96 270.20 362.74 270.21 361.52 270.22 C 361.62 268.78 361.73 267.34 361.83 265.90 C 368.13 264.08 374.52 262.66 380.82 260.86 Z"/>
        <path id="p22" d="M 384.32 265.42 C 382.29 268.69 379.99 271.76 377.59 274.77 C 368.13 273.27 362.12 280.26 353.01 280.78 C 348.98 280.87 345.34 276.64 342.47 274.22 C 343.50 273.47 344.53 272.72 345.58 272.00 C 352.69 274.53 358.36 271.92 365.18 270.17 C 372.16 268.95 378.45 269.92 384.32 265.42 Z"/>
        <path id="p23" d="M 361.83 265.90 C 361.73 267.34 361.62 268.78 361.52 270.22 C 362.74 270.21 363.96 270.20 365.18 270.17 C 358.36 271.92 352.69 274.53 345.58 272.00 C 347.63 270.58 349.74 269.28 352.03 268.29 C 355.27 267.39 358.58 266.75 361.83 265.90 Z"/>
        <path id="p24" d="M 373.19 280.23 C 371.75 281.85 370.24 283.37 368.64 284.81 C 362.60 284.48 358.00 287.77 352.12 288.18 C 350.05 288.33 348.06 288.09 346.00 287.85 C 351.04 284.12 357.10 283.69 363.40 281.79 C 364.58 282.25 365.81 282.78 367.04 283.03 C 369.22 282.66 371.31 281.36 373.19 280.23 Z"/>
        <path id="p25" d="M 698.86 339.76 C 697.72 341.52 696.55 343.26 695.36 344.99 C 698.75 343.72 702.82 341.41 706.48 342.51 C 710.88 343.87 714.94 346.72 719.04 348.82 L 717.59 348.76 C 718.15 350.39 718.77 352.00 719.38 353.61 C 716.71 357.25 714.47 361.12 712.39 365.12 C 715.78 363.10 719.03 361.70 722.86 360.70 C 721.16 362.59 719.46 364.47 717.87 366.45 C 719.63 366.53 721.40 366.61 723.17 366.68 C 722.93 367.27 722.70 367.86 722.46 368.45 C 720.39 368.73 718.33 369.01 716.26 369.27 C 718.32 371.14 721.33 373.29 722.14 376.04 C 721.68 377.88 720.51 379.57 719.74 381.31 L 720.93 381.30 C 715.12 385.14 708.67 388.10 702.02 390.18 C 698.77 387.42 696.86 384.00 695.17 380.16 C 698.88 380.56 702.58 380.83 706.31 380.96 C 704.12 377.74 701.89 374.56 699.79 371.28 C 703.89 371.55 707.98 371.85 712.09 371.90 C 707.47 367.95 702.43 368.36 696.77 367.49 C 699.94 366.01 703.32 364.95 706.42 363.33 C 708.75 362.22 709.34 358.91 710.18 356.71 C 707.51 356.98 705.03 357.09 702.75 358.68 C 699.18 361.04 696.02 363.76 691.96 365.33 C 693.96 358.69 698.76 354.92 702.13 349.01 C 699.45 349.47 696.57 349.69 694.28 351.29 C 690.52 353.82 688.35 357.22 685.67 360.73 C 683.20 362.98 680.27 363.30 677.19 364.31 C 680.16 361.37 682.55 358.12 684.32 354.33 C 686.61 349.52 689.29 344.92 691.51 340.08 C 690.02 339.28 688.54 338.47 687.02 337.73 C 684.52 340.71 682.51 344.01 680.14 347.07 C 675.15 350.95 670.37 355.08 665.46 359.06 C 664.93 359.48 664.41 359.90 663.88 360.32 C 664.13 361.57 664.38 362.82 664.62 364.07 C 659.47 364.52 654.55 364.46 649.69 366.55 C 654.75 372.03 660.07 376.62 666.18 380.89 C 669.97 383.81 674.48 385.45 678.23 388.45 C 681.45 391.15 683.14 391.71 687.33 391.68 C 684.39 387.17 680.45 383.78 676.72 379.97 C 672.93 375.63 668.27 372.56 663.56 369.33 C 664.36 369.17 665.16 369.02 665.97 368.87 C 672.32 371.78 677.17 376.15 681.84 381.24 C 685.93 385.59 689.42 387.87 695.25 389.40 C 695.09 390.08 694.93 390.75 694.77 391.43 C 695.88 391.38 697.00 391.31 698.11 391.23 C 692.71 392.70 687.66 394.12 681.99 393.83 C 677.29 393.75 673.25 391.80 668.98 390.03 C 663.75 386.08 659.11 381.48 653.96 377.42 C 648.92 373.27 644.84 368.81 638.72 366.11 C 639.26 373.35 644.84 376.10 649.61 380.56 C 654.07 384.40 658.06 388.69 661.35 393.58 C 659.46 393.59 657.19 394.27 655.39 393.67 C 652.74 392.13 650.57 389.77 648.06 387.99 C 644.05 384.98 638.55 382.47 635.48 378.48 C 633.35 375.68 633.82 372.39 634.16 369.12 C 634.93 363.91 635.32 358.85 638.33 354.35 C 640.86 350.54 643.56 346.87 645.82 342.88 C 648.35 338.36 652.17 334.95 654.92 330.58 C 669.27 327.60 685.88 333.90 698.86 339.76 Z M 641.79 352.93 C 639.92 355.72 638.66 358.77 637.61 361.94 C 641.99 360.50 646.06 358.72 649.22 355.24 C 653.24 350.62 657.61 347.26 657.93 340.69 C 660.80 338.33 662.52 335.30 663.88 331.90 C 661.14 332.67 658.52 333.40 656.26 335.23 C 649.85 340.10 646.19 346.39 641.79 352.93 Z M 650.71 359.88 C 653.65 359.89 656.43 359.75 659.11 358.45 C 665.56 353.60 671.92 348.33 677.16 342.17 C 679.16 340.11 680.65 338.27 681.37 335.41 C 678.16 334.79 674.55 333.80 671.28 334.23 C 669.44 335.20 668.05 337.20 666.80 338.81 C 663.04 343.99 659.11 349.02 654.78 353.72 C 653.04 355.56 651.79 357.61 650.71 359.88 Z"/>
        <path id="p26" d="M 654.92 330.58 C 652.17 334.95 648.35 338.36 645.82 342.88 C 643.56 346.87 640.86 350.54 638.33 354.35 C 635.32 358.85 634.93 363.91 634.16 369.12 C 633.82 372.39 633.35 375.68 635.48 378.48 C 638.55 382.47 644.05 384.98 648.06 387.99 C 650.57 389.77 652.74 392.13 655.39 393.67 C 657.19 394.27 659.46 393.59 661.35 393.58 C 665.01 394.19 668.45 395.07 672.21 394.45 C 672.46 394.82 672.71 395.18 672.96 395.55 C 660.53 396.00 646.83 396.29 634.90 392.47 C 631.74 390.13 628.32 388.15 625.19 385.78 C 623.07 384.26 623.02 381.96 622.62 379.60 C 622.26 376.50 621.99 373.37 621.92 370.26 C 621.82 366.03 623.82 362.30 624.18 357.92 C 624.62 354.19 624.10 349.93 625.36 346.39 C 627.53 342.21 632.57 339.18 636.26 336.46 C 635.09 344.24 629.77 349.53 627.65 356.91 C 630.39 355.27 633.84 353.37 635.59 350.63 C 636.36 348.23 635.99 345.58 636.96 343.16 C 638.07 340.42 639.46 337.56 641.51 335.40 C 642.76 333.97 644.94 334.51 646.65 334.41 C 649.60 333.87 651.98 331.43 654.92 330.58 Z M 639.18 390.85 C 640.03 389.99 640.89 389.13 641.74 388.27 C 637.69 385.61 634.26 382.49 630.86 379.07 C 629.50 377.61 627.84 377.33 625.93 377.14 C 627.51 383.28 634.28 387.43 639.18 390.85 Z"/>
        <path id="p27" d="M 646.76 331.67 C 646.73 332.58 646.69 333.49 646.65 334.41 C 644.94 334.51 642.76 333.97 641.51 335.40 C 639.46 337.56 638.07 340.42 636.96 343.16 C 635.99 345.58 636.36 348.23 635.59 350.63 C 633.84 353.37 630.39 355.27 627.65 356.91 C 629.77 349.53 635.09 344.24 636.26 336.46 C 636.46 335.90 636.66 335.34 636.85 334.78 C 640.03 333.32 643.34 332.33 646.76 331.67 Z"/>
        <path id="p28" d="M 663.88 331.90 C 662.52 335.30 660.80 338.33 657.93 340.69 C 652.08 345.28 648.73 351.75 643.34 356.85 C 642.82 355.54 642.31 354.24 641.79 352.93 C 646.19 346.39 649.85 340.10 656.26 335.23 C 658.52 333.40 661.14 332.67 663.88 331.90 Z"/>
        <path id="p29" d="M 671.28 334.23 C 674.55 333.80 678.16 334.79 681.37 335.41 C 680.65 338.27 679.16 340.11 677.16 342.17 C 677.64 340.04 678.03 337.90 678.43 335.75 C 674.99 337.80 671.76 340.08 668.91 342.91 C 664.64 347.09 659.93 350.77 655.71 355.00 C 655.93 355.88 656.15 356.76 656.37 357.64 C 657.28 357.91 658.20 358.18 659.11 358.45 C 656.43 359.75 653.65 359.89 650.71 359.88 C 651.79 357.61 653.04 355.56 654.78 353.72 C 659.11 349.02 663.04 343.99 666.80 338.81 C 668.05 337.20 669.44 335.20 671.28 334.23 Z"/>
        <path id="p30" d="M 636.85 334.78 C 636.66 335.34 636.46 335.90 636.26 336.46 C 632.57 339.18 627.53 342.21 625.36 346.39 C 624.10 349.93 624.62 354.19 624.18 357.92 C 623.82 362.30 621.82 366.03 621.92 370.26 C 621.99 373.37 622.26 376.50 622.62 379.60 C 623.02 381.96 623.07 384.26 625.19 385.78 C 628.32 388.15 631.74 390.13 634.90 392.47 C 628.69 390.94 622.76 388.13 617.57 384.40 C 609.91 378.12 607.65 367.28 611.15 358.14 C 613.11 352.79 616.86 348.71 621.40 345.40 C 626.45 341.75 631.32 337.41 636.85 334.78 Z"/>
        <path id="p31" d="M 678.43 335.75 C 678.03 337.90 677.64 340.04 677.16 342.17 C 671.92 348.33 665.56 353.60 659.11 358.45 C 658.20 358.18 657.28 357.91 656.37 357.64 C 656.15 356.76 655.93 355.88 655.71 355.00 C 659.93 350.77 664.64 347.09 668.91 342.91 C 671.76 340.08 674.99 337.80 678.43 335.75 Z"/>
        <path id="p32" d="M 687.02 337.73 C 688.54 338.47 690.02 339.28 691.51 340.08 C 689.29 344.92 686.61 349.52 684.32 354.33 C 682.55 358.12 680.16 361.37 677.19 364.31 C 676.16 364.91 675.13 365.51 674.10 366.11 C 678.98 365.46 685.19 365.17 689.34 362.31 C 692.29 360.31 693.51 357.45 694.25 354.08 C 691.17 356.03 688.46 358.40 685.67 360.73 C 688.35 357.22 690.52 353.82 694.28 351.29 C 696.57 349.69 699.45 349.47 702.13 349.01 C 698.76 354.92 693.96 358.69 691.96 365.33 C 696.02 363.76 699.18 361.04 702.75 358.68 C 705.03 357.09 707.51 356.98 710.18 356.71 C 709.34 358.91 708.75 362.22 706.42 363.33 C 703.32 364.95 699.94 366.01 696.77 367.49 C 702.43 368.36 707.47 367.95 712.09 371.90 C 707.98 371.85 703.89 371.55 699.79 371.28 C 701.89 374.56 704.12 377.74 706.31 380.96 C 702.58 380.83 698.88 380.56 695.17 380.16 C 696.86 384.00 698.77 387.42 702.02 390.18 C 700.72 390.55 699.42 390.90 698.11 391.23 C 697.00 391.31 695.88 391.38 694.77 391.43 C 694.93 390.75 695.09 390.08 695.25 389.40 C 689.42 387.87 685.93 385.59 681.84 381.24 C 685.24 383.45 687.95 384.31 692.00 384.25 C 690.05 381.01 688.02 379.14 684.80 377.20 C 681.39 375.26 679.34 372.10 676.37 369.71 C 673.23 368.37 669.32 368.47 665.97 368.87 C 665.16 369.02 664.36 369.17 663.56 369.33 C 661.63 369.72 659.71 370.12 657.79 370.52 C 660.42 374.10 663.25 377.54 666.18 380.89 C 660.07 376.62 654.75 372.03 649.69 366.55 C 654.55 364.46 659.47 364.52 664.62 364.07 C 664.38 362.82 664.13 361.57 663.88 360.32 C 664.41 359.90 664.93 359.48 665.46 359.06 C 667.27 360.79 669.12 362.47 671.00 364.13 C 677.33 360.20 682.21 353.61 686.12 347.37 C 684.13 347.25 682.13 347.11 680.14 347.07 C 682.51 344.01 684.52 340.71 687.02 337.73 Z M 681.02 369.82 C 687.20 372.42 693.53 375.65 700.10 377.02 C 695.05 371.64 688.07 370.30 681.02 369.82 Z"/>
        <path id="p33" d="M 657.93 340.69 C 657.61 347.26 653.24 350.62 649.22 355.24 C 646.06 358.72 641.99 360.50 637.61 361.94 C 638.66 358.77 639.92 355.72 641.79 352.93 C 642.31 354.24 642.82 355.54 643.34 356.85 C 648.73 351.75 652.08 345.28 657.93 340.69 Z"/>
        <path id="p34" d="M 680.14 347.07 C 682.13 347.11 684.13 347.25 686.12 347.37 C 682.21 353.61 677.33 360.20 671.00 364.13 C 669.12 362.47 667.27 360.79 665.46 359.06 C 670.37 355.08 675.15 350.95 680.14 347.07 Z"/>
        <path id="p35" d="M 717.59 348.76 L 719.04 348.82 C 723.66 350.80 728.36 352.38 733.35 353.08 C 733.72 354.99 734.65 356.51 733.61 358.38 C 732.12 361.74 729.32 363.08 726.34 364.84 C 727.98 364.61 729.62 364.39 731.26 364.16 C 731.71 365.74 732.22 367.37 732.44 369.00 C 732.27 371.27 730.64 373.52 729.37 375.35 C 726.64 377.45 723.84 379.47 720.93 381.30 L 719.74 381.31 C 720.51 379.57 721.68 377.88 722.14 376.04 C 721.33 373.29 718.32 371.14 716.26 369.27 C 718.33 369.01 720.39 368.73 722.46 368.45 C 722.70 367.86 722.93 367.27 723.17 366.68 C 721.40 366.61 719.63 366.53 717.87 366.45 C 719.46 364.47 721.16 362.59 722.86 360.70 C 719.03 361.70 715.78 363.10 712.39 365.12 C 714.47 361.12 716.71 357.25 719.38 353.61 C 718.77 352.00 718.15 350.39 717.59 348.76 Z"/>
        <path id="p36" d="M 733.35 353.08 C 736.73 353.60 740.05 354.28 743.35 355.17 C 742.38 363.73 735.99 370.45 729.37 375.35 C 730.64 373.52 732.27 371.27 732.44 369.00 C 732.22 367.37 731.71 365.74 731.26 364.16 C 729.62 364.39 727.98 364.61 726.34 364.84 C 729.32 363.08 732.12 361.74 733.61 358.38 C 734.65 356.51 733.72 354.99 733.35 353.08 Z"/>
        <path id="p37" d="M 694.25 354.08 C 693.51 357.45 692.29 360.31 689.34 362.31 C 685.19 365.17 678.98 365.46 674.10 366.11 C 675.13 365.51 676.16 364.91 677.19 364.31 C 680.27 363.30 683.20 362.98 685.67 360.73 C 688.46 358.40 691.17 356.03 694.25 354.08 Z"/>
        <path id="p38" d="M 638.72 366.11 C 644.84 368.81 648.92 373.27 653.96 377.42 C 652.47 378.40 651.03 379.46 649.61 380.56 C 644.84 376.10 639.26 373.35 638.72 366.11 Z"/>
        <path id="p39" d="M 676.37 369.71 C 679.34 372.10 681.39 375.26 684.80 377.20 C 688.02 379.14 690.05 381.01 692.00 384.25 C 687.95 384.31 685.24 383.45 681.84 381.24 C 677.17 376.15 672.32 371.78 665.97 368.87 C 669.32 368.47 673.23 368.37 676.37 369.71 Z"/>
        <path id="p40" d="M 657.79 370.52 C 659.71 370.12 661.63 369.72 663.56 369.33 C 668.27 372.56 672.93 375.63 676.72 379.97 C 677.20 382.81 677.79 385.62 678.23 388.45 C 674.48 385.45 669.97 383.81 666.18 380.89 C 663.25 377.54 660.42 374.10 657.79 370.52 Z"/>
        <path id="p41" d="M 681.02 369.82 C 688.07 370.30 695.05 371.64 700.10 377.02 C 693.53 375.65 687.20 372.42 681.02 369.82 Z"/>
        <path id="p42" d="M 625.93 377.14 C 627.84 377.33 629.50 377.61 630.86 379.07 C 634.26 382.49 637.69 385.61 641.74 388.27 C 640.89 389.13 640.03 389.99 639.18 390.85 C 634.28 387.43 627.51 383.28 625.93 377.14 Z"/>
        <path id="p43" d="M 653.96 377.42 C 659.11 381.48 663.75 386.08 668.98 390.03 C 670.10 391.47 671.16 392.96 672.21 394.45 C 668.45 395.07 665.01 394.19 661.35 393.58 C 658.06 388.69 654.07 384.40 649.61 380.56 C 651.03 379.46 652.47 378.40 653.96 377.42 Z"/>
        <path id="p44" d="M 676.72 379.97 C 680.45 383.78 684.39 387.17 687.33 391.68 C 683.14 391.71 681.45 391.15 678.23 388.45 C 677.79 385.62 677.20 382.81 676.72 379.97 Z"/>
        <path id="p45" d="M 290.34 528.85 C 299.81 530.32 309.01 533.95 317.75 537.79 C 316.80 539.44 315.84 541.08 314.90 542.72 C 317.63 541.78 320.83 539.96 323.76 540.23 C 327.72 540.93 331.51 543.30 334.74 545.61 C 335.68 547.41 336.67 549.17 337.66 550.94 C 335.14 554.42 333.08 558.03 331.24 561.91 C 334.16 560.41 337.13 559.11 340.24 558.07 C 338.92 559.95 337.55 561.80 336.16 563.64 C 337.82 563.63 339.49 563.61 341.15 563.60 C 340.98 564.21 340.81 564.83 340.64 565.45 C 338.79 565.74 336.94 566.02 335.10 566.29 C 336.84 568.16 338.98 570.03 340.16 572.31 C 339.99 573.94 339.40 575.56 338.98 577.15 L 339.88 577.14 C 334.15 581.13 327.64 584.06 321.01 586.19 C 317.57 583.49 315.70 579.87 313.48 576.21 C 317.30 576.93 321.09 577.27 324.97 577.32 C 322.85 574.34 320.78 571.32 318.87 568.19 C 322.58 568.36 326.28 568.61 329.99 568.69 C 326.14 565.15 321.70 565.10 316.85 564.07 C 319.48 562.98 322.23 562.01 324.72 560.63 C 326.89 559.54 327.98 556.69 329.13 554.67 C 327.05 554.56 325.10 554.03 323.19 555.10 C 318.92 557.45 315.38 560.84 310.95 562.98 C 313.02 556.60 317.40 552.26 320.90 546.73 C 317.92 547.38 315.15 547.77 312.61 549.62 C 309.12 552.09 307.17 555.34 304.59 558.61 C 302.71 559.91 300.22 560.48 298.09 561.27 C 301.02 557.31 303.28 552.98 305.39 548.55 C 306.97 545.19 309.70 541.82 310.32 538.18 C 309.05 537.24 307.68 536.47 306.28 535.76 C 304.03 538.71 302.14 541.91 299.95 544.90 C 295.30 548.49 290.79 552.25 286.29 556.02 C 285.53 556.65 284.76 557.28 284.00 557.91 C 284.92 558.98 285.85 560.05 286.77 561.12 C 281.32 561.54 276.08 561.58 270.94 563.69 C 274.22 567.59 277.50 570.57 281.89 573.18 C 284.54 575.60 286.95 578.02 290.12 579.78 C 292.85 581.30 295.60 582.77 298.17 584.57 C 300.00 585.84 301.86 587.03 303.77 588.17 C 304.18 587.14 304.58 586.11 304.99 585.07 C 302.22 582.36 299.38 579.68 296.75 576.83 C 293.02 572.19 288.23 568.98 283.14 566.03 C 281.45 564.96 279.81 563.82 278.18 562.67 C 280.84 563.48 283.47 564.36 286.07 565.34 C 293.45 569.15 298.87 574.89 304.86 580.45 C 307.85 583.29 310.85 584.53 314.85 585.33 C 314.95 585.94 315.05 586.56 315.15 587.17 L 316.22 587.54 C 311.16 588.87 306.27 590.15 300.98 589.72 C 297.16 589.53 293.27 587.82 289.64 586.57 C 284.31 582.45 279.49 577.75 274.17 573.63 C 269.47 569.68 266.29 565.28 260.01 563.66 C 261.19 570.28 265.97 572.89 270.60 576.97 C 275.05 580.72 278.90 585.07 282.18 589.88 C 280.26 589.84 278.27 590.00 276.36 589.73 C 273.68 588.25 271.49 585.87 268.98 584.10 C 265.15 581.21 259.94 578.80 256.97 575.02 C 255.22 572.81 255.36 570.22 255.55 567.57 C 256.20 561.94 256.60 556.73 259.82 551.87 C 262.52 547.84 265.15 543.82 267.61 539.64 C 269.89 535.74 273.26 533.92 274.36 529.50 C 279.41 527.78 285.13 528.17 290.34 528.85 Z M 263.63 549.83 C 261.68 552.73 260.17 555.81 258.92 559.07 C 262.63 557.89 266.09 556.71 268.99 553.98 C 272.85 550.31 276.08 545.87 279.10 541.49 C 278.05 541.43 276.99 541.36 275.94 541.34 C 279.60 538.07 282.77 534.62 285.01 530.21 C 284.43 530.33 283.84 530.45 283.26 530.58 C 274.42 532.50 268.18 542.76 263.63 549.83 Z M 277.69 550.07 L 276.42 551.05 C 274.14 552.66 272.80 554.51 271.62 557.03 C 273.77 556.97 275.91 556.89 278.04 556.52 C 284.79 552.27 291.91 546.16 297.02 540.02 C 298.54 538.16 299.97 536.26 301.33 534.28 C 298.28 533.33 293.90 531.52 290.75 532.85 C 288.19 534.81 286.46 537.98 284.43 540.48 C 281.95 543.56 279.70 546.66 277.69 550.07 Z"/>
        <path id="p46" d="M 267.36 530.23 C 267.87 531.11 268.37 532.01 268.86 532.90 L 268.06 532.96 C 266.12 533.13 263.68 532.50 262.27 534.15 C 260.38 536.12 259.07 538.71 258.14 541.26 C 257.26 543.68 257.48 546.34 256.65 548.73 C 255.13 551.12 252.02 552.70 249.64 554.09 C 251.60 547.38 256.15 542.14 258.11 535.49 L 257.46 534.44 L 257.06 533.80 C 260.33 532.13 263.71 530.78 267.36 530.23 Z"/>
        <path id="p47" d="M 274.36 529.50 C 273.26 533.92 269.89 535.74 267.61 539.64 C 265.15 543.82 262.52 547.84 259.82 551.87 C 256.60 556.73 256.20 561.94 255.55 567.57 C 255.36 570.22 255.22 572.81 256.97 575.02 C 259.94 578.80 265.15 581.21 268.98 584.10 C 271.49 585.87 273.68 588.25 276.36 589.73 C 278.27 590.00 280.26 589.84 282.18 589.88 C 285.55 590.21 288.86 590.68 292.27 590.41 C 292.50 590.76 292.73 591.11 292.96 591.46 C 283.37 591.74 273.45 592.02 263.97 590.25 C 258.25 588.19 251.66 586.02 246.98 582.03 C 245.06 580.41 244.86 577.94 244.55 575.60 C 243.93 568.44 244.10 561.23 245.37 554.16 C 246.03 550.71 246.10 546.74 247.62 543.55 C 249.93 539.88 254.17 537.20 257.46 534.44 L 258.11 535.49 C 256.15 542.14 251.60 547.38 249.64 554.09 C 252.02 552.70 255.13 551.12 256.65 548.73 C 257.48 546.34 257.26 543.68 258.14 541.26 C 259.07 538.71 260.38 536.12 262.27 534.15 C 263.68 532.50 266.12 533.13 268.06 532.96 L 268.86 532.90 C 270.68 531.75 272.43 530.50 274.36 529.50 Z M 262.55 588.10 C 262.22 586.46 262.24 584.29 260.89 583.12 C 258.32 580.70 255.62 578.40 252.99 576.03 C 251.55 574.68 249.82 574.24 247.94 573.84 C 249.70 580.22 257.36 584.61 262.55 588.10 Z"/>
        <path id="p48" d="M 283.26 530.58 C 283.84 530.45 284.43 530.33 285.01 530.21 C 282.77 534.62 279.60 538.07 275.94 541.34 C 271.87 545.32 268.75 550.12 264.50 553.97 C 264.21 552.59 263.92 551.21 263.63 549.83 C 268.18 542.76 274.42 532.50 283.26 530.58 Z"/>
        <path id="p49" d="M 301.33 534.28 C 299.97 536.26 298.54 538.16 297.02 540.02 C 297.53 537.95 297.95 535.86 298.37 533.77 C 290.42 538.12 285.57 545.72 277.69 550.07 C 279.70 546.66 281.95 543.56 284.43 540.48 C 286.46 537.98 288.19 534.81 290.75 532.85 C 293.90 531.52 298.28 533.33 301.33 534.28 Z"/>
        <path id="p50" d="M 257.06 533.80 L 257.46 534.44 C 254.17 537.20 249.93 539.88 247.62 543.55 C 246.10 546.74 246.03 550.71 245.37 554.16 C 244.10 561.23 243.93 568.44 244.55 575.60 C 244.86 577.94 245.06 580.41 246.98 582.03 C 251.66 586.02 258.25 588.19 263.97 590.25 C 255.60 589.12 247.69 585.96 240.65 581.32 C 232.04 575.20 229.90 562.78 234.53 553.56 C 236.73 548.87 240.37 545.50 244.51 542.51 C 248.79 539.40 252.45 536.21 257.06 533.80 Z"/>
        <path id="p51" d="M 298.37 533.77 C 297.95 535.86 297.53 537.95 297.02 540.02 C 291.91 546.16 284.79 552.27 278.04 556.52 C 277.50 554.70 276.99 552.86 276.42 551.05 L 277.69 550.07 C 285.57 545.72 290.42 538.12 298.37 533.77 Z"/>
        <path id="p52" d="M 306.28 535.76 C 307.68 536.47 309.05 537.24 310.32 538.18 C 309.70 541.82 306.97 545.19 305.39 548.55 C 303.28 552.98 301.02 557.31 298.09 561.27 C 296.74 561.85 295.40 562.43 294.07 563.02 C 298.56 562.43 303.93 562.13 307.93 559.88 C 310.98 558.08 312.13 555.21 313.25 552.02 C 310.24 554.06 307.55 556.51 304.59 558.61 C 307.17 555.34 309.12 552.09 312.61 549.62 C 315.15 547.77 317.92 547.38 320.90 546.73 C 317.40 552.26 313.02 556.60 310.95 562.98 C 315.38 560.84 318.92 557.45 323.19 555.10 C 325.10 554.03 327.05 554.56 329.13 554.67 C 327.98 556.69 326.89 559.54 324.72 560.63 C 322.23 562.01 319.48 562.98 316.85 564.07 C 321.70 565.10 326.14 565.15 329.99 568.69 C 326.28 568.61 322.58 568.36 318.87 568.19 C 320.78 571.32 322.85 574.34 324.97 577.32 C 321.09 577.27 317.30 576.93 313.48 576.21 C 315.70 579.87 317.57 583.49 321.01 586.19 C 319.42 586.67 317.83 587.13 316.22 587.54 L 315.15 587.17 C 315.05 586.56 314.95 585.94 314.85 585.33 C 310.85 584.53 307.85 583.29 304.86 580.45 C 306.96 580.32 309.05 580.19 311.15 580.02 C 308.98 577.34 306.48 575.24 303.65 573.29 C 300.73 571.30 298.51 568.44 295.57 566.54 C 292.61 565.54 289.17 565.72 286.07 565.34 C 283.47 564.36 280.84 563.48 278.18 562.67 C 279.81 563.82 281.45 564.96 283.14 566.03 C 281.51 566.40 279.90 566.84 278.29 567.27 C 279.47 569.25 280.64 571.25 281.89 573.18 C 277.50 570.57 274.22 567.59 270.94 563.69 C 276.08 561.58 281.32 561.54 286.77 561.12 C 285.85 560.05 284.92 558.98 284.00 557.91 C 284.76 557.28 285.53 556.65 286.29 556.02 C 287.95 558.02 289.72 562.21 292.89 559.87 C 298.14 556.34 302.29 550.79 305.17 545.20 C 303.43 545.08 301.69 544.96 299.95 544.90 C 302.14 541.91 304.03 538.71 306.28 535.76 Z"/>
        <path id="p53" d="M 275.94 541.34 C 276.99 541.36 278.05 541.43 279.10 541.49 C 276.08 545.87 272.85 550.31 268.99 553.98 C 266.09 556.71 262.63 557.89 258.92 559.07 C 260.17 555.81 261.68 552.73 263.63 549.83 C 263.92 551.21 264.21 552.59 264.50 553.97 C 268.75 550.12 271.87 545.32 275.94 541.34 Z"/>
        <path id="p54" d="M 299.95 544.90 C 301.69 544.96 303.43 545.08 305.17 545.20 C 302.29 550.79 298.14 556.34 292.89 559.87 C 289.72 562.21 287.95 558.02 286.29 556.02 C 290.79 552.25 295.30 548.49 299.95 544.90 Z"/>
        <path id="p55" d="M 334.74 545.61 C 340.20 547.91 345.61 549.99 351.52 550.80 C 351.35 552.86 351.51 555.39 350.42 557.19 C 349.20 559.32 346.49 560.48 344.38 561.56 C 346.51 561.74 348.86 560.86 349.94 563.28 C 350.56 565.38 349.66 568.04 349.38 570.20 C 346.26 572.60 343.18 575.02 339.88 577.14 L 338.98 577.15 C 339.40 575.56 339.99 573.94 340.16 572.31 C 338.98 570.03 336.84 568.16 335.10 566.29 C 336.94 566.02 338.79 565.74 340.64 565.45 C 340.81 564.83 340.98 564.21 341.15 563.60 C 339.49 563.61 337.82 563.63 336.16 563.64 C 337.55 561.80 338.92 559.95 340.24 558.07 C 337.13 559.11 334.16 560.41 331.24 561.91 C 333.08 558.03 335.14 554.42 337.66 550.94 C 336.67 549.17 335.68 547.41 334.74 545.61 Z"/>
        <path id="p56" d="M 276.42 551.05 C 276.99 552.86 277.50 554.70 278.04 556.52 C 275.91 556.89 273.77 556.97 271.62 557.03 C 272.80 554.51 274.14 552.66 276.42 551.05 Z"/>
        <path id="p57" d="M 351.52 550.80 C 354.52 551.28 357.73 551.55 360.39 553.08 C 359.83 559.79 354.50 566.17 349.38 570.20 C 349.66 568.04 350.56 565.38 349.94 563.28 C 348.86 560.86 346.51 561.74 344.38 561.56 C 346.49 560.48 349.20 559.32 350.42 557.19 C 351.51 555.39 351.35 552.86 351.52 550.80 Z"/>
        <path id="p58" d="M 313.25 552.02 C 312.13 555.21 310.98 558.08 307.93 559.88 C 303.93 562.13 298.56 562.43 294.07 563.02 C 295.40 562.43 296.74 561.85 298.09 561.27 C 300.22 560.48 302.71 559.91 304.59 558.61 C 307.55 556.51 310.24 554.06 313.25 552.02 Z"/>
        <path id="p59" d="M 260.01 563.66 C 266.29 565.28 269.47 569.68 274.17 573.63 C 272.95 574.72 271.78 575.84 270.60 576.97 C 265.97 572.89 261.19 570.28 260.01 563.66 Z"/>
        <path id="p60" d="M 295.57 566.54 C 298.51 568.44 300.73 571.30 303.65 573.29 C 306.48 575.24 308.98 577.34 311.15 580.02 C 309.05 580.19 306.96 580.32 304.86 580.45 C 298.87 574.89 293.45 569.15 286.07 565.34 C 289.17 565.72 292.61 565.54 295.57 566.54 Z"/>
        <path id="p61" d="M 283.14 566.03 C 288.23 568.98 293.02 572.19 296.75 576.83 C 297.47 579.36 297.88 581.95 298.17 584.57 C 295.60 582.77 292.85 581.30 290.12 579.78 C 286.95 578.02 284.54 575.60 281.89 573.18 C 280.64 571.25 279.47 569.25 278.29 567.27 C 279.90 566.84 281.51 566.40 283.14 566.03 Z"/>
        <path id="p62" d="M 247.94 573.84 C 249.82 574.24 251.55 574.68 252.99 576.03 C 255.62 578.40 258.32 580.70 260.89 583.12 C 262.24 584.29 262.22 586.46 262.55 588.10 C 257.36 584.61 249.70 580.22 247.94 573.84 Z"/>
        <path id="p63" d="M 274.17 573.63 C 279.49 577.75 284.31 582.45 289.64 586.57 C 290.53 587.83 291.41 589.12 292.27 590.41 C 288.86 590.68 285.55 590.21 282.18 589.88 C 278.90 585.07 275.05 580.72 270.60 576.97 C 271.78 575.84 272.95 574.72 274.17 573.63 Z"/>
        <path id="p64" d="M 296.75 576.83 C 299.38 579.68 302.22 582.36 304.99 585.07 C 304.58 586.11 304.18 587.14 303.77 588.17 C 301.86 587.03 300.00 585.84 298.17 584.57 C 297.88 581.95 297.47 579.36 296.75 576.83 Z"/>
        <path id="p65" d="M 562.60 726.28 L 563.39 726.61 C 559.48 726.46 555.37 725.86 551.47 726.41 C 547.92 727.70 547.32 730.30 547.88 733.69 C 545.69 733.72 542.93 733.53 540.99 734.67 C 539.96 735.58 539.15 736.80 538.32 737.90 C 536.35 735.33 534.55 732.70 532.96 729.88 C 540.89 723.54 553.23 724.62 562.60 726.28 Z"/>
        <path id="p66" d="M 551.47 726.41 C 555.37 725.86 559.48 726.46 563.39 726.61 C 564.60 727.12 565.79 727.68 566.98 728.23 C 565.21 728.41 563.37 728.52 561.64 728.93 C 559.88 731.05 560.47 734.87 560.74 737.41 C 558.76 736.15 556.55 735.20 554.38 734.31 C 555.13 736.04 555.91 737.77 556.72 739.49 C 554.69 739.40 552.67 739.34 550.65 739.32 C 553.46 741.80 556.73 742.66 560.26 743.62 C 556.34 744.85 552.42 745.92 548.41 746.77 C 547.66 748.68 546.91 750.59 546.12 752.48 C 544.42 747.18 541.70 742.31 538.32 737.90 C 539.15 736.80 539.96 735.58 540.99 734.67 C 542.93 733.53 545.69 733.72 547.88 733.69 C 547.32 730.30 547.92 727.70 551.47 726.41 Z"/>
        <path id="p67" d="M 562.60 726.28 C 569.83 727.33 576.90 729.61 583.44 732.86 C 579.27 734.70 575.33 733.94 570.99 733.58 C 570.79 735.66 570.62 737.75 570.48 739.84 C 568.26 737.91 565.96 736.20 563.47 734.61 C 563.82 736.42 564.17 738.22 564.54 740.02 C 564.01 740.33 563.49 740.64 562.96 740.95 C 562.22 739.77 561.48 738.59 560.74 737.41 C 560.47 734.87 559.88 731.05 561.64 728.93 C 563.37 728.52 565.21 728.41 566.98 728.23 C 565.79 727.68 564.60 727.12 563.39 726.61 L 562.60 726.28 Z"/>
        <path id="p68" d="M 583.44 732.86 C 589.05 735.49 594.75 738.71 599.38 742.85 L 597.98 743.59 C 596.84 744.19 595.70 744.78 594.56 745.37 C 594.75 749.01 595.02 752.65 595.07 756.29 C 594.32 762.24 596.25 767.41 597.07 773.15 C 597.35 775.09 597.27 777.35 598.06 779.16 C 599.47 780.85 601.92 781.81 603.82 782.85 C 604.11 778.31 604.04 773.76 603.77 769.22 C 605.81 771.32 605.41 773.42 605.49 776.12 C 605.45 780.59 607.12 784.31 608.14 788.86 C 606.92 788.08 605.70 787.30 604.48 786.52 C 604.43 787.40 604.38 788.28 604.33 789.15 C 601.28 789.50 598.41 789.50 595.35 789.16 C 596.53 787.99 597.68 786.80 598.77 785.55 L 599.67 784.43 C 596.38 781.33 592.61 779.20 588.11 778.43 C 590.30 776.57 594.64 773.81 594.32 770.48 C 591.77 763.05 591.91 755.58 591.27 747.88 C 590.67 742.62 589.49 739.97 585.79 736.21 C 584.10 739.27 583.12 742.33 582.46 745.76 C 580.32 742.44 577.94 739.60 574.95 737.00 C 574.54 740.63 574.16 744.27 573.73 747.90 C 571.04 745.31 568.43 742.66 565.62 740.20 C 566.32 741.79 566.98 743.61 568.08 744.96 C 573.25 750.80 581.50 755.73 584.83 762.88 C 581.89 761.60 579.79 759.64 577.75 757.22 C 575.18 754.12 571.91 752.10 568.59 749.93 C 566.28 746.84 564.21 744.55 560.26 743.62 C 556.73 742.66 553.46 741.80 550.65 739.32 C 552.67 739.34 554.69 739.40 556.72 739.49 C 555.91 737.77 555.13 736.04 554.38 734.31 C 556.55 735.20 558.76 736.15 560.74 737.41 C 561.48 738.59 562.22 739.77 562.96 740.95 C 563.49 740.64 564.01 740.33 564.54 740.02 C 564.17 738.22 563.82 736.42 563.47 734.61 C 565.96 736.20 568.26 737.91 570.48 739.84 C 570.62 737.75 570.79 735.66 570.99 733.58 C 575.33 733.94 579.27 734.70 583.44 732.86 Z"/>
        <path id="p69" d="M 582.46 745.76 C 583.12 742.33 584.10 739.27 585.79 736.21 C 589.49 739.97 590.67 742.62 591.27 747.88 C 589.79 746.57 588.31 745.27 586.77 744.02 C 586.33 747.54 586.86 750.92 587.44 754.39 C 587.99 757.62 587.70 760.97 588.35 764.17 C 589.25 766.79 592.18 768.83 594.32 770.48 C 594.64 773.81 590.30 776.57 588.11 778.43 L 587.33 778.34 C 588.31 775.79 589.56 773.91 587.56 771.40 C 585.15 770.28 582.08 770.42 579.48 770.57 C 575.72 770.89 571.81 771.21 568.19 772.32 C 566.99 774.72 571.57 776.01 573.10 776.98 C 568.62 777.17 564.35 778.05 559.98 778.92 C 559.56 777.27 559.14 775.61 558.72 773.96 C 563.27 772.37 567.94 771.18 572.42 769.38 C 575.71 768.04 579.11 767.26 582.61 766.72 C 582.33 766.08 582.04 765.44 581.74 764.81 C 577.90 759.70 571.74 759.08 566.53 762.62 C 570.40 763.14 574.23 763.41 578.06 764.09 C 573.78 764.31 569.23 765.32 564.98 764.97 C 561.77 764.73 559.49 762.86 556.93 761.13 C 563.19 759.65 569.32 759.29 575.29 756.65 C 570.75 754.98 566.00 754.86 561.37 753.71 C 559.29 753.21 558.00 751.54 556.51 750.14 C 558.29 749.51 560.20 748.62 562.10 748.48 C 564.29 748.55 566.51 749.31 568.59 749.93 C 571.91 752.10 575.18 754.12 577.75 757.22 C 579.79 759.64 581.89 761.60 584.83 762.88 C 581.50 755.73 573.25 750.80 568.08 744.96 C 566.98 743.61 566.32 741.79 565.62 740.20 C 568.43 742.66 571.04 745.31 573.73 747.90 C 574.16 744.27 574.54 740.63 574.95 737.00 C 577.94 739.60 580.32 742.44 582.46 745.76 Z"/>
        <path id="p70" d="M 599.38 742.85 C 602.69 745.90 604.62 750.31 606.56 754.31 C 607.32 760.95 607.91 767.61 608.72 774.25 C 609.13 779.80 609.39 785.23 611.28 790.53 C 612.44 789.07 613.92 787.95 614.08 786.00 C 614.76 780.10 613.55 773.70 613.34 767.76 C 613.56 762.57 614.12 757.74 612.40 752.71 C 615.07 755.07 617.55 757.62 619.97 760.23 C 617.65 766.53 620.02 771.52 621.30 777.63 C 621.95 781.02 622.68 785.38 620.28 788.28 C 617.84 791.12 614.57 793.31 611.60 795.56 C 606.47 799.55 599.78 799.63 593.47 801.57 C 588.41 803.15 583.18 803.12 578.25 805.08 C 565.79 798.15 558.53 782.14 553.14 769.57 C 555.07 769.16 557.01 768.75 558.94 768.36 C 556.16 767.09 552.35 766.05 550.41 763.60 C 548.17 760.46 547.33 756.12 546.12 752.48 C 546.91 750.59 547.66 748.68 548.41 746.77 C 552.42 745.92 556.34 744.85 560.26 743.62 C 564.21 744.55 566.28 746.84 568.59 749.93 C 566.51 749.31 564.29 748.55 562.10 748.48 C 560.20 748.62 558.29 749.51 556.51 750.14 C 558.00 751.54 559.29 753.21 561.37 753.71 C 566.00 754.86 570.75 754.98 575.29 756.65 C 569.32 759.29 563.19 759.65 556.93 761.13 C 559.49 762.86 561.77 764.73 564.98 764.97 C 569.23 765.32 573.78 764.31 578.06 764.09 C 579.29 764.30 580.52 764.54 581.74 764.81 C 582.04 765.44 582.33 766.08 582.61 766.72 C 579.11 767.26 575.71 768.04 572.42 769.38 C 567.94 771.18 563.27 772.37 558.72 773.96 C 559.14 775.61 559.56 777.27 559.98 778.92 C 564.35 778.05 568.62 777.17 573.10 776.98 C 577.85 777.37 582.59 777.81 587.33 778.34 L 588.11 778.43 C 592.61 779.20 596.38 781.33 599.67 784.43 L 598.77 785.55 C 596.90 784.67 595.02 783.76 593.10 783.01 C 587.26 781.97 581.24 781.72 575.30 781.62 C 574.24 781.63 573.17 781.68 572.10 781.76 C 568.75 781.89 565.61 782.32 562.50 783.65 C 564.16 786.20 566.14 790.74 569.24 791.69 C 577.68 791.51 586.87 788.03 595.35 789.16 C 598.41 789.50 601.28 789.50 604.33 789.15 C 604.38 788.28 604.43 787.40 604.48 786.52 C 605.70 787.30 606.92 788.08 608.14 788.86 C 607.12 784.31 605.45 780.59 605.49 776.12 C 605.41 773.42 605.81 771.32 603.77 769.22 C 603.28 765.81 602.67 762.40 601.78 759.06 C 600.90 755.87 599.65 752.79 598.85 749.57 C 598.47 747.59 598.19 745.59 597.98 743.59 L 599.38 742.85 Z M 583.68 793.06 C 583.91 793.80 584.13 794.55 584.34 795.30 C 583.50 795.44 582.66 795.56 581.81 795.66 C 578.36 795.57 575.12 796.44 571.89 797.58 C 579.90 802.97 590.49 800.31 599.16 798.21 C 602.98 797.40 606.57 796.27 610.01 794.40 C 606.35 792.87 602.94 791.41 598.89 791.29 C 593.85 791.20 588.66 792.27 583.68 793.06 Z"/>
        <path id="p71" d="M 586.77 744.02 C 588.31 745.27 589.79 746.57 591.27 747.88 C 591.91 755.58 591.77 763.05 594.32 770.48 C 592.18 768.83 589.25 766.79 588.35 764.17 C 587.70 760.97 587.99 757.62 587.44 754.39 C 586.86 750.92 586.33 747.54 586.77 744.02 Z"/>
        <path id="p72" d="M 597.98 743.59 C 598.19 745.59 598.47 747.59 598.85 749.57 C 597.68 751.86 596.53 754.16 595.07 756.29 C 595.02 752.65 594.75 749.01 594.56 745.37 C 595.70 744.78 596.84 744.19 597.98 743.59 Z"/>
        <path id="p73" d="M 607.38 748.57 C 609.10 749.90 610.79 751.24 612.40 752.71 C 614.12 757.74 613.56 762.57 613.34 767.76 C 613.17 769.74 612.95 771.72 612.74 773.70 C 611.40 773.89 610.06 774.07 608.72 774.25 C 607.91 767.61 607.32 760.95 606.56 754.31 C 606.77 752.38 607.08 750.48 607.38 748.57 Z"/>
        <path id="p74" d="M 598.85 749.57 C 599.65 752.79 600.90 755.87 601.78 759.06 C 602.53 764.45 602.19 769.69 601.73 775.08 C 600.18 774.43 598.63 773.79 597.07 773.15 C 596.25 767.41 594.32 762.24 595.07 756.29 C 596.53 754.16 597.68 751.86 598.85 749.57 Z"/>
        <path id="p75" d="M 601.78 759.06 C 602.67 762.40 603.28 765.81 603.77 769.22 C 604.04 773.76 604.11 778.31 603.82 782.85 C 601.92 781.81 599.47 780.85 598.06 779.16 C 597.27 777.35 597.35 775.09 597.07 773.15 C 598.63 773.79 600.18 774.43 601.73 775.08 C 602.19 769.69 602.53 764.45 601.78 759.06 Z"/>
        <path id="p76" d="M 581.74 764.81 C 580.52 764.54 579.29 764.30 578.06 764.09 C 574.23 763.41 570.40 763.14 566.53 762.62 C 571.74 759.08 577.90 759.70 581.74 764.81 Z"/>
        <path id="p77" d="M 619.97 760.23 C 621.41 761.77 622.89 763.29 624.26 764.89 C 625.29 767.41 626.26 769.73 625.55 772.49 C 624.43 777.30 624.74 782.14 625.43 786.99 C 625.69 789.05 626.76 790.58 627.79 792.32 C 630.10 785.01 628.37 778.48 627.06 771.24 C 627.82 771.37 628.57 771.51 629.32 771.64 C 630.78 776.35 633.25 781.23 633.72 786.14 C 633.94 788.52 632.53 790.37 631.22 792.20 C 627.43 797.05 623.34 801.61 618.35 805.28 C 614.89 807.77 611.71 810.97 607.91 812.91 C 603.58 814.44 598.00 813.06 593.48 812.96 C 599.56 808.39 606.64 807.78 613.28 804.50 C 608.13 802.43 603.22 803.30 597.93 804.08 C 599.54 804.88 601.15 805.66 602.77 806.43 C 599.03 807.32 595.40 808.63 591.67 809.56 C 589.38 810.22 586.76 809.06 584.54 808.45 C 584.88 807.80 585.24 807.15 585.60 806.50 C 583.10 806.16 580.67 805.84 578.25 805.08 C 583.18 803.12 588.41 803.15 593.47 801.57 C 599.78 799.63 606.47 799.55 611.60 795.56 C 614.57 793.31 617.84 791.12 620.28 788.28 C 622.68 785.38 621.95 781.02 621.30 777.63 C 620.02 771.52 617.65 766.53 619.97 760.23 Z"/>
        <path id="p78" d="M 624.26 764.89 C 626.12 767.01 627.78 769.28 629.32 771.64 C 628.57 771.51 627.82 771.37 627.06 771.24 C 628.37 778.48 630.10 785.01 627.79 792.32 C 626.76 790.58 625.69 789.05 625.43 786.99 C 624.74 782.14 624.43 777.30 625.55 772.49 C 626.26 769.73 625.29 767.41 624.26 764.89 Z"/>
        <path id="p79" d="M 613.34 767.76 C 613.55 773.70 614.76 780.10 614.08 786.00 C 613.92 787.95 612.44 789.07 611.28 790.53 C 609.39 785.23 609.13 779.80 608.72 774.25 C 610.06 774.07 611.40 773.89 612.74 773.70 C 612.95 771.72 613.17 769.74 613.34 767.76 Z"/>
        <path id="p80" d="M 579.48 770.57 C 582.08 770.42 585.15 770.28 587.56 771.40 C 589.56 773.91 588.31 775.79 587.33 778.34 C 582.59 777.81 577.85 777.37 573.10 776.98 C 571.57 776.01 566.99 774.72 568.19 772.32 C 571.81 771.21 575.72 770.89 579.48 770.57 Z"/>
        <path id="p81" d="M 629.32 771.64 C 633.34 777.53 636.28 784.08 637.81 791.05 C 639.76 801.48 632.90 811.49 623.23 815.09 C 616.77 817.52 610.62 816.29 603.99 815.60 C 599.80 815.21 595.68 814.55 591.71 813.09 L 593.48 812.96 C 598.00 813.06 603.58 814.44 607.91 812.91 C 611.71 810.97 614.89 807.77 618.35 805.28 C 623.34 801.61 627.43 797.05 631.22 792.20 C 632.53 790.37 633.94 788.52 633.72 786.14 C 633.25 781.23 630.78 776.35 629.32 771.64 Z"/>
        <path id="p82" d="M 575.30 781.62 C 581.24 781.72 587.26 781.97 593.10 783.01 C 593.36 784.31 593.62 785.61 593.88 786.92 C 587.56 787.42 581.30 787.09 574.97 786.97 C 571.58 786.92 568.26 786.42 564.96 785.64 C 567.32 784.28 569.64 782.94 572.10 781.76 C 573.17 781.68 574.24 781.63 575.30 781.62 Z"/>
        <path id="p83" d="M 572.10 781.76 C 569.64 782.94 567.32 784.28 564.96 785.64 C 568.26 786.42 571.58 786.92 574.97 786.97 C 581.30 787.09 587.56 787.42 593.88 786.92 C 593.62 785.61 593.36 784.31 593.10 783.01 C 595.02 783.76 596.90 784.67 598.77 785.55 C 597.68 786.80 596.53 787.99 595.35 789.16 C 586.87 788.03 577.68 791.51 569.24 791.69 C 566.14 790.74 564.16 786.20 562.50 783.65 C 565.61 782.32 568.75 781.89 572.10 781.76 Z"/>
        <path id="p84" d="M 598.89 791.29 C 602.94 791.41 606.35 792.87 610.01 794.40 C 606.57 796.27 602.98 797.40 599.16 798.21 C 600.51 796.95 601.78 795.63 603.06 794.30 C 595.90 794.00 588.88 796.26 581.81 795.66 C 582.66 795.56 583.50 795.44 584.34 795.30 C 584.13 794.55 583.91 793.80 583.68 793.06 C 588.66 792.27 593.85 791.20 598.89 791.29 Z"/>
        <path id="p85" d="M 603.06 794.30 C 601.78 795.63 600.51 796.95 599.16 798.21 C 590.49 800.31 579.90 802.97 571.89 797.58 C 575.12 796.44 578.36 795.57 581.81 795.66 C 588.88 796.26 595.90 794.00 603.06 794.30 Z"/>
        <path id="p86" d="M 613.28 804.50 C 606.64 807.78 599.56 808.39 593.48 812.96 L 591.71 813.09 C 589.01 812.21 586.47 810.96 584.07 809.45 L 584.54 808.45 C 586.76 809.06 589.38 810.22 591.67 809.56 C 595.40 808.63 599.03 807.32 602.77 806.43 C 601.15 805.66 599.54 804.88 597.93 804.08 C 603.22 803.30 608.13 802.43 613.28 804.50 Z"/>
    </defs>
    <g stroke-width="10pt">
        <use stroke="#419b41" xlink:href="#p1"/>
        <use stroke="#028002" xlink:href="#p2"/>
        <use stroke="#2c9c29" xlink:href="#p3"/>
        <use stroke="#057b05" xlink:href="#p4"/>
        <use stroke="#017d03" xlink:href="#p5"/>
        <use stroke="#128812" xlink:href="#p6"/>
        <use stroke="#037e03" xlink:href="#p7"/>
        <use stroke="#004b00" xlink:href="#p8"/>
        <use stroke="#004900" xlink:href="#p9"/>
        <use stroke="#004700" xlink:href="#p10"/>
        <use stroke="#004a00" xlink:href="#p11"/>
        <use stroke="#004900" xlink:href="#p12"/>
        <use stroke="#23951f" xlink:href="#p13"/>
        <use stroke="#017f02" xlink:href="#p14"/>
        <use stroke="#058007" xlink:href="#p15"/>
        <use stroke="#419b41" xlink:href="#p16"/>
        <use stroke="#067b04" xlink:href="#p17"/>
        <use stroke="#004900" xlink:href="#p18"/>
        <use stroke="#32a432" xlink:href="#p19"/>
        <use stroke="#067b05" xlink:href="#p20"/>
        <use stroke="#004900" xlink:href="#p21"/>
        <use stroke="#2d9f2b" xlink:href="#p22"/>
        <use stroke="#027c01" xlink:href="#p23"/>
        <use stroke="#32a432" xlink:href="#p24"/>
        <use stroke="#2c9c29" xlink:href="#p25"/>
        <use stroke="#027f02" xlink:href="#p26"/>
        <use stroke="#22941e" xlink:href="#p27"/>
        <use stroke="#004b00" xlink:href="#p28"/>
        <use stroke="#027e02" xlink:href="#p29"/>
        <use stroke="#419b40" xlink:href="#p30"/>
        <use stroke="#004a00" xlink:href="#p31"/>
        <use stroke="#067f05" xlink:href="#p32"/>
        <use stroke="#057d06" xlink:href="#p33"/>
        <use stroke="#004700" xlink:href="#p34"/>
        <use stroke="#018002" xlink:href="#p35"/>
        <use stroke="#3e9b3f" xlink:href="#p36"/>
        <use stroke="#015c01" xlink:href="#p37"/>
        <use stroke="#017d00" xlink:href="#p38"/>
        <use stroke="#004900" xlink:href="#p39"/>
        <use stroke="#004a00" xlink:href="#p40"/>
        <use stroke="#015e01" xlink:href="#p41"/>
        <use stroke="#31a331" xlink:href="#p42"/>
        <use stroke="#004900" xlink:href="#p43"/>
        <use stroke="#037c05" xlink:href="#p44"/>
        <use stroke="#2b9c28" xlink:href="#p45"/>
        <use stroke="#21921e" xlink:href="#p46"/>
        <use stroke="#027f02" xlink:href="#p47"/>
        <use stroke="#004b00" xlink:href="#p48"/>
        <use stroke="#018001" xlink:href="#p49"/>
        <use stroke="#419b41" xlink:href="#p50"/>
        <use stroke="#004900" xlink:href="#p51"/>
        <use stroke="#057c06" xlink:href="#p52"/>
        <use stroke="#057b06" xlink:href="#p53"/>
        <use stroke="#004801" xlink:href="#p54"/>
        <use stroke="#018002" xlink:href="#p55"/>
        <use stroke="#067d04" xlink:href="#p56"/>
        <use stroke="#3f9a3e" xlink:href="#p57"/>
        <use stroke="#005a01" xlink:href="#p58"/>
        <use stroke="#027c02" xlink:href="#p59"/>
        <use stroke="#004900" xlink:href="#p60"/>
        <use stroke="#004a00" xlink:href="#p61"/>
        <use stroke="#30a62f" xlink:href="#p62"/>
        <use stroke="#004a00" xlink:href="#p63"/>
        <use stroke="#037d01" xlink:href="#p64"/>
        <use stroke="#3f9a3f" xlink:href="#p65"/>
        <use stroke="#018002" xlink:href="#p66"/>
        <use stroke="#31a432" xlink:href="#p67"/>
        <use stroke="#259420" xlink:href="#p68"/>
        <use stroke="#047b04" xlink:href="#p69"/>
        <use stroke="#2d9e2b" xlink:href="#p70"/>
        <use stroke="#004a00" xlink:href="#p71"/>
        <use stroke="#007c03" xlink:href="#p72"/>
        <use stroke="#004a00" xlink:href="#p73"/>
        <use stroke="#004b00" xlink:href="#p74"/>
        <use stroke="#057d07" xlink:href="#p75"/>
        <use stroke="#005800" xlink:href="#p76"/>
        <use stroke="#017f02" xlink:href="#p77"/>
        <use stroke="#2fa430" xlink:href="#p78"/>
        <use stroke="#037b01" xlink:href="#p79"/>
        <use stroke="#004800" xlink:href="#p80"/>
        <use stroke="#419b41" xlink:href="#p81"/>
        <use stroke="#004a00" xlink:href="#p82"/>
        <use stroke="#037e03" xlink:href="#p83"/>
        <use stroke="#057c05" xlink:href="#p84"/>
        <use stroke="#004c00" xlink:href="#p85"/>
        <use stroke="#1e901d" xlink:href="#p86"/>
    </g>
    <g>
        <use fill="#419b41" xlink:href="#p1"/>
        <use fill="#028002" xlink:href="#p2"/>
        <use fill="#2c9c29" xlink:href="#p3"/>
        <use fill="#057b05" xlink:href="#p4"/>
        <use fill="#017d03" xlink:href="#p5"/>
        <use fill="#128812" xlink:href="#p6"/>
        <use fill="#037e03" xlink:href="#p7"/>
        <use fill="#004b00" xlink:href="#p8"/>
        <use fill="#004900" xlink:href="#p9"/>
        <use fill="#004700" xlink:href="#p10"/>
        <use fill="#004a00" xlink:href="#p11"/>
        <use fill="#004900" xlink:href="#p12"/>
        <use fill="#23951f" xlink:href="#p13"/>
        <use fill="#017f02" xlink:href="#p14"/>
        <use fill="#058007" xlink:href="#p15"/>
        <use fill="#419b41" xlink:href="#p16"/>
        <use fill="#067b04" xlink:href="#p17"/>
        <use fill="#004900" xlink:href="#p18"/>
        <use fill="#32a432" xlink:href="#p19"/>
        <use fill="#067b05" xlink:href="#p20"/>
        <use fill="#004900" xlink:href="#p21"/>
        <use fill="#2d9f2b" xlink:href="#p22"/>
        <use fill="#027c01" xlink:href="#p23"/>
        <use fill="#32a432" xlink:href="#p24"/>
        <use fill="#2c9c29" xlink:href="#p25"/>
        <use fill="#027f02" xlink:href="#p26"/>
        <use fill="#22941e" xlink:href="#p27"/>
        <use fill="#004b00" xlink:href="#p28"/>
        <use fill="#027e02" xlink:href="#p29"/>
        <use fill="#419b40" xlink:href="#p30"/>
        <use fill="#004a00" xlink:href="#p31"/>
        <use fill="#067f05" xlink:href="#p32"/>
        <use fill="#057d06" xlink:href="#p33"/>
        <use fill="#004700" xlink:href="#p34"/>
        <use fill="#018002" xlink:href="#p35"/>
        <use fill="#3e9b3f" xlink:href="#p36"/>
        <use fill="#015c01" xlink:href="#p37"/>
        <use fill="#017d00" xlink:href="#p38"/>
        <use fill="#004900" xlink:href="#p39"/>
        <use fill="#004a00" xlink:href="#p40"/>
        <use fill="#015e01" xlink:href="#p41"/>
        <use fill="#31a331" xlink:href="#p42"/>
        <use fill="#004900" xlink:href="#p43"/>
        <use fill="#037c05" xlink:href="#p44"/>
        <use fill="#2b9c28" xlink:href="#p45"/>
        <use fill="#21921e" xlink:href="#p46"/>
        <use fill="#027f02" xlink:href="#p47"/>
        <use fill="#004b00" xlink:href="#p48"/>
        <use fill="#018001" xlink:href="#p49"/>
        <use fill="#419b41" xlink:href="#p50"/>
        <use fill="#004900" xlink:href="#p51"/>
        <use fill="#057c06" xlink:href="#p52"/>
        <use fill="#057b06" xlink:href="#p53"/>
        <use fill="#004801" xlink:href="#p54"/>
        <use fill="#018002" xlink:href="#p55"/>
        <use fill="#067d04" xlink:href="#p56"/>
        <use fill="#3f9a3e" xlink:href="#p57"/>
        <use fill="#005a01" xlink:href="#p58"/>
        <use fill="#027c02" xlink:href="#p59"/>
        <use fill="#004900" xlink:href="#p60"/>
        <use fill="#004a00" xlink:href="#p61"/>
        <use fill="#30a62f" xlink:href="#p62"/>
        <use fill="#004a00" xlink:href="#p63"/>
        <use fill="#037d01" xlink:href="#p64"/>
        <use fill="#3f9a3f" xlink:href="#p65"/>
        <use fill="#018002" xlink:href="#p66"/>
        <use fill="#31a432" xlink:href="#p67"/>
        <use fill="#259420" xlink:href="#p68"/>
        <use fill="#047b04" xlink:href="#p69"/>
        <use fill="#2d9e2b" xlink:href="#p70"/>
        <use fill="#004a00" xlink:href="#p71"/>
        <use fill="#007c03" xlink:href="#p72"/>
        <use fill="#004a00" xlink:href="#p73"/>
        <use fill="#004b00" xlink:href="#p74"/>
        <use fill="#057d07" xlink:href="#p75"/>
        <use fill="#005800" xlink:href="#p76"/>
        <use fill="#017f02" xlink:href="#p77"/>
        <use fill="#2fa430" xlink:href="#p78"/>
        <use fill="#037b01" xlink:href="#p79"/>
        <use fill="#004800" xlink:href="#p80"/>
        <use fill="#419b41" xlink:href="#p81"/>
        <use fill="#004a00" xlink:href="#p82"/>
        <use fill="#037e03" xlink:href="#p83"/>
        <use fill="#057c05" xlink:href="#p84"/>
        <use fill="#004c00" xlink:href="#p85"/>
        <use fill="#1e901d" xlink:href="#p86"/>
    </g>
</svg>
