<?xml version="1.0" encoding="UTF-8" standalone="no"?>
<!DOCTYPE svg PUBLIC "-//W3C//DTD SVG 1.1//EN" "http://www.w3.org/Graphics/SVG/1.1/DTD/svg11.dtd">
<svg xmlns="http://www.w3.org/2000/svg" xmlns:xlink="http://www.w3.org/1999/xlink" width="1096.0pt" height="956.0pt" version="1.1" viewBox="0 0 1096 956">
    <defs>
        <path id="p0" d="M 0.00 0.00 L 1096.00 0.00 L 1096.00 956.00 L 0.00 956.00 L 0.00 0.00 Z M 920.34 131.15 C 928.02 105.15 920.66 75.67 901.39 56.58 C 900.79 56.20 900.21 56.21 899.65 56.62 C 893.27 62.66 887.81 69.20 881.32 75.31 C 852.15 104.41 822.96 133.63 793.74 162.77 C 792.10 164.56 794.02 165.59 795.23 166.75 C 809.09 179.27 828.15 187.12 847.00 186.30 C 865.49 187.10 884.33 179.14 898.05 167.06 C 908.50 157.41 916.66 144.91 920.34 131.15 Z M 555.20 84.68 C 550.19 82.74 543.42 81.38 538.00 80.91 C 529.31 80.97 521.41 80.24 513.01 82.87 C 500.80 85.59 490.01 91.39 480.47 99.49 C 468.17 110.04 459.42 125.26 455.91 141.00 C 454.59 144.85 455.37 149.20 454.09 153.00 C 454.03 155.66 454.00 158.35 454.08 161.01 C 455.30 164.84 454.49 169.09 455.88 173.00 C 459.15 189.18 468.24 204.53 480.78 215.23 C 495.54 228.04 515.35 235.13 535.00 234.02 C 564.67 233.14 592.08 213.40 602.58 185.76 C 606.73 176.21 607.97 165.31 607.96 155.00 C 607.07 150.68 607.51 146.27 606.19 141.99 C 603.64 129.44 598.20 118.67 590.34 108.69 C 587.40 106.06 585.94 102.67 582.38 100.63 C 574.88 93.39 565.06 87.82 555.20 84.68 Z M 298.31 274.14 C 299.25 271.91 299.94 268.49 300.28 266.02 C 301.95 260.06 301.29 253.22 301.42 247.00 C 300.11 221.78 285.13 198.08 263.15 185.73 C 252.96 179.84 240.87 175.89 229.00 175.87 C 225.25 175.08 221.76 176.13 218.00 175.93 C 203.51 177.26 189.92 182.58 178.43 191.44 C 161.02 204.66 150.20 225.12 148.64 246.89 C 148.22 249.59 148.18 254.42 148.64 257.11 C 150.17 282.38 165.09 306.33 187.33 318.62 C 196.45 323.89 207.41 327.38 218.00 328.22 C 224.52 328.10 231.31 328.72 237.73 327.55 C 251.40 325.19 263.93 319.45 274.52 310.51 C 285.71 301.15 294.27 288.14 298.31 274.14 Z M 648.42 307.53 C 651.34 306.15 653.83 302.50 656.36 300.35 C 689.52 267.19 722.69 234.10 755.88 200.91 C 757.66 199.32 755.87 198.41 754.73 197.25 C 740.93 184.48 722.73 177.66 704.00 177.13 C 688.42 177.20 673.03 181.53 660.22 190.33 C 641.71 202.54 629.26 222.97 626.95 245.00 C 625.79 249.37 626.69 254.47 626.42 259.00 C 627.89 277.21 635.38 294.56 648.42 307.53 Z M 832.33 336.68 C 833.76 337.20 835.49 336.93 837.00 336.99 C 885.33 336.98 933.67 337.00 982.00 336.99 C 982.98 337.05 983.92 336.96 984.83 336.72 C 985.92 332.49 984.28 326.39 983.84 321.99 C 981.12 309.02 975.42 297.14 966.84 287.07 C 954.93 272.96 937.29 263.42 919.00 261.00 C 913.60 259.84 907.56 260.59 901.99 260.41 C 889.15 261.85 876.81 265.96 866.08 273.20 C 850.48 283.75 838.87 299.74 834.40 318.12 C 832.77 321.42 833.37 325.48 832.31 329.01 C 832.13 331.50 831.91 334.21 832.33 336.68 Z M 488.38 322.63 C 483.98 308.09 474.27 294.97 462.25 285.73 C 438.47 267.09 404.11 264.71 377.97 279.86 C 359.65 290.16 346.31 307.70 341.39 328.12 C 339.77 331.41 340.37 335.51 339.35 339.02 C 337.93 355.44 341.55 371.96 350.14 385.98 C 361.62 404.84 381.20 418.37 403.01 421.91 C 408.97 423.18 414.94 422.80 421.00 422.80 C 436.11 421.76 450.89 416.13 462.78 406.76 C 473.87 398.35 482.40 386.19 487.43 373.36 C 493.41 357.43 494.00 338.76 488.38 322.63 Z M 188.86 384.27 C 182.93 381.21 175.99 378.77 169.36 377.55 C 166.02 376.36 162.29 377.07 159.01 376.05 C 143.56 375.13 128.78 378.80 115.49 386.52 C 93.63 399.26 79.06 422.69 77.91 448.00 C 77.94 453.37 77.70 458.67 78.39 464.01 C 80.44 476.12 85.35 488.32 92.79 498.13 C 102.63 511.35 117.12 521.57 133.00 526.01 C 150.55 531.17 170.40 529.67 186.86 521.64 C 210.36 510.96 227.24 487.59 230.21 462.00 C 230.29 457.16 231.74 452.50 230.50 447.56 C 229.38 420.88 212.52 396.21 188.86 384.27 Z M 688.43 480.43 C 687.50 484.91 689.26 490.29 689.45 494.98 C 692.68 509.56 699.36 523.32 710.18 533.81 C 721.66 546.21 738.26 554.18 754.90 556.34 C 770.20 558.26 785.31 555.84 798.98 548.91 C 822.62 537.38 839.12 513.23 841.10 487.00 C 841.23 485.05 841.98 481.98 840.83 480.30 C 839.91 480.10 838.97 480.02 838.00 480.09 C 789.00 480.09 740.00 480.08 691.00 480.09 C 690.09 480.05 689.24 480.16 688.43 480.43 Z M 527.36 636.34 C 529.72 629.89 531.33 622.96 531.32 615.99 C 531.68 613.43 532.27 611.14 531.53 608.54 C 531.04 582.24 515.52 557.11 492.52 544.50 C 477.90 536.25 460.45 532.96 443.82 535.57 C 421.16 538.85 400.87 552.40 389.32 572.20 C 384.44 579.87 381.30 589.01 379.73 597.98 C 378.26 603.96 378.91 610.75 378.78 617.00 C 380.48 641.67 394.75 664.52 416.01 677.03 C 423.98 681.46 431.85 684.88 440.98 686.31 C 448.22 688.40 455.31 687.34 462.98 687.57 C 469.62 686.18 475.48 685.57 481.96 682.82 C 502.91 675.19 520.43 657.48 527.36 636.34 Z M 223.57 611.50 C 208.25 612.72 192.87 619.25 181.25 629.24 C 175.55 634.43 169.77 640.25 165.88 646.98 C 155.34 663.48 151.39 684.87 155.94 703.99 C 160.49 725.95 175.60 745.27 195.50 755.55 C 212.62 764.55 233.40 766.56 252.01 761.10 C 267.24 756.78 280.49 747.74 290.46 735.45 C 300.92 722.46 307.63 704.85 307.04 688.00 C 308.05 660.47 291.60 633.30 267.41 620.53 C 259.66 616.14 251.74 613.64 243.00 612.06 C 236.06 611.53 230.65 610.28 223.57 611.50 Z M 799.74 651.13 C 787.90 628.85 763.85 612.81 738.46 611.48 C 732.60 610.18 726.78 611.64 721.00 611.95 C 697.55 615.58 676.39 630.15 665.26 651.10 C 656.37 666.98 653.83 686.27 657.71 704.03 C 662.80 727.97 680.31 748.92 702.97 758.16 C 715.58 763.62 729.44 765.23 743.00 763.35 C 758.67 761.32 773.07 754.32 784.68 743.68 C 801.77 727.71 811.01 704.36 808.79 681.00 C 808.17 670.76 804.77 660.03 799.74 651.13 Z M 514.30 745.65 C 493.68 738.41 468.85 741.65 450.42 753.43 C 430.37 765.86 416.65 787.43 414.60 811.00 C 414.50 813.08 414.85 814.99 414.09 816.99 C 413.89 833.13 418.95 849.54 428.37 862.64 C 438.21 876.20 452.31 886.74 468.43 891.50 C 477.56 894.35 487.45 895.45 496.99 894.74 C 500.69 893.64 505.26 894.40 508.88 892.63 C 534.46 886.78 555.78 866.82 563.64 841.89 C 566.11 834.48 567.46 826.84 567.11 819.00 C 568.45 786.42 545.34 754.98 514.30 745.65 Z"/>
        <path id="p1" d="M 901.39 56.58 C 920.66 75.67 928.02 105.15 920.34 131.15 C 916.66 144.91 908.50 157.41 898.05 167.06 C 884.33 179.14 865.49 187.10 847.00 186.30 C 828.15 187.12 809.09 179.27 795.23 166.75 C 794.02 165.59 792.10 164.56 793.74 162.77 C 822.96 133.63 852.15 104.41 881.32 75.31 C 887.81 69.20 893.27 62.66 899.65 56.62 C 900.21 56.21 900.79 56.20 901.39 56.58 Z"/>
        <path id="p2" d="M 538.00 80.91 C 543.42 81.38 550.19 82.74 555.20 84.68 C 565.06 87.82 574.88 93.39 582.38 100.63 C 585.94 102.67 587.40 106.06 590.34 108.69 C 598.20 118.67 603.64 129.44 606.19 141.99 C 607.51 146.27 607.07 150.68 607.96 155.00 C 607.97 165.31 606.73 176.21 602.58 185.76 C 592.08 213.40 564.67 233.14 535.00 234.02 C 515.35 235.13 495.54 228.04 480.78 215.23 C 468.24 204.53 459.15 189.18 455.88 173.00 C 454.49 169.09 455.30 164.84 454.08 161.01 C 454.00 158.35 454.03 155.66 454.09 153.00 C 455.37 149.20 454.59 144.85 455.91 141.00 C 459.42 125.26 468.17 110.04 480.47 99.49 C 490.01 91.39 500.80 85.59 513.01 82.87 C 521.41 80.24 529.31 80.97 538.00 80.91 Z"/>
        <path id="p3" d="M 218.00 175.93 C 221.76 176.13 225.25 175.08 229.00 175.87 C 240.87 175.89 252.96 179.84 263.15 185.73 C 285.13 198.08 300.11 221.78 301.42 247.00 C 301.29 253.22 301.95 260.06 300.28 266.02 C 299.94 268.49 299.25 271.91 298.31 274.14 C 294.27 288.14 285.71 301.15 274.52 310.51 C 263.93 319.45 251.40 325.19 237.73 327.55 C 231.31 328.72 224.52 328.10 218.00 328.22 C 207.41 327.38 196.45 323.89 187.33 318.62 C 165.09 306.33 150.17 282.38 148.64 257.11 C 148.18 254.42 148.22 249.59 148.64 246.89 C 150.20 225.12 161.02 204.66 178.43 191.44 C 189.92 182.58 203.51 177.26 218.00 175.93 Z"/>
        <path id="p4" d="M 704.00 177.13 C 722.73 177.66 740.93 184.48 754.73 197.25 C 755.87 198.41 757.66 199.32 755.88 200.91 C 722.69 234.10 689.52 267.19 656.36 300.35 C 653.83 302.50 651.34 306.15 648.42 307.53 C 635.38 294.56 627.89 277.21 626.42 259.00 C 626.69 254.47 625.79 249.37 626.95 245.00 C 629.26 222.97 641.71 202.54 660.22 190.33 C 673.03 181.53 688.42 177.20 704.00 177.13 Z"/>
        <path id="p5" d="M 901.99 260.41 C 907.56 260.59 913.60 259.84 919.00 261.00 C 937.29 263.42 954.93 272.96 966.84 287.07 C 975.42 297.14 981.12 309.02 983.84 321.99 C 984.28 326.39 985.92 332.49 984.83 336.72 C 983.92 336.96 982.98 337.05 982.00 336.99 C 933.67 337.00 885.33 336.98 837.00 336.99 C 835.49 336.93 833.76 337.20 832.33 336.68 C 831.91 334.21 832.13 331.50 832.31 329.01 C 833.37 325.48 832.77 321.42 834.40 318.12 C 838.87 299.74 850.48 283.75 866.08 273.20 C 876.81 265.96 889.15 261.85 901.99 260.41 Z"/>
        <path id="p6" d="M 462.25 285.73 C 474.27 294.97 483.98 308.09 488.38 322.63 C 494.00 338.76 493.41 357.43 487.43 373.36 C 482.40 386.19 473.87 398.35 462.78 406.76 C 450.89 416.13 436.11 421.76 421.00 422.80 C 414.94 422.80 408.97 423.18 403.01 421.91 C 381.20 418.37 361.62 404.84 350.14 385.98 C 341.55 371.96 337.93 355.44 339.35 339.02 C 340.37 335.51 339.77 331.41 341.39 328.12 C 346.31 307.70 359.65 290.16 377.97 279.86 C 404.11 264.71 438.47 267.09 462.25 285.73 Z"/>
        <path id="p7" d="M 159.01 376.05 C 162.29 377.07 166.02 376.36 169.36 377.55 C 175.99 378.77 182.93 381.21 188.86 384.27 C 212.52 396.21 229.38 420.88 230.50 447.56 C 231.74 452.50 230.29 457.16 230.21 462.00 C 227.24 487.59 210.36 510.96 186.86 521.64 C 170.40 529.67 150.55 531.17 133.00 526.01 C 117.12 521.57 102.63 511.35 92.79 498.13 C 85.35 488.32 80.44 476.12 78.39 464.01 C 77.70 458.67 77.94 453.37 77.91 448.00 C 79.06 422.69 93.63 399.26 115.49 386.52 C 128.78 378.80 143.56 375.13 159.01 376.05 Z"/>
        <path id="p8" d="M 688.43 480.43 C 689.24 480.16 690.09 480.05 691.00 480.09 C 740.00 480.08 789.00 480.09 838.00 480.09 C 838.97 480.02 839.91 480.10 840.83 480.30 C 841.98 481.98 841.23 485.05 841.10 487.00 C 839.12 513.23 822.62 537.38 798.98 548.91 C 785.31 555.84 770.20 558.26 754.90 556.34 C 738.26 554.18 721.66 546.21 710.18 533.81 C 699.36 523.32 692.68 509.56 689.45 494.98 C 689.26 490.29 687.50 484.91 688.43 480.43 Z"/>
        <path id="p9" d="M 492.52 544.50 C 515.52 557.11 531.04 582.24 531.53 608.54 C 532.27 611.14 531.68 613.43 531.32 615.99 C 531.33 622.96 529.72 629.89 527.36 636.34 C 520.43 657.48 502.91 675.19 481.96 682.82 C 475.48 685.57 469.62 686.18 462.98 687.57 C 455.31 687.34 448.22 688.40 440.98 686.31 C 431.85 684.88 423.98 681.46 416.01 677.03 C 394.75 664.52 380.48 641.67 378.78 617.00 C 378.91 610.75 378.26 603.96 379.73 597.98 C 381.30 589.01 384.44 579.87 389.32 572.20 C 400.87 552.40 421.16 538.85 443.82 535.57 C 460.45 532.96 477.90 536.25 492.52 544.50 Z"/>
        <path id="p10" d="M 243.00 612.06 C 251.74 613.64 259.66 616.14 267.41 620.53 C 291.60 633.30 308.05 660.47 307.04 688.00 C 307.63 704.85 300.92 722.46 290.46 735.45 C 280.49 747.74 267.24 756.78 252.01 761.10 C 233.40 766.56 212.62 764.55 195.50 755.55 C 175.60 745.27 160.49 725.95 155.94 703.99 C 151.39 684.87 155.34 663.48 165.88 646.98 C 169.77 640.25 175.55 634.43 181.25 629.24 C 192.87 619.25 208.25 612.72 223.57 611.50 C 230.65 610.28 236.06 611.53 243.00 612.06 Z"/>
        <path id="p11" d="M 738.46 611.48 C 763.85 612.81 787.90 628.85 799.74 651.13 C 804.77 660.03 808.17 670.76 808.79 681.00 C 811.01 704.36 801.77 727.71 784.68 743.68 C 773.07 754.32 758.67 761.32 743.00 763.35 C 729.44 765.23 715.58 763.62 702.97 758.16 C 680.31 748.92 662.80 727.97 657.71 704.03 C 653.83 686.27 656.37 666.98 665.26 651.10 C 676.39 630.15 697.55 615.58 721.00 611.95 C 726.78 611.64 732.60 610.18 738.46 611.48 Z"/>
        <path id="p12" d="M 514.30 745.65 C 545.34 754.98 568.45 786.42 567.11 819.00 C 567.46 826.84 566.11 834.48 563.64 841.89 C 555.78 866.82 534.46 886.78 508.88 892.63 C 505.26 894.40 500.69 893.64 496.99 894.74 C 487.45 895.45 477.56 894.35 468.43 891.50 C 452.31 886.74 438.21 876.20 428.37 862.64 C 418.95 849.54 413.89 833.13 414.09 816.99 C 414.85 814.99 414.50 813.08 414.60 811.00 C 416.65 787.43 430.37 765.86 450.42 753.43 C 468.85 741.65 493.68 738.41 514.30 745.65 Z"/>
    </defs>
    <g stroke-width="10pt">
        <use stroke="#e5705f" xlink:href="#p1"/>
        <use stroke="#e5705f" xlink:href="#p2"/>
        <use stroke="#e5705f" xlink:href="#p3"/>
        <use stroke="#e5705f" xlink:href="#p4"/>
        <use stroke="#e5705f" xlink:href="#p5"/>
        <use stroke="#e5705f" xlink:href="#p6"/>
        <use stroke="#e5705f" xlink:href="#p7"/>
        <use stroke="#e5705f" xlink:href="#p8"/>
        <use stroke="#e5705f" xlink:href="#p9"/>
        <use stroke="#e5705f" xlink:href="#p10"/>
        <use stroke="#e5705f" xlink:href="#p11"/>
        <use stroke="#e5705f" xlink:href="#p12"/>
    </g>
    <g>
        <use fill="#e5705f" xlink:href="#p1"/>
        <use fill="#e5705f" xlink:href="#p2"/>
        <use fill="#e5705f" xlink:href="#p3"/>
        <use fill="#e5705f" xlink:href="#p4"/>
        <use fill="#e5705f" xlink:href="#p5"/>
        <use fill="#e5705f" xlink:href="#p6"/>
        <use fill="#e5705f" xlink:href="#p7"/>
        <use fill="#e5705f" xlink:href="#p8"/>
        <use fill="#e5705f" xlink:href="#p9"/>
        <use fill="#e5705f" xlink:href="#p10"/>
        <use fill="#e5705f" xlink:href="#p11"/>
        <use fill="#e5705f" xlink:href="#p12"/>
    </g>
</svg>
