<?xml version="1.0" encoding="UTF-8" standalone="no"?>
<!DOCTYPE svg PUBLIC "-//W3C//DTD SVG 1.1//EN" "http://www.w3.org/Graphics/SVG/1.1/DTD/svg11.dtd">
<svg xmlns="http://www.w3.org/2000/svg" xmlns:xlink="http://www.w3.org/1999/xlink" width="1024.0pt" height="1024.0pt" version="1.1" viewBox="0 0 1024 1024">
    <defs>
        <path id="p0" d="M 0.00 0.00 L 1024.00 0.00 L 1024.00 1024.00 L 0.00 1024.00 L 0.00 0.00 Z M 607.95 252.95 C 608.92 250.03 608.71 246.57 612.82 247.13 C 615.40 248.96 617.14 252.07 619.15 254.48 C 617.76 250.46 616.67 246.13 614.61 242.40 C 613.25 239.85 609.65 239.73 607.63 241.52 C 606.00 242.89 604.31 244.74 604.49 247.03 C 605.00 249.19 606.73 251.13 607.95 252.95 Z M 594.03 281.51 C 591.53 279.64 588.27 278.09 586.34 275.60 C 585.08 272.29 589.48 271.18 591.58 270.08 C 589.08 268.83 586.62 267.70 583.84 267.22 C 582.25 268.82 580.27 270.67 579.49 272.83 C 579.20 274.77 579.41 276.61 581.25 277.65 C 585.15 279.65 589.82 280.36 594.03 281.51 Z M 872.45 337.78 C 874.31 335.89 874.88 333.59 877.98 333.98 C 880.67 335.68 880.56 340.82 881.48 343.66 C 881.83 338.37 884.48 331.65 880.47 327.30 C 877.28 327.70 873.62 327.97 871.82 331.08 C 871.70 333.29 872.19 335.58 872.45 337.78 Z M 838.62 342.96 C 838.63 344.49 838.63 346.02 838.63 347.55 C 841.74 350.61 845.00 353.48 848.40 356.22 C 846.95 353.56 845.04 350.92 844.11 348.02 C 845.71 344.41 847.81 345.29 851.11 345.61 C 849.44 343.54 848.28 339.96 845.05 340.21 C 842.78 340.56 840.62 341.88 838.62 342.96 Z M 304.26 404.65 C 305.10 410.15 307.91 414.29 310.54 419.06 C 310.62 416.24 307.97 410.70 310.43 408.37 C 313.63 406.80 314.69 408.65 316.78 410.88 C 316.53 408.53 316.32 406.18 316.15 403.82 C 314.11 402.81 312.33 401.64 309.95 401.76 C 307.74 401.75 305.92 403.38 304.26 404.65 Z M 341.95 404.11 C 341.66 406.36 341.36 408.61 341.06 410.85 C 342.55 409.76 343.82 407.29 345.91 407.86 C 347.66 407.96 348.61 409.16 348.60 410.86 C 348.43 413.59 347.85 416.31 347.48 419.02 C 350.13 414.35 352.80 409.86 353.88 404.53 C 351.61 403.16 349.80 401.56 346.97 401.73 C 344.97 401.69 343.47 402.98 341.95 404.11 Z M 402.67 563.81 C 402.71 560.74 400.29 555.20 403.21 553.08 C 406.04 552.37 406.90 553.97 408.93 555.64 C 408.63 553.37 408.37 551.10 408.14 548.82 C 405.73 547.82 403.60 546.77 400.90 547.28 C 398.78 547.61 397.59 549.21 396.90 551.09 C 397.73 555.57 400.64 559.77 402.67 563.81 Z M 432.12 554.98 C 433.95 553.92 438.31 551.38 439.37 554.60 C 440.17 557.33 438.69 560.98 438.55 563.76 C 440.46 560.26 442.76 556.73 444.02 552.93 C 445.02 550.71 443.38 548.05 441.14 547.47 C 438.76 546.88 435.69 546.90 433.86 548.78 C 432.93 550.68 432.66 552.95 432.12 554.98 Z M 524.43 651.83 C 525.79 649.35 526.90 646.58 528.60 644.30 C 529.58 643.90 530.62 643.82 531.74 644.07 C 532.80 645.36 533.64 646.87 534.53 648.28 C 535.26 646.29 536.43 644.08 536.40 641.94 C 535.04 638.57 529.79 635.41 526.93 638.95 C 524.97 642.67 525.14 647.76 524.43 651.83 Z M 556.36 657.43 C 554.81 659.01 553.31 660.65 551.76 662.22 C 554.23 661.77 555.72 660.50 557.80 662.43 C 558.13 663.21 558.32 664.06 558.39 664.96 C 556.95 667.48 554.55 669.52 552.62 671.66 C 556.35 669.61 561.12 668.04 564.08 664.93 C 566.32 660.15 560.63 656.42 556.36 657.43 Z M 259.64 667.34 C 261.41 665.79 262.90 662.28 265.70 664.19 C 267.41 666.54 268.03 669.77 269.08 672.45 C 269.12 668.40 269.58 664.10 268.80 660.12 C 267.23 656.28 262.91 657.11 260.23 659.24 C 257.42 660.98 259.44 664.70 259.64 667.34 Z M 230.33 673.36 C 229.23 675.19 227.56 677.67 229.06 679.73 C 231.73 682.78 235.56 684.93 238.86 687.26 C 237.21 684.87 235.17 682.53 234.00 679.87 C 234.26 678.98 234.70 678.14 235.31 677.34 C 237.09 677.13 238.88 677.02 240.69 677.01 C 239.24 675.47 237.83 673.61 236.08 672.41 C 234.16 672.29 232.17 672.86 230.33 673.36 Z"/>
        <path id="p1" d="M 614.61 242.40 C 616.67 246.13 617.76 250.46 619.15 254.48 C 617.14 252.07 615.40 248.96 612.82 247.13 C 608.71 246.57 608.92 250.03 607.95 252.95 C 606.73 251.13 605.00 249.19 604.49 247.03 C 604.31 244.74 606.00 242.89 607.63 241.52 C 609.65 239.73 613.25 239.85 614.61 242.40 Z"/>
        <path id="p2" d="M 583.84 267.22 C 586.62 267.70 589.08 268.83 591.58 270.08 C 589.48 271.18 585.08 272.29 586.34 275.60 C 588.27 278.09 591.53 279.64 594.03 281.51 C 589.82 280.36 585.15 279.65 581.25 277.65 C 579.41 276.61 579.20 274.77 579.49 272.83 C 580.27 270.67 582.25 268.82 583.84 267.22 Z"/>
        <path id="p3" d="M 880.47 327.30 C 884.48 331.65 881.83 338.37 881.48 343.66 C 880.56 340.82 880.67 335.68 877.98 333.98 C 874.88 333.59 874.31 335.89 872.45 337.78 C 872.19 335.58 871.70 333.29 871.82 331.08 C 873.62 327.97 877.28 327.70 880.47 327.30 Z"/>
        <path id="p4" d="M 845.05 340.21 C 848.28 339.96 849.44 343.54 851.11 345.61 C 847.81 345.29 845.71 344.41 844.11 348.02 C 845.04 350.92 846.95 353.56 848.40 356.22 C 845.00 353.48 841.74 350.61 838.63 347.55 C 838.63 346.02 838.63 344.49 838.62 342.96 C 840.62 341.88 842.78 340.56 845.05 340.21 Z"/>
        <path id="p5" d="M 309.95 401.76 C 312.33 401.64 314.11 402.81 316.15 403.82 C 316.32 406.18 316.53 408.53 316.78 410.88 C 314.69 408.65 313.63 406.80 310.43 408.37 C 307.97 410.70 310.62 416.24 310.54 419.06 C 307.91 414.29 305.10 410.15 304.26 404.65 C 305.92 403.38 307.74 401.75 309.95 401.76 Z"/>
        <path id="p6" d="M 346.97 401.73 C 349.80 401.56 351.61 403.16 353.88 404.53 C 352.80 409.86 350.13 414.35 347.48 419.02 C 347.85 416.31 348.43 413.59 348.60 410.86 C 348.61 409.16 347.66 407.96 345.91 407.86 C 343.82 407.29 342.55 409.76 341.06 410.85 C 341.36 408.61 341.66 406.36 341.95 404.11 C 343.47 402.98 344.97 401.69 346.97 401.73 Z"/>
        <path id="p7" d="M 400.90 547.28 C 403.60 546.77 405.73 547.82 408.14 548.82 C 408.37 551.10 408.63 553.37 408.93 555.64 C 406.90 553.97 406.04 552.37 403.21 553.08 C 400.29 555.20 402.71 560.74 402.67 563.81 C 400.64 559.77 397.73 555.57 396.90 551.09 C 397.59 549.21 398.78 547.61 400.90 547.28 Z"/>
        <path id="p8" d="M 441.14 547.47 C 443.38 548.05 445.02 550.71 444.02 552.93 C 442.76 556.73 440.46 560.26 438.55 563.76 C 438.69 560.98 440.17 557.33 439.37 554.60 C 438.31 551.38 433.95 553.92 432.12 554.98 C 432.66 552.95 432.93 550.68 433.86 548.78 C 435.69 546.90 438.76 546.88 441.14 547.47 Z"/>
        <path id="p9" d="M 536.40 641.94 C 536.43 644.08 535.26 646.29 534.53 648.28 C 533.64 646.87 532.80 645.36 531.74 644.07 C 530.62 643.82 529.58 643.90 528.60 644.30 C 526.90 646.58 525.79 649.35 524.43 651.83 C 525.14 647.76 524.97 642.67 526.93 638.95 C 529.79 635.41 535.04 638.57 536.40 641.94 Z"/>
        <path id="p10" d="M 564.08 664.93 C 561.12 668.04 556.35 669.61 552.62 671.66 C 554.55 669.52 556.95 667.48 558.39 664.96 C 558.32 664.06 558.13 663.21 557.80 662.43 C 555.72 660.50 554.23 661.77 551.76 662.22 C 553.31 660.65 554.81 659.01 556.36 657.43 C 560.63 656.42 566.32 660.15 564.08 664.93 Z"/>
        <path id="p11" d="M 268.80 660.12 C 269.58 664.10 269.12 668.40 269.08 672.45 C 268.03 669.77 267.41 666.54 265.70 664.19 C 262.90 662.28 261.41 665.79 259.64 667.34 C 259.44 664.70 257.42 660.98 260.23 659.24 C 262.91 657.11 267.23 656.28 268.80 660.12 Z"/>
        <path id="p12" d="M 236.08 672.41 C 237.83 673.61 239.24 675.47 240.69 677.01 C 238.88 677.02 237.09 677.13 235.31 677.34 C 234.70 678.14 234.26 678.98 234.00 679.87 C 235.17 682.53 237.21 684.87 238.86 687.26 C 235.56 684.93 231.73 682.78 229.06 679.73 C 227.56 677.67 229.23 675.19 230.33 673.36 C 232.17 672.86 234.16 672.29 236.08 672.41 Z"/>
    </defs>
    <g stroke-width="10pt">
        <use stroke="#716c68" xlink:href="#p1"/>
        <use stroke="#716c68" xlink:href="#p2"/>
        <use stroke="#716c68" xlink:href="#p3"/>
        <use stroke="#716c68" xlink:href="#p4"/>
        <use stroke="#716c68" xlink:href="#p5"/>
        <use stroke="#716c68" xlink:href="#p6"/>
        <use stroke="#716c68" xlink:href="#p7"/>
        <use stroke="#716c68" xlink:href="#p8"/>
        <use stroke="#716c68" xlink:href="#p9"/>
        <use stroke="#716c68" xlink:href="#p10"/>
        <use stroke="#716c68" xlink:href="#p11"/>
        <use stroke="#716c68" xlink:href="#p12"/>
    </g>
    <g>
        <use fill="#716c68" xlink:href="#p1"/>
        <use fill="#716c68" xlink:href="#p2"/>
        <use fill="#716c68" xlink:href="#p3"/>
        <use fill="#716c68" xlink:href="#p4"/>
        <use fill="#716c68" xlink:href="#p5"/>
        <use fill="#716c68" xlink:href="#p6"/>
        <use fill="#716c68" xlink:href="#p7"/>
        <use fill="#716c68" xlink:href="#p8"/>
        <use fill="#716c68" xlink:href="#p9"/>
        <use fill="#716c68" xlink:href="#p10"/>
        <use fill="#716c68" xlink:href="#p11"/>
        <use fill="#716c68" xlink:href="#p12"/>
    </g>
</svg>
