<?xml version="1.0" encoding="UTF-8" standalone="no"?>
<!DOCTYPE svg PUBLIC "-//W3C//DTD SVG 1.1//EN" "http://www.w3.org/Graphics/SVG/1.1/DTD/svg11.dtd">
<svg xmlns="http://www.w3.org/2000/svg" xmlns:xlink="http://www.w3.org/1999/xlink" width="1024.0pt" height="1024.0pt" version="1.1" viewBox="0 0 1024 1024">
    <defs>
        <path id="p0" d="M 0.00 0.00 L 1024.00 0.00 L 1024.00 1024.00 L 0.00 1024.00 L 0.00 0.00 Z M 816.10 284.34 C 815.73 282.94 815.35 281.53 814.97 280.13 C 818.85 277.70 822.03 276.41 826.70 276.21 C 823.41 288.33 816.36 299.13 810.16 309.93 C 817.09 313.94 824.15 317.67 831.20 321.46 C 836.91 310.74 842.08 297.90 850.81 289.29 C 852.88 293.29 853.43 297.15 853.44 301.62 C 852.18 301.74 850.91 301.87 849.65 301.99 C 850.53 304.00 850.62 306.27 852.47 307.50 C 856.16 310.24 861.09 311.18 865.40 309.39 C 870.71 307.19 874.79 302.18 877.01 296.98 C 879.94 290.21 881.77 282.37 880.93 274.98 C 879.67 261.70 870.11 249.62 858.51 243.56 C 849.56 239.22 838.91 237.84 829.22 240.19 C 818.59 242.91 810.32 250.51 804.70 259.69 C 801.99 264.24 800.51 270.05 801.68 275.29 C 802.71 279.72 806.21 283.06 810.39 284.57 C 812.19 284.99 814.27 284.51 816.10 284.34 Z M 387.88 279.50 C 388.41 278.32 388.94 277.13 389.48 275.95 C 392.95 276.73 395.82 277.82 398.77 279.80 C 390.02 285.67 380.66 288.61 370.83 292.11 C 372.98 298.20 375.47 304.14 377.78 310.17 C 387.54 306.44 396.38 301.79 406.90 300.27 C 405.92 303.42 404.71 306.21 402.87 308.94 C 401.50 308.71 400.13 308.49 398.76 308.27 C 398.48 311.16 398.02 313.61 399.82 316.14 C 403.12 321.86 410.60 322.05 416.21 320.19 C 424.63 317.05 432.58 310.41 435.93 301.92 C 440.86 289.07 437.52 273.97 427.42 264.57 C 417.57 254.65 401.94 253.49 389.86 259.83 C 384.85 262.84 381.21 267.83 383.05 273.93 C 383.65 276.94 385.66 277.81 387.88 279.50 Z M 326.84 560.26 C 325.86 559.50 324.88 558.73 323.90 557.97 C 325.73 555.08 327.32 552.31 330.32 550.45 C 331.78 551.63 331.75 553.28 332.10 554.99 C 333.32 563.95 332.67 573.11 332.48 582.09 C 339.36 582.13 346.22 582.21 353.09 581.98 C 352.68 571.20 352.00 560.98 354.20 550.31 C 357.78 552.20 359.43 554.47 361.33 557.95 C 360.47 558.74 359.61 559.53 358.75 560.32 C 360.15 561.16 361.45 562.49 363.01 562.98 C 366.78 563.54 370.87 562.37 373.41 559.43 C 376.54 555.73 377.63 550.77 377.40 546.00 C 376.84 536.34 373.08 526.82 365.43 520.60 C 356.28 513.33 343.40 510.52 332.21 514.22 C 324.41 516.55 317.50 521.22 313.23 528.24 C 310.19 533.26 308.53 539.16 308.01 544.98 C 307.60 549.80 308.48 554.68 311.33 558.66 C 313.93 562.24 318.63 563.80 322.89 562.84 C 324.31 562.20 325.52 561.08 326.84 560.26 Z M 526.42 571.35 C 526.74 570.01 527.07 568.66 527.39 567.32 C 530.85 566.95 533.99 567.05 537.40 567.75 C 531.43 576.12 522.62 583.03 514.57 589.35 C 518.79 594.62 523.32 599.62 527.83 604.64 C 535.55 597.51 542.98 589.80 552.42 584.93 C 552.61 588.67 552.25 591.77 551.17 595.33 C 549.89 595.30 548.62 595.26 547.35 595.22 C 547.79 596.89 547.95 598.75 548.72 600.30 C 550.81 603.28 554.31 605.28 558.00 605.13 C 562.37 604.96 566.61 602.74 569.74 599.76 C 575.08 594.62 579.15 588.17 580.59 580.82 C 582.55 571.45 579.07 561.05 573.37 553.58 C 566.12 544.70 554.05 538.83 542.47 540.59 C 535.36 541.65 528.36 545.22 523.13 550.12 C 518.97 554.34 515.97 560.95 519.43 566.53 C 520.97 569.57 523.36 570.43 526.42 571.35 Z M 135.55 596.10 C 134.43 595.15 133.31 594.20 132.18 593.25 C 133.11 590.22 134.28 587.58 135.96 584.89 C 141.50 593.35 143.99 602.45 147.21 611.94 C 153.17 609.99 159.02 607.86 164.83 605.51 C 161.14 596.20 157.04 587.64 155.94 577.58 C 158.78 578.54 161.33 579.77 163.71 581.60 C 163.71 582.86 163.65 584.14 163.79 585.39 C 167.03 587.11 170.66 585.38 173.07 583.07 C 176.46 579.62 176.56 574.09 175.32 569.70 C 173.49 563.80 169.67 558.08 164.96 554.08 C 154.24 544.98 136.87 545.42 125.92 553.89 C 118.75 559.06 113.88 567.06 113.39 575.97 C 113.13 581.74 113.99 588.06 116.80 593.17 C 119.36 597.51 123.64 601.09 129.01 600.09 C 131.96 599.79 133.44 597.88 135.55 596.10 Z M 735.95 617.44 C 735.12 616.54 734.29 615.64 733.46 614.74 C 735.29 611.70 737.08 609.72 739.99 607.69 C 742.04 617.53 741.46 627.18 741.14 637.13 C 747.49 637.19 753.84 637.20 760.19 637.13 C 759.93 627.30 759.02 617.17 761.47 607.59 C 764.04 609.75 765.98 612.03 767.81 614.83 C 766.96 615.71 766.11 616.60 765.26 617.48 C 767.65 618.53 769.19 620.16 772.02 619.71 C 778.30 619.25 781.60 613.73 782.36 608.03 C 783.00 601.29 781.31 593.97 777.90 588.12 C 770.82 575.85 754.06 570.45 740.86 574.80 C 733.04 577.11 726.19 582.13 722.47 589.48 C 719.42 595.60 717.77 603.12 719.14 609.89 C 720.29 614.90 723.59 619.26 729.04 619.70 C 731.97 620.24 733.58 618.75 735.95 617.44 Z M 339.29 772.56 C 345.95 781.28 353.43 790.32 357.53 800.54 C 353.50 800.57 350.56 799.94 346.95 798.22 C 347.07 796.93 347.19 795.63 347.31 794.34 C 341.46 793.70 337.07 797.39 335.74 802.95 C 334.76 808.45 337.15 814.16 340.67 818.33 C 345.85 824.54 352.51 829.43 360.47 831.36 C 370.26 833.81 381.23 831.00 389.55 825.55 C 399.43 818.59 406.62 806.29 405.58 793.97 C 405.07 787.05 402.35 780.20 398.47 774.49 C 395.96 771.04 392.21 767.94 388.00 766.91 C 383.94 765.87 379.36 767.51 376.54 770.54 C 375.42 771.71 375.68 773.82 375.13 775.35 C 376.31 775.32 377.49 775.29 378.68 775.27 C 378.99 779.28 378.81 782.73 377.27 786.48 C 368.51 778.87 363.29 769.56 356.77 760.23 C 350.72 763.99 344.99 768.31 339.29 772.56 Z"/>
        <path id="p1" d="M 858.51 243.56 C 870.11 249.62 879.67 261.70 880.93 274.98 C 881.77 282.37 879.94 290.21 877.01 296.98 C 874.79 302.18 870.71 307.19 865.40 309.39 C 861.09 311.18 856.16 310.24 852.47 307.50 C 850.62 306.27 850.53 304.00 849.65 301.99 C 850.91 301.87 852.18 301.74 853.44 301.62 C 853.43 297.15 852.88 293.29 850.81 289.29 C 842.08 297.90 836.91 310.74 831.20 321.46 C 824.15 317.67 817.09 313.94 810.16 309.93 C 816.36 299.13 823.41 288.33 826.70 276.21 C 822.03 276.41 818.85 277.70 814.97 280.13 C 815.35 281.53 815.73 282.94 816.10 284.34 C 814.27 284.51 812.19 284.99 810.39 284.57 C 806.21 283.06 802.71 279.72 801.68 275.29 C 800.51 270.05 801.99 264.24 804.70 259.69 C 810.32 250.51 818.59 242.91 829.22 240.19 C 838.91 237.84 849.56 239.22 858.51 243.56 Z M 804.02 276.48 C 806.10 279.74 809.15 281.55 812.46 283.37 C 811.77 280.34 809.53 276.38 811.54 273.48 C 813.61 270.26 817.83 268.35 821.46 267.55 C 824.06 267.08 826.86 267.00 828.43 269.53 C 829.96 272.53 828.92 276.85 827.97 279.93 C 824.59 290.08 818.61 299.92 813.19 309.12 C 818.83 312.27 824.51 315.35 830.21 318.38 C 834.73 309.62 839.25 300.07 845.14 292.12 C 847.21 289.41 849.74 286.40 852.82 284.82 C 854.95 283.73 857.55 283.92 859.08 285.91 C 861.18 288.70 861.94 292.61 862.01 296.03 C 862.05 298.59 861.27 301.52 858.91 302.88 C 856.84 303.86 854.47 304.30 852.27 304.90 C 855.45 306.46 858.27 308.62 862.00 307.96 C 867.01 307.28 871.28 302.90 873.64 298.67 C 878.82 288.80 880.78 277.10 876.58 266.50 C 873.90 259.97 869.51 253.81 863.80 249.61 C 856.08 243.48 845.78 240.72 836.01 241.35 C 827.57 241.91 819.65 245.72 813.76 251.75 C 809.99 255.64 806.20 260.32 804.50 265.52 C 803.28 269.13 803.48 272.76 804.02 276.48 Z M 812.50 278.89 C 817.42 275.97 821.69 273.77 827.63 273.98 C 826.57 272.34 826.65 269.23 824.08 269.50 C 820.83 269.61 817.47 270.93 814.94 272.96 C 813.12 274.21 813.20 276.90 812.50 278.89 Z M 852.24 287.72 C 855.20 292.58 855.73 296.93 855.90 302.55 C 857.03 301.47 858.17 300.37 859.20 299.19 C 860.82 294.21 858.94 289.99 856.41 285.76 C 855.02 286.40 853.61 287.03 852.24 287.72 Z"/>
        <path id="p2" d="M 836.01 241.35 C 845.78 240.72 856.08 243.48 863.80 249.61 C 859.32 248.30 854.91 246.73 850.40 245.53 C 841.68 243.61 831.82 244.53 823.97 248.98 C 817.88 252.37 812.99 257.44 809.17 263.22 C 806.43 267.37 805.45 271.79 804.02 276.48 C 803.48 272.76 803.28 269.13 804.50 265.52 C 806.20 260.32 809.99 255.64 813.76 251.75 C 819.65 245.72 827.57 241.91 836.01 241.35 Z"/>
        <path id="p3" d="M 850.40 245.53 C 854.91 246.73 859.32 248.30 863.80 249.61 C 869.51 253.81 873.90 259.97 876.58 266.50 C 880.78 277.10 878.82 288.80 873.64 298.67 C 871.28 302.90 867.01 307.28 862.00 307.96 C 858.27 308.62 855.45 306.46 852.27 304.90 C 854.47 304.30 856.84 303.86 858.91 302.88 C 861.27 301.52 862.05 298.59 862.01 296.03 C 861.94 292.61 861.18 288.70 859.08 285.91 C 857.55 283.92 854.95 283.73 852.82 284.82 C 849.74 286.40 847.21 289.41 845.14 292.12 C 839.25 300.07 834.73 309.62 830.21 318.38 C 824.51 315.35 818.83 312.27 813.19 309.12 C 818.61 299.92 824.59 290.08 827.97 279.93 C 828.92 276.85 829.96 272.53 828.43 269.53 C 826.86 267.00 824.06 267.08 821.46 267.55 C 817.83 268.35 813.61 270.26 811.54 273.48 C 809.53 276.38 811.77 280.34 812.46 283.37 C 809.15 281.55 806.10 279.74 804.02 276.48 C 805.45 271.79 806.43 267.37 809.17 263.22 C 812.99 257.44 817.88 252.37 823.97 248.98 C 831.82 244.53 841.68 243.61 850.40 245.53 Z"/>
        <path id="p4" d="M 427.42 264.57 C 437.52 273.97 440.86 289.07 435.93 301.92 C 432.58 310.41 424.63 317.05 416.21 320.19 C 410.60 322.05 403.12 321.86 399.82 316.14 C 398.02 313.61 398.48 311.16 398.76 308.27 C 400.13 308.49 401.50 308.71 402.87 308.94 C 404.71 306.21 405.92 303.42 406.90 300.27 C 396.38 301.79 387.54 306.44 377.78 310.17 C 375.47 304.14 372.98 298.20 370.83 292.11 C 380.66 288.61 390.02 285.67 398.77 279.80 C 395.82 277.82 392.95 276.73 389.48 275.95 C 388.94 277.13 388.41 278.32 387.88 279.50 C 385.66 277.81 383.65 276.94 383.05 273.93 C 381.21 267.83 384.85 262.84 389.86 259.83 C 401.94 253.49 417.57 254.65 427.42 264.57 Z M 385.85 265.92 C 383.28 269.75 384.71 272.62 385.96 276.54 C 387.60 273.90 388.26 270.12 391.98 269.89 C 395.53 269.67 399.85 270.87 402.36 273.51 C 404.82 276.49 401.80 279.60 399.47 281.42 C 391.95 286.95 381.79 289.94 373.16 293.37 C 375.04 298.23 376.96 303.07 378.91 307.90 C 386.37 304.64 394.22 301.15 402.15 299.26 C 405.10 298.64 408.97 297.90 411.79 299.25 C 414.14 300.47 413.93 303.08 413.28 305.25 C 412.23 308.52 409.67 312.62 405.99 313.20 C 403.78 313.06 401.56 311.99 399.49 311.25 C 401.03 313.99 402.07 317.49 405.31 318.65 C 409.44 320.23 414.45 319.29 418.32 317.34 C 425.47 313.71 431.74 308.22 434.52 300.50 C 436.53 294.75 437.02 288.05 435.58 282.12 C 433.46 273.44 427.57 265.61 419.82 261.17 C 412.53 257.06 404.08 257.00 396.17 259.19 C 392.27 260.25 388.16 262.52 385.85 265.92 Z M 388.36 273.90 C 392.69 274.82 396.58 275.81 400.11 278.61 C 400.75 277.59 401.40 276.58 402.04 275.57 C 399.47 273.75 397.35 271.86 394.01 271.71 C 391.61 271.26 390.45 272.95 388.36 273.90 Z M 403.11 311.69 C 409.07 311.46 411.50 306.91 411.95 301.57 C 410.95 300.98 409.93 300.41 408.92 299.85 C 407.87 304.40 405.85 307.96 403.11 311.69 Z"/>
        <path id="p5" d="M 419.82 261.17 C 427.57 265.61 433.46 273.44 435.58 282.12 C 431.75 276.61 428.09 270.23 422.54 266.42 C 411.93 258.53 395.94 259.47 385.66 267.48 L 385.85 265.92 C 388.16 262.52 392.27 260.25 396.17 259.19 C 404.08 257.00 412.53 257.06 419.82 261.17 Z"/>
        <path id="p6" d="M 422.54 266.42 C 428.09 270.23 431.75 276.61 435.58 282.12 C 437.02 288.05 436.53 294.75 434.52 300.50 C 431.74 308.22 425.47 313.71 418.32 317.34 C 414.45 319.29 409.44 320.23 405.31 318.65 C 402.07 317.49 401.03 313.99 399.49 311.25 C 401.56 311.99 403.78 313.06 405.99 313.20 C 409.67 312.62 412.23 308.52 413.28 305.25 C 413.93 303.08 414.14 300.47 411.79 299.25 C 408.97 297.90 405.10 298.64 402.15 299.26 C 394.22 301.15 386.37 304.64 378.91 307.90 C 376.96 303.07 375.04 298.23 373.16 293.37 C 381.79 289.94 391.95 286.95 399.47 281.42 C 401.80 279.60 404.82 276.49 402.36 273.51 C 399.85 270.87 395.53 269.67 391.98 269.89 C 388.26 270.12 387.60 273.90 385.96 276.54 C 384.71 272.62 383.28 269.75 385.85 265.92 L 385.66 267.48 C 395.94 259.47 411.93 258.53 422.54 266.42 Z"/>
        <path id="p7" d="M 824.08 269.50 C 826.65 269.23 826.57 272.34 827.63 273.98 C 821.69 273.77 817.42 275.97 812.50 278.89 C 813.20 276.90 813.12 274.21 814.94 272.96 C 817.47 270.93 820.83 269.61 824.08 269.50 Z"/>
        <path id="p8" d="M 394.01 271.71 C 397.35 271.86 399.47 273.75 402.04 275.57 C 401.40 276.58 400.75 277.59 400.11 278.61 C 396.58 275.81 392.69 274.82 388.36 273.90 C 390.45 272.95 391.61 271.26 394.01 271.71 Z"/>
        <path id="p9" d="M 856.41 285.76 C 858.94 289.99 860.82 294.21 859.20 299.19 C 858.17 300.37 857.03 301.47 855.90 302.55 C 855.73 296.93 855.20 292.58 852.24 287.72 C 853.61 287.03 855.02 286.40 856.41 285.76 Z"/>
        <path id="p10" d="M 408.92 299.85 C 409.93 300.41 410.95 300.98 411.95 301.57 C 411.50 306.91 409.07 311.46 403.11 311.69 C 405.85 307.96 407.87 304.40 408.92 299.85 Z"/>
        <path id="p11" d="M 365.43 520.60 C 373.08 526.82 376.84 536.34 377.40 546.00 C 377.63 550.77 376.54 555.73 373.41 559.43 C 370.87 562.37 366.78 563.54 363.01 562.98 C 361.45 562.49 360.15 561.16 358.75 560.32 C 359.61 559.53 360.47 558.74 361.33 557.95 C 359.43 554.47 357.78 552.20 354.20 550.31 C 352.00 560.98 352.68 571.20 353.09 581.98 C 346.22 582.21 339.36 582.13 332.48 582.09 C 332.67 573.11 333.32 563.95 332.10 554.99 C 331.75 553.28 331.78 551.63 330.32 550.45 C 327.32 552.31 325.73 555.08 323.90 557.97 C 324.88 558.73 325.86 559.50 326.84 560.26 C 325.52 561.08 324.31 562.20 322.89 562.84 C 318.63 563.80 313.93 562.24 311.33 558.66 C 308.48 554.68 307.60 549.80 308.01 544.98 C 308.53 539.16 310.19 533.26 313.23 528.24 C 317.50 521.22 324.41 516.55 332.21 514.22 C 343.40 510.52 356.28 513.33 365.43 520.60 Z M 313.86 558.61 C 315.90 560.88 320.21 560.75 323.02 561.26 C 321.56 559.59 319.96 557.93 318.89 555.98 C 317.94 552.61 320.26 548.89 322.54 546.54 C 324.38 544.67 327.08 542.79 329.75 544.19 C 332.06 545.63 332.99 549.01 333.57 551.50 C 335.39 560.63 334.95 570.70 334.59 579.96 C 340.03 580.01 345.47 580.01 350.92 579.93 C 350.72 571.28 350.21 562.12 351.47 553.55 C 351.97 550.66 352.77 547.04 354.87 544.86 C 356.69 543.09 359.23 543.55 361.10 544.98 C 363.89 547.10 366.50 550.48 366.90 554.04 C 367.18 556.83 363.89 559.32 362.22 561.25 C 364.94 560.78 368.81 560.90 370.91 558.91 C 374.20 555.87 375.37 551.37 375.30 547.01 C 375.13 541.19 373.67 535.28 370.81 530.18 C 366.58 522.39 357.96 517.09 349.46 515.26 C 339.89 513.40 329.50 515.84 321.75 521.74 C 315.20 526.79 311.63 534.28 310.40 542.34 C 309.40 548.22 309.98 553.87 313.86 558.61 Z M 321.84 557.57 C 324.31 553.33 326.75 550.26 331.07 547.78 C 330.02 547.00 328.95 546.26 327.86 545.55 C 324.50 546.45 321.82 549.85 320.72 553.03 C 320.06 555.12 321.64 555.56 321.84 557.57 Z M 354.52 547.96 C 358.85 550.42 361.28 553.75 363.77 557.94 C 364.03 556.41 364.85 554.81 364.75 553.26 C 363.72 549.35 360.87 546.85 357.29 545.24 C 356.36 546.14 355.44 547.05 354.52 547.96 Z"/>
        <path id="p12" d="M 349.46 515.26 C 339.13 516.19 329.38 518.21 321.86 525.90 C 313.41 534.71 311.31 546.93 313.86 558.61 C 309.98 553.87 309.40 548.22 310.40 542.34 C 311.63 534.28 315.20 526.79 321.75 521.74 C 329.50 515.84 339.89 513.40 349.46 515.26 Z"/>
        <path id="p13" d="M 349.46 515.26 C 357.96 517.09 366.58 522.39 370.81 530.18 C 373.67 535.28 375.13 541.19 375.30 547.01 C 375.37 551.37 374.20 555.87 370.91 558.91 C 368.81 560.90 364.94 560.78 362.22 561.25 C 363.89 559.32 367.18 556.83 366.90 554.04 C 366.50 550.48 363.89 547.10 361.10 544.98 C 359.23 543.55 356.69 543.09 354.87 544.86 C 352.77 547.04 351.97 550.66 351.47 553.55 C 350.21 562.12 350.72 571.28 350.92 579.93 C 345.47 580.01 340.03 580.01 334.59 579.96 C 334.95 570.70 335.39 560.63 333.57 551.50 C 332.99 549.01 332.06 545.63 329.75 544.19 C 327.08 542.79 324.38 544.67 322.54 546.54 C 320.26 548.89 317.94 552.61 318.89 555.98 C 319.96 557.93 321.56 559.59 323.02 561.26 C 320.21 560.75 315.90 560.88 313.86 558.61 C 311.31 546.93 313.41 534.71 321.86 525.90 C 329.38 518.21 339.13 516.19 349.46 515.26 Z"/>
        <path id="p14" d="M 542.47 540.59 C 554.05 538.83 566.12 544.70 573.37 553.58 C 579.07 561.05 582.55 571.45 580.59 580.82 C 579.15 588.17 575.08 594.62 569.74 599.76 C 566.61 602.74 562.37 604.96 558.00 605.13 C 554.31 605.28 550.81 603.28 548.72 600.30 C 547.95 598.75 547.79 596.89 547.35 595.22 C 548.62 595.26 549.89 595.30 551.17 595.33 C 552.25 591.77 552.61 588.67 552.42 584.93 C 542.98 589.80 535.55 597.51 527.83 604.64 C 523.32 599.62 518.79 594.62 514.57 589.35 C 522.62 583.03 531.43 576.12 537.40 567.75 C 533.99 567.05 530.85 566.95 527.39 567.32 C 527.07 568.66 526.74 570.01 526.42 571.35 C 523.36 570.43 520.97 569.57 519.43 566.53 C 515.97 560.95 518.97 554.34 523.13 550.12 C 528.36 545.22 535.36 541.65 542.47 540.59 Z M 519.44 561.49 C 520.35 564.42 522.03 566.85 523.80 569.32 C 524.38 566.97 524.05 562.91 526.31 561.36 C 529.05 559.25 533.30 559.14 536.55 559.74 C 538.75 560.21 540.72 561.50 540.64 563.99 C 540.49 567.03 538.19 570.05 536.33 572.33 C 530.82 578.79 523.78 584.40 517.24 589.79 C 520.81 593.86 524.35 597.94 527.93 602.00 C 534.37 595.90 541.17 589.40 548.75 584.76 C 551.23 583.32 554.65 581.61 557.58 582.44 C 559.76 583.21 560.33 585.93 560.30 587.98 C 560.26 591.13 559.35 595.54 556.54 597.44 C 554.42 598.43 551.59 598.23 549.29 598.52 C 551.55 600.36 553.85 603.18 556.96 603.22 C 561.81 603.43 566.16 600.84 569.44 597.45 C 575.24 591.34 579.36 583.60 579.23 574.99 C 579.05 568.24 576.88 561.29 572.79 555.86 C 566.61 547.70 556.36 541.85 545.97 542.20 C 539.68 542.28 533.50 544.82 528.34 548.30 C 523.21 551.70 520.68 555.44 519.44 561.49 Z M 525.32 565.61 C 529.66 565.16 533.97 565.28 538.30 565.61 C 538.60 564.50 538.86 563.38 539.08 562.25 C 535.48 561.66 531.76 560.53 528.31 562.25 C 527.17 563.20 526.34 564.53 525.32 565.61 Z M 552.75 597.21 C 553.87 596.47 555.02 595.77 556.20 595.14 C 558.89 592.01 558.48 587.98 557.86 584.19 C 556.74 584.16 555.62 584.18 554.51 584.26 C 554.33 588.70 554.01 592.92 552.75 597.21 Z"/>
        <path id="p15" d="M 545.97 542.20 C 556.36 541.85 566.61 547.70 572.79 555.86 C 567.03 553.04 563.14 548.82 556.95 546.99 C 548.00 544.01 538.46 545.59 530.53 550.50 C 525.73 553.14 522.68 557.22 519.44 561.49 C 520.68 555.44 523.21 551.70 528.34 548.30 C 533.50 544.82 539.68 542.28 545.97 542.20 Z"/>
        <path id="p16" d="M 327.86 545.55 C 328.95 546.26 330.02 547.00 331.07 547.78 C 326.75 550.26 324.31 553.33 321.84 557.57 C 321.64 555.56 320.06 555.12 320.72 553.03 C 321.82 549.85 324.50 546.45 327.86 545.55 Z"/>
        <path id="p17" d="M 357.29 545.24 C 360.87 546.85 363.72 549.35 364.75 553.26 C 364.85 554.81 364.03 556.41 363.77 557.94 C 361.28 553.75 358.85 550.42 354.52 547.96 C 355.44 547.05 356.36 546.14 357.29 545.24 Z"/>
        <path id="p18" d="M 556.95 546.99 C 563.14 548.82 567.03 553.04 572.79 555.86 C 576.88 561.29 579.05 568.24 579.23 574.99 C 579.36 583.60 575.24 591.34 569.44 597.45 C 566.16 600.84 561.81 603.43 556.96 603.22 C 553.85 603.18 551.55 600.36 549.29 598.52 C 551.59 598.23 554.42 598.43 556.54 597.44 C 559.35 595.54 560.26 591.13 560.30 587.98 C 560.33 585.93 559.76 583.21 557.58 582.44 C 554.65 581.61 551.23 583.32 548.75 584.76 C 541.17 589.40 534.37 595.90 527.93 602.00 C 524.35 597.94 520.81 593.86 517.24 589.79 C 523.78 584.40 530.82 578.79 536.33 572.33 C 538.19 570.05 540.49 567.03 540.64 563.99 C 540.72 561.50 538.75 560.21 536.55 559.74 C 533.30 559.14 529.05 559.25 526.31 561.36 C 524.05 562.91 524.38 566.97 523.80 569.32 C 522.03 566.85 520.35 564.42 519.44 561.49 C 522.68 557.22 525.73 553.14 530.53 550.50 C 538.46 545.59 548.00 544.01 556.95 546.99 Z"/>
        <path id="p19" d="M 164.96 554.08 C 169.67 558.08 173.49 563.80 175.32 569.70 C 176.56 574.09 176.46 579.62 173.07 583.07 C 170.66 585.38 167.03 587.11 163.79 585.39 C 163.65 584.14 163.71 582.86 163.71 581.60 C 161.33 579.77 158.78 578.54 155.94 577.58 C 157.04 587.64 161.14 596.20 164.83 605.51 C 159.02 607.86 153.17 609.99 147.21 611.94 C 143.99 602.45 141.50 593.35 135.96 584.89 C 134.28 587.58 133.11 590.22 132.18 593.25 C 133.31 594.20 134.43 595.15 135.55 596.10 C 133.44 597.88 131.96 599.79 129.01 600.09 C 123.64 601.09 119.36 597.51 116.80 593.17 C 113.99 588.06 113.13 581.74 113.39 575.97 C 113.88 567.06 118.75 559.06 125.92 553.89 C 136.87 545.42 154.24 544.98 164.96 554.08 Z M 136.92 550.34 C 129.39 552.60 122.55 557.77 118.58 564.59 C 114.18 572.07 114.30 581.81 117.20 589.79 C 118.40 593.19 120.75 595.71 123.67 597.75 C 126.27 599.27 130.08 597.71 132.86 597.25 C 131.00 596.17 128.88 595.20 127.28 593.74 C 125.68 591.49 126.45 587.78 127.40 585.38 C 128.40 583.05 129.95 580.09 132.97 580.55 C 135.75 581.28 137.46 583.80 138.89 586.10 C 143.15 593.28 145.66 601.88 148.47 609.74 C 153.10 608.01 157.74 606.31 162.39 604.64 C 159.46 596.90 155.86 588.71 154.45 580.55 C 154.11 578.03 153.67 574.44 155.38 572.31 C 156.93 570.44 159.30 571.08 161.27 571.78 C 164.01 572.87 167.24 575.04 168.09 578.03 C 168.28 580.29 167.12 582.73 166.62 584.92 C 169.01 583.41 172.35 582.30 173.38 579.43 C 174.98 575.31 174.14 570.69 172.29 566.81 C 169.09 560.05 163.83 554.04 156.74 551.27 C 150.53 548.89 143.31 548.32 136.92 550.34 Z M 155.36 575.73 C 159.76 576.76 163.16 578.84 166.70 581.56 C 166.47 580.11 166.19 578.68 165.85 577.26 C 164.04 574.72 160.51 572.66 157.33 572.93 C 156.65 573.85 155.99 574.78 155.36 575.73 Z M 130.10 594.77 C 131.10 590.62 132.38 586.91 134.90 583.42 C 133.85 582.93 132.81 582.44 131.75 581.97 C 129.61 584.65 127.87 587.31 128.21 590.92 C 128.74 592.25 129.40 593.52 130.10 594.77 Z"/>
        <path id="p20" d="M 156.74 551.27 C 163.83 554.04 169.09 560.05 172.29 566.81 C 174.14 570.69 174.98 575.31 173.38 579.43 C 172.35 582.30 169.01 583.41 166.62 584.92 C 167.12 582.73 168.28 580.29 168.09 578.03 C 167.24 575.04 164.01 572.87 161.27 571.78 C 159.30 571.08 156.93 570.44 155.38 572.31 C 153.67 574.44 154.11 578.03 154.45 580.55 C 155.86 588.71 159.46 596.90 162.39 604.64 C 157.74 606.31 153.10 608.01 148.47 609.74 C 145.66 601.88 143.15 593.28 138.89 586.10 C 137.46 583.80 135.75 581.28 132.97 580.55 C 129.95 580.09 128.40 583.05 127.40 585.38 C 126.45 587.78 125.68 591.49 127.28 593.74 C 128.88 595.20 131.00 596.17 132.86 597.25 C 130.08 597.71 126.27 599.27 123.67 597.75 C 120.41 591.91 118.02 585.81 118.18 579.00 C 117.87 569.69 122.73 560.61 130.47 555.50 C 132.79 553.98 134.84 552.16 136.92 550.34 C 143.31 548.32 150.53 548.89 156.74 551.27 Z"/>
        <path id="p21" d="M 136.92 550.34 C 134.84 552.16 132.79 553.98 130.47 555.50 C 122.73 560.61 117.87 569.69 118.18 579.00 C 118.02 585.81 120.41 591.91 123.67 597.75 C 120.75 595.71 118.40 593.19 117.20 589.79 C 114.30 581.81 114.18 572.07 118.58 564.59 C 122.55 557.77 129.39 552.60 136.92 550.34 Z"/>
        <path id="p22" d="M 528.31 562.25 C 531.76 560.53 535.48 561.66 539.08 562.25 C 538.86 563.38 538.60 564.50 538.30 565.61 C 533.97 565.28 529.66 565.16 525.32 565.61 C 526.34 564.53 527.17 563.20 528.31 562.25 Z"/>
        <path id="p23" d="M 157.33 572.93 C 160.51 572.66 164.04 574.72 165.85 577.26 C 166.19 578.68 166.47 580.11 166.70 581.56 C 163.16 578.84 159.76 576.76 155.36 575.73 C 155.99 574.78 156.65 573.85 157.33 572.93 Z"/>
        <path id="p24" d="M 777.90 588.12 C 781.31 593.97 783.00 601.29 782.36 608.03 C 781.60 613.73 778.30 619.25 772.02 619.71 C 769.19 620.16 767.65 618.53 765.26 617.48 C 766.11 616.60 766.96 615.71 767.81 614.83 C 765.98 612.03 764.04 609.75 761.47 607.59 C 759.02 617.17 759.93 627.30 760.19 637.13 C 753.84 637.20 747.49 637.19 741.14 637.13 C 741.46 627.18 742.04 617.53 739.99 607.69 C 737.08 609.72 735.29 611.70 733.46 614.74 C 734.29 615.64 735.12 616.54 735.95 617.44 C 733.58 618.75 731.97 620.24 729.04 619.70 C 723.59 619.26 720.29 614.90 719.14 609.89 C 717.77 603.12 719.42 595.60 722.47 589.48 C 726.19 582.13 733.04 577.11 740.86 574.80 C 754.06 570.45 770.82 575.85 777.90 588.12 Z M 723.33 615.04 C 725.90 617.30 728.87 617.64 732.12 618.17 C 730.55 615.66 727.58 613.25 728.71 609.99 C 729.77 606.60 732.57 603.00 736.03 601.89 C 739.33 601.13 740.97 604.64 741.78 607.20 C 744.19 616.01 743.22 626.09 743.18 635.17 C 748.09 635.24 753.00 635.25 757.92 635.19 C 758.00 627.16 757.38 618.77 758.61 610.83 C 759.13 608.08 759.95 604.15 762.41 602.45 C 764.59 601.06 766.64 602.21 768.38 603.67 C 770.65 605.71 772.81 608.83 772.88 611.97 C 772.42 614.28 770.33 616.36 769.04 618.30 C 771.33 617.73 774.13 617.47 776.15 616.17 C 779.16 613.89 780.46 609.61 780.54 605.97 C 780.57 596.46 776.86 586.78 768.90 581.15 C 764.26 577.95 758.49 575.41 752.81 575.18 C 744.11 574.93 735.18 577.72 728.91 583.91 C 723.33 589.38 720.82 597.36 720.54 605.02 C 720.41 608.65 721.67 611.88 723.33 615.04 Z M 730.70 615.09 C 733.37 611.34 736.12 608.08 739.95 605.45 C 738.73 605.20 738.03 604.63 737.86 603.72 C 734.92 603.39 732.71 606.12 731.32 608.35 C 729.96 610.32 730.71 612.84 730.70 615.09 Z M 761.25 605.54 C 764.99 608.13 767.41 610.63 769.83 614.47 C 770.43 613.61 771.02 612.74 771.60 611.85 C 769.88 608.57 768.65 605.31 765.00 603.72 C 763.67 603.66 762.41 604.97 761.25 605.54 Z"/>
        <path id="p25" d="M 752.81 575.18 C 746.45 577.43 739.25 578.84 734.14 583.16 C 727.63 588.18 723.94 595.95 723.28 604.06 C 723.08 607.71 723.28 611.39 723.33 615.04 C 721.67 611.88 720.41 608.65 720.54 605.02 C 720.82 597.36 723.33 589.38 728.91 583.91 C 735.18 577.72 744.11 574.93 752.81 575.18 Z"/>
        <path id="p26" d="M 752.81 575.18 C 758.49 575.41 764.26 577.95 768.90 581.15 C 776.86 586.78 780.57 596.46 780.54 605.97 C 780.46 609.61 779.16 613.89 776.15 616.17 C 774.13 617.47 771.33 617.73 769.04 618.30 C 770.33 616.36 772.42 614.28 772.88 611.97 C 772.81 608.83 770.65 605.71 768.38 603.67 C 766.64 602.21 764.59 601.06 762.41 602.45 C 759.95 604.15 759.13 608.08 758.61 610.83 C 757.38 618.77 758.00 627.16 757.92 635.19 C 753.00 635.25 748.09 635.24 743.18 635.17 C 743.22 626.09 744.19 616.01 741.78 607.20 C 740.97 604.64 739.33 601.13 736.03 601.89 C 732.57 603.00 729.77 606.60 728.71 609.99 C 727.58 613.25 730.55 615.66 732.12 618.17 C 728.87 617.64 725.90 617.30 723.33 615.04 C 723.28 611.39 723.08 607.71 723.28 604.06 C 723.94 595.95 727.63 588.18 734.14 583.16 C 739.25 578.84 746.45 577.43 752.81 575.18 Z"/>
        <path id="p27" d="M 131.75 581.97 C 132.81 582.44 133.85 582.93 134.90 583.42 C 132.38 586.91 131.10 590.62 130.10 594.77 C 129.40 593.52 128.74 592.25 128.21 590.92 C 127.87 587.31 129.61 584.65 131.75 581.97 Z"/>
        <path id="p28" d="M 554.51 584.26 C 555.62 584.18 556.74 584.16 557.86 584.19 C 558.48 587.98 558.89 592.01 556.20 595.14 C 555.02 595.77 553.87 596.47 552.75 597.21 C 554.01 592.92 554.33 588.70 554.51 584.26 Z"/>
        <path id="p29" d="M 737.86 603.72 C 738.03 604.63 738.73 605.20 739.95 605.45 C 736.12 608.08 733.37 611.34 730.70 615.09 C 730.71 612.84 729.96 610.32 731.32 608.35 C 732.71 606.12 734.92 603.39 737.86 603.72 Z"/>
        <path id="p30" d="M 765.00 603.72 C 768.65 605.31 769.88 608.57 771.60 611.85 C 771.02 612.74 770.43 613.61 769.83 614.47 C 767.41 610.63 764.99 608.13 761.25 605.54 C 762.41 604.97 763.67 603.66 765.00 603.72 Z"/>
        <path id="p31" d="M 356.77 760.23 C 363.29 769.56 368.51 778.87 377.27 786.48 C 378.81 782.73 378.99 779.28 378.68 775.27 C 377.49 775.29 376.31 775.32 375.13 775.35 C 375.68 773.82 375.42 771.71 376.54 770.54 C 379.36 767.51 383.94 765.87 388.00 766.91 C 392.21 767.94 395.96 771.04 398.47 774.49 C 402.35 780.20 405.07 787.05 405.58 793.97 C 406.62 806.29 399.43 818.59 389.55 825.55 C 381.23 831.00 370.26 833.81 360.47 831.36 C 352.51 829.43 345.85 824.54 340.67 818.33 C 337.15 814.16 334.76 808.45 335.74 802.95 C 337.07 797.39 341.46 793.70 347.31 794.34 C 347.19 795.63 347.07 796.93 346.95 798.22 C 350.56 799.94 353.50 800.57 357.53 800.54 C 353.43 790.32 345.95 781.28 339.29 772.56 C 344.99 768.31 350.72 763.99 356.77 760.23 Z M 342.09 772.88 C 347.44 779.75 352.58 786.56 356.80 794.21 C 358.38 797.18 360.02 800.62 360.14 804.03 C 360.20 806.17 358.89 808.25 356.67 808.58 C 352.69 809.16 347.85 807.92 344.88 805.13 C 342.24 802.68 343.79 798.88 343.93 795.80 C 341.48 797.96 338.44 799.52 337.77 802.97 C 336.80 807.36 338.59 812.26 341.22 815.77 C 346.86 823.07 354.62 828.77 363.97 829.95 C 371.14 830.76 378.95 829.44 385.26 825.85 C 393.67 821.23 400.17 813.00 402.70 803.74 C 404.91 795.48 403.17 787.17 399.31 779.71 C 396.52 773.98 392.11 769.67 385.71 768.36 C 382.63 768.49 379.74 770.63 377.15 772.15 C 379.48 772.87 383.35 772.86 384.97 774.94 C 386.94 777.32 386.88 780.93 386.56 783.83 C 386.21 786.17 385.38 789.21 383.00 790.24 C 380.02 791.02 377.08 788.92 374.94 787.09 C 367.33 780.31 361.87 771.04 356.17 762.99 C 351.33 766.06 346.76 769.58 342.09 772.88 Z M 380.68 774.35 C 381.06 779.64 380.71 783.51 378.96 788.49 C 380.27 788.23 381.58 788.06 382.89 787.99 C 385.40 784.72 385.15 779.55 383.44 775.95 C 382.53 775.38 381.61 774.84 380.68 774.35 Z M 344.89 799.58 C 345.08 800.67 345.28 801.76 345.50 802.84 C 348.36 805.72 352.49 807.35 356.53 806.52 C 357.94 806.03 357.99 803.76 358.51 802.52 C 353.35 802.75 349.50 801.73 344.89 799.58 Z"/>
        <path id="p32" d="M 356.17 762.99 C 361.87 771.04 367.33 780.31 374.94 787.09 C 377.08 788.92 380.02 791.02 383.00 790.24 C 385.38 789.21 386.21 786.17 386.56 783.83 C 386.88 780.93 386.94 777.32 384.97 774.94 C 383.35 772.86 379.48 772.87 377.15 772.15 C 379.74 770.63 382.63 768.49 385.71 768.36 C 397.96 777.09 403.77 794.59 397.61 808.60 C 394.89 815.77 389.79 819.88 385.26 825.85 C 378.95 829.44 371.14 830.76 363.97 829.95 C 354.62 828.77 346.86 823.07 341.22 815.77 C 338.59 812.26 336.80 807.36 337.77 802.97 C 338.44 799.52 341.48 797.96 343.93 795.80 C 343.79 798.88 342.24 802.68 344.88 805.13 C 347.85 807.92 352.69 809.16 356.67 808.58 C 358.89 808.25 360.20 806.17 360.14 804.03 C 360.02 800.62 358.38 797.18 356.80 794.21 C 352.58 786.56 347.44 779.75 342.09 772.88 C 346.76 769.58 351.33 766.06 356.17 762.99 Z"/>
        <path id="p33" d="M 385.71 768.36 C 392.11 769.67 396.52 773.98 399.31 779.71 C 403.17 787.17 404.91 795.48 402.70 803.74 C 400.17 813.00 393.67 821.23 385.26 825.85 C 389.79 819.88 394.89 815.77 397.61 808.60 C 403.77 794.59 397.96 777.09 385.71 768.36 Z"/>
        <path id="p34" d="M 380.68 774.35 C 381.61 774.84 382.53 775.38 383.44 775.95 C 385.15 779.55 385.40 784.72 382.89 787.99 C 381.58 788.06 380.27 788.23 378.96 788.49 C 380.71 783.51 381.06 779.64 380.68 774.35 Z"/>
        <path id="p35" d="M 344.89 799.58 C 349.50 801.73 353.35 802.75 358.51 802.52 C 357.99 803.76 357.94 806.03 356.53 806.52 C 352.49 807.35 348.36 805.72 345.50 802.84 C 345.28 801.76 345.08 800.67 344.89 799.58 Z"/>
    </defs>
    <g stroke-width="10pt">
        <use stroke="#ac9c8f" xlink:href="#p1"/>
        <use stroke="#fcf6ef" xlink:href="#p2"/>
        <use stroke="#e0d9d1" xlink:href="#p3"/>
        <use stroke="#ab9d91" xlink:href="#p4"/>
        <use stroke="#fdf6ec" xlink:href="#p5"/>
        <use stroke="#e0d9d1" xlink:href="#p6"/>
        <use stroke="#5c4536" xlink:href="#p7"/>
        <use stroke="#5c4637" xlink:href="#p8"/>
        <use stroke="#5a4537" xlink:href="#p9"/>
        <use stroke="#5c4434" xlink:href="#p10"/>
        <use stroke="#b3a79d" xlink:href="#p11"/>
        <use stroke="#fdf6ee" xlink:href="#p12"/>
        <use stroke="#e0d9d1" xlink:href="#p13"/>
        <use stroke="#ac9c8f" xlink:href="#p14"/>
        <use stroke="#fdf6ed" xlink:href="#p15"/>
        <use stroke="#5b4433" xlink:href="#p16"/>
        <use stroke="#5a4435" xlink:href="#p17"/>
        <use stroke="#e0d9d1" xlink:href="#p18"/>
        <use stroke="#ad9f96" xlink:href="#p19"/>
        <use stroke="#e0d9d1" xlink:href="#p20"/>
        <use stroke="#fdf6ee" xlink:href="#p21"/>
        <use stroke="#594536" xlink:href="#p22"/>
        <use stroke="#5c4638" xlink:href="#p23"/>
        <use stroke="#b5a9a0" xlink:href="#p24"/>
        <use stroke="#fef6ee" xlink:href="#p25"/>
        <use stroke="#e0d9d1" xlink:href="#p26"/>
        <use stroke="#5b4535" xlink:href="#p27"/>
        <use stroke="#5b4537" xlink:href="#p28"/>
        <use stroke="#5d4636" xlink:href="#p29"/>
        <use stroke="#5c4535" xlink:href="#p30"/>
        <use stroke="#ac9c8f" xlink:href="#p31"/>
        <use stroke="#e0d9d1" xlink:href="#p32"/>
        <use stroke="#fcf6ee" xlink:href="#p33"/>
        <use stroke="#5c4535" xlink:href="#p34"/>
        <use stroke="#5b4535" xlink:href="#p35"/>
    </g>
    <g>
        <use fill="#ac9c8f" xlink:href="#p1"/>
        <use fill="#fcf6ef" xlink:href="#p2"/>
        <use fill="#e0d9d1" xlink:href="#p3"/>
        <use fill="#ab9d91" xlink:href="#p4"/>
        <use fill="#fdf6ec" xlink:href="#p5"/>
        <use fill="#e0d9d1" xlink:href="#p6"/>
        <use fill="#5c4536" xlink:href="#p7"/>
        <use fill="#5c4637" xlink:href="#p8"/>
        <use fill="#5a4537" xlink:href="#p9"/>
        <use fill="#5c4434" xlink:href="#p10"/>
        <use fill="#b3a79d" xlink:href="#p11"/>
        <use fill="#fdf6ee" xlink:href="#p12"/>
        <use fill="#e0d9d1" xlink:href="#p13"/>
        <use fill="#ac9c8f" xlink:href="#p14"/>
        <use fill="#fdf6ed" xlink:href="#p15"/>
        <use fill="#5b4433" xlink:href="#p16"/>
        <use fill="#5a4435" xlink:href="#p17"/>
        <use fill="#e0d9d1" xlink:href="#p18"/>
        <use fill="#ad9f96" xlink:href="#p19"/>
        <use fill="#e0d9d1" xlink:href="#p20"/>
        <use fill="#fdf6ee" xlink:href="#p21"/>
        <use fill="#594536" xlink:href="#p22"/>
        <use fill="#5c4638" xlink:href="#p23"/>
        <use fill="#b5a9a0" xlink:href="#p24"/>
        <use fill="#fef6ee" xlink:href="#p25"/>
        <use fill="#e0d9d1" xlink:href="#p26"/>
        <use fill="#5b4535" xlink:href="#p27"/>
        <use fill="#5b4537" xlink:href="#p28"/>
        <use fill="#5d4636" xlink:href="#p29"/>
        <use fill="#5c4535" xlink:href="#p30"/>
        <use fill="#ac9c8f" xlink:href="#p31"/>
        <use fill="#e0d9d1" xlink:href="#p32"/>
        <use fill="#fcf6ee" xlink:href="#p33"/>
        <use fill="#5c4535" xlink:href="#p34"/>
        <use fill="#5b4535" xlink:href="#p35"/>
    </g>
</svg>
