<?xml version="1.0" encoding="UTF-8" standalone="no"?>
<!DOCTYPE svg PUBLIC "-//W3C//DTD SVG 1.1//EN" "http://www.w3.org/Graphics/SVG/1.1/DTD/svg11.dtd">
<svg xmlns="http://www.w3.org/2000/svg" xmlns:xlink="http://www.w3.org/1999/xlink" width="1024.0pt" height="1024.0pt" version="1.1" viewBox="0 0 1024 1024">
    <defs>
        <path id="p0" d="M 0.00 0.00 L 1024.00 0.00 L 1024.00 1024.00 L 0.00 1024.00 L 0.00 0.00 Z M 699.65 286.94 C 707.68 295.08 718.47 300.55 729.69 302.62 C 744.76 305.56 760.69 302.00 773.28 293.28 C 785.70 284.76 794.47 271.32 797.35 256.55 C 800.24 241.95 797.15 226.41 789.05 213.95 C 786.74 210.48 784.57 207.21 781.13 204.73 C 777.00 208.14 773.93 212.38 770.11 216.11 C 749.23 236.89 728.46 257.79 707.56 278.56 C 704.80 281.25 702.05 283.91 699.65 286.94 Z M 491.38 224.45 C 475.56 226.78 461.05 235.82 452.04 249.05 C 440.55 265.51 438.47 287.76 447.03 305.97 C 454.85 323.38 471.59 336.28 490.46 339.30 C 509.92 342.65 530.42 335.23 543.43 320.44 C 554.34 308.22 559.74 291.28 557.64 275.01 C 556.27 262.88 550.84 251.38 542.54 242.46 C 529.73 228.52 510.13 221.51 491.38 224.45 Z M 258.31 296.24 C 247.05 297.80 236.58 302.56 228.04 310.06 C 215.53 320.94 207.90 337.37 208.17 354.00 C 208.05 366.98 212.82 379.98 220.92 390.07 C 230.28 401.86 244.33 409.68 259.27 411.48 C 267.61 412.38 276.05 411.78 284.03 409.10 C 299.16 404.32 311.98 393.09 318.75 378.74 C 328.07 359.70 325.73 335.97 312.89 319.11 C 300.55 302.27 278.99 293.17 258.31 296.24 Z M 589.17 395.91 C 592.95 392.76 596.18 389.12 599.69 385.68 C 620.87 364.54 642.03 343.36 663.20 322.20 C 666.00 319.49 668.74 316.74 671.35 313.85 C 656.97 298.46 632.59 293.10 612.79 299.75 C 598.64 304.25 586.50 314.40 579.46 327.45 C 573.16 339.07 570.99 352.90 573.45 365.88 C 575.55 377.17 581.08 387.77 589.17 395.91 Z M 729.30 418.50 C 754.49 418.51 779.73 417.83 804.96 418.48 C 818.52 418.47 832.07 418.52 845.62 418.48 C 845.63 402.58 838.76 386.71 827.05 375.94 C 816.11 365.66 800.98 359.83 785.96 360.30 C 775.05 360.51 764.19 364.06 755.13 370.13 C 739.17 380.75 729.07 399.27 729.30 418.50 Z M 402.33 368.37 C 387.10 370.78 373.06 379.58 364.17 392.17 C 351.90 409.21 349.94 432.74 359.50 451.49 C 366.63 465.95 379.93 477.15 395.45 481.57 C 404.83 484.31 414.81 484.59 424.34 482.43 C 440.74 478.90 455.12 467.75 462.96 452.96 C 467.28 444.73 469.84 435.33 469.73 426.00 C 469.93 410.30 463.28 394.88 451.99 384.02 C 439.02 371.32 420.24 365.44 402.33 368.37 Z M 201.43 449.56 C 186.60 452.33 173.14 461.16 164.55 473.55 C 157.34 483.80 153.64 496.52 154.18 509.04 C 154.50 519.41 157.96 529.72 163.59 538.40 C 171.22 550.02 183.04 558.85 196.45 562.59 C 203.94 564.76 211.80 565.24 219.53 564.36 C 235.63 562.38 250.69 553.26 259.92 539.92 C 267.65 529.02 271.32 515.28 270.24 501.98 C 269.13 487.63 262.39 473.92 251.85 464.15 C 238.51 451.65 219.41 446.03 201.43 449.56 Z M 619.80 528.06 C 619.12 552.78 636.41 575.77 659.77 583.27 C 674.11 588.08 690.44 586.74 703.91 579.91 C 723.19 570.31 736.12 549.76 735.87 528.14 C 730.57 527.61 725.31 527.84 720.00 527.82 C 692.33 527.82 664.67 527.82 637.00 527.82 C 631.25 527.85 625.54 527.64 619.80 528.06 Z M 430.46 570.69 C 416.68 573.44 403.97 581.25 395.48 592.48 C 387.70 602.57 383.37 615.24 383.52 628.00 C 383.45 643.51 390.20 658.93 401.37 669.64 C 409.92 677.87 420.95 683.27 432.65 685.19 C 443.81 686.89 455.39 685.42 465.65 680.66 C 477.98 675.09 488.13 665.17 494.00 652.99 C 499.25 642.43 500.84 630.42 499.14 618.79 C 496.71 603.79 488.34 589.91 476.05 580.95 C 463.07 571.35 446.31 567.55 430.46 570.69 Z M 264.32 628.26 C 252.26 629.52 240.80 634.67 231.80 642.79 C 222.29 651.25 215.75 662.87 213.43 675.38 C 210.75 689.49 213.58 704.59 221.25 716.75 C 232.44 734.89 253.75 745.80 275.03 744.00 C 290.04 742.86 304.40 735.63 314.29 724.29 C 323.45 713.88 328.92 699.91 328.67 686.00 C 328.91 672.58 323.75 659.08 315.19 648.82 C 302.97 634.09 283.39 625.98 264.32 628.26 Z M 643.48 628.71 C 629.53 631.09 616.56 638.66 607.76 649.77 C 599.60 659.90 594.87 672.97 595.10 686.01 C 594.88 698.90 599.40 711.56 607.29 721.70 C 616.69 733.82 630.93 741.96 646.18 743.74 C 667.05 746.45 688.53 736.78 700.58 719.57 C 709.04 707.65 712.86 692.61 710.73 678.12 C 708.98 664.68 702.14 651.96 692.06 642.93 C 679.14 631.03 660.78 625.68 643.48 628.71 Z M 457.55 728.76 C 445.59 731.12 434.55 737.33 426.28 746.28 C 417.95 755.21 412.45 766.87 411.11 779.02 C 409.26 793.70 413.49 808.82 422.38 820.61 C 432.01 833.51 447.09 842.10 463.13 843.60 C 469.63 844.07 476.17 843.91 482.50 842.30 C 497.72 838.60 511.18 828.61 519.05 815.05 C 524.40 805.95 527.16 795.56 526.90 784.99 C 526.98 768.55 519.35 752.73 507.02 741.98 C 493.66 730.18 475.02 725.25 457.55 728.76 Z"/>
        <path id="p1" d="M 781.13 204.73 C 784.57 207.21 786.74 210.48 789.05 213.95 C 797.15 226.41 800.24 241.95 797.35 256.55 C 794.47 271.32 785.70 284.76 773.28 293.28 C 760.69 302.00 744.76 305.56 729.69 302.62 C 718.47 300.55 707.68 295.08 699.65 286.94 C 702.05 283.91 704.80 281.25 707.56 278.56 C 728.46 257.79 749.23 236.89 770.11 216.11 C 773.93 212.38 777.00 208.14 781.13 204.73 Z"/>
        <path id="p2" d="M 491.38 224.45 C 510.13 221.51 529.73 228.52 542.54 242.46 C 550.84 251.38 556.27 262.88 557.64 275.01 C 559.74 291.28 554.34 308.22 543.43 320.44 C 530.42 335.23 509.92 342.65 490.46 339.30 C 471.59 336.28 454.85 323.38 447.03 305.97 C 438.47 287.76 440.55 265.51 452.04 249.05 C 461.05 235.82 475.56 226.78 491.38 224.45 Z"/>
        <path id="p3" d="M 258.31 296.24 C 278.99 293.17 300.55 302.27 312.89 319.11 C 325.73 335.97 328.07 359.70 318.75 378.74 C 311.98 393.09 299.16 404.32 284.03 409.10 C 276.05 411.78 267.61 412.38 259.27 411.48 C 244.33 409.68 230.28 401.86 220.92 390.07 C 212.82 379.98 208.05 366.98 208.17 354.00 C 207.90 337.37 215.53 320.94 228.04 310.06 C 236.58 302.56 247.05 297.80 258.31 296.24 Z"/>
        <path id="p4" d="M 671.35 313.85 C 668.74 316.74 666.00 319.49 663.20 322.20 C 642.03 343.36 620.87 364.54 599.69 385.68 C 596.18 389.12 592.95 392.76 589.17 395.91 C 581.08 387.77 575.55 377.17 573.45 365.88 C 570.99 352.90 573.16 339.07 579.46 327.45 C 586.50 314.40 598.64 304.25 612.79 299.75 C 632.59 293.10 656.97 298.46 671.35 313.85 Z"/>
        <path id="p5" d="M 785.96 360.30 C 800.98 359.83 816.11 365.66 827.05 375.94 C 838.76 386.71 845.63 402.58 845.62 418.48 C 832.07 418.52 818.52 418.47 804.96 418.48 C 779.73 417.83 754.49 418.51 729.30 418.50 C 729.07 399.27 739.17 380.75 755.13 370.13 C 764.19 364.06 775.05 360.51 785.96 360.30 Z"/>
        <path id="p6" d="M 402.33 368.37 C 420.24 365.44 439.02 371.32 451.99 384.02 C 463.28 394.88 469.93 410.30 469.73 426.00 C 469.84 435.33 467.28 444.73 462.96 452.96 C 455.12 467.75 440.74 478.90 424.34 482.43 C 414.81 484.59 404.83 484.31 395.45 481.57 C 379.93 477.15 366.63 465.95 359.50 451.49 C 349.94 432.74 351.90 409.21 364.17 392.17 C 373.06 379.58 387.10 370.78 402.33 368.37 Z"/>
        <path id="p7" d="M 201.43 449.56 C 219.41 446.03 238.51 451.65 251.85 464.15 C 262.39 473.92 269.13 487.63 270.24 501.98 C 271.32 515.28 267.65 529.02 259.92 539.92 C 250.69 553.26 235.63 562.38 219.53 564.36 C 211.80 565.24 203.94 564.76 196.45 562.59 C 183.04 558.85 171.22 550.02 163.59 538.40 C 157.96 529.72 154.50 519.41 154.18 509.04 C 153.64 496.52 157.34 483.80 164.55 473.55 C 173.14 461.16 186.60 452.33 201.43 449.56 Z"/>
        <path id="p8" d="M 619.80 528.06 C 625.54 527.64 631.25 527.85 637.00 527.82 C 664.67 527.82 692.33 527.82 720.00 527.82 C 725.31 527.84 730.57 527.61 735.87 528.14 C 736.12 549.76 723.19 570.31 703.91 579.91 C 690.44 586.74 674.11 588.08 659.77 583.27 C 636.41 575.77 619.12 552.78 619.80 528.06 Z"/>
        <path id="p9" d="M 430.46 570.69 C 446.31 567.55 463.07 571.35 476.05 580.95 C 488.34 589.91 496.71 603.79 499.14 618.79 C 500.84 630.42 499.25 642.43 494.00 652.99 C 488.13 665.17 477.98 675.09 465.65 680.66 C 455.39 685.42 443.81 686.89 432.65 685.19 C 420.95 683.27 409.92 677.87 401.37 669.64 C 390.20 658.93 383.45 643.51 383.52 628.00 C 383.37 615.24 387.70 602.57 395.48 592.48 C 403.97 581.25 416.68 573.44 430.46 570.69 Z"/>
        <path id="p10" d="M 264.32 628.26 C 283.39 625.98 302.97 634.09 315.19 648.82 C 323.75 659.08 328.91 672.58 328.67 686.00 C 328.92 699.91 323.45 713.88 314.29 724.29 C 304.40 735.63 290.04 742.86 275.03 744.00 C 253.75 745.80 232.44 734.89 221.25 716.75 C 213.58 704.59 210.75 689.49 213.43 675.38 C 215.75 662.87 222.29 651.25 231.80 642.79 C 240.80 634.67 252.26 629.52 264.32 628.26 Z"/>
        <path id="p11" d="M 643.48 628.71 C 660.78 625.68 679.14 631.03 692.06 642.93 C 702.14 651.96 708.98 664.68 710.73 678.12 C 712.86 692.61 709.04 707.65 700.58 719.57 C 688.53 736.78 667.05 746.45 646.18 743.74 C 630.93 741.96 616.69 733.82 607.29 721.70 C 599.40 711.56 594.88 698.90 595.10 686.01 C 594.87 672.97 599.60 659.90 607.76 649.77 C 616.56 638.66 629.53 631.09 643.48 628.71 Z"/>
        <path id="p12" d="M 457.55 728.76 C 475.02 725.25 493.66 730.18 507.02 741.98 C 519.35 752.73 526.98 768.55 526.90 784.99 C 527.16 795.56 524.40 805.95 519.05 815.05 C 511.18 828.61 497.72 838.60 482.50 842.30 C 476.17 843.91 469.63 844.07 463.13 843.60 C 447.09 842.10 432.01 833.51 422.38 820.61 C 413.49 808.82 409.26 793.70 411.11 779.02 C 412.45 766.87 417.95 755.21 426.28 746.28 C 434.55 737.33 445.59 731.12 457.55 728.76 Z"/>
    </defs>
    <g stroke-width="10pt">
        <use stroke="#dd2a4f" xlink:href="#p1"/>
        <use stroke="#dd2a4f" xlink:href="#p2"/>
        <use stroke="#dd2a4f" xlink:href="#p3"/>
        <use stroke="#dd2a4f" xlink:href="#p4"/>
        <use stroke="#dd2a4f" xlink:href="#p5"/>
        <use stroke="#dd2a4f" xlink:href="#p6"/>
        <use stroke="#dd2a4f" xlink:href="#p7"/>
        <use stroke="#dd2a4f" xlink:href="#p8"/>
        <use stroke="#dd2a4f" xlink:href="#p9"/>
        <use stroke="#dd2a4f" xlink:href="#p10"/>
        <use stroke="#dd2a4f" xlink:href="#p11"/>
        <use stroke="#dd2a4f" xlink:href="#p12"/>
    </g>
    <g>
        <use fill="#dd2a4f" xlink:href="#p1"/>
        <use fill="#dd2a4f" xlink:href="#p2"/>
        <use fill="#dd2a4f" xlink:href="#p3"/>
        <use fill="#dd2a4f" xlink:href="#p4"/>
        <use fill="#dd2a4f" xlink:href="#p5"/>
        <use fill="#dd2a4f" xlink:href="#p6"/>
        <use fill="#dd2a4f" xlink:href="#p7"/>
        <use fill="#dd2a4f" xlink:href="#p8"/>
        <use fill="#dd2a4f" xlink:href="#p9"/>
        <use fill="#dd2a4f" xlink:href="#p10"/>
        <use fill="#dd2a4f" xlink:href="#p11"/>
        <use fill="#dd2a4f" xlink:href="#p12"/>
    </g>
</svg>
