<?xml version="1.0" encoding="UTF-8" standalone="no"?>
<!DOCTYPE svg PUBLIC "-//W3C//DTD SVG 1.1//EN" "http://www.w3.org/Graphics/SVG/1.1/DTD/svg11.dtd">
<svg xmlns="http://www.w3.org/2000/svg" xmlns:xlink="http://www.w3.org/1999/xlink" width="1024.0pt" height="1024.0pt" version="1.1" viewBox="0 0 1024 1024">
    <defs>
        <path id="p0" d="M 0.00 0.00 L 1024.00 0.00 L 1024.00 1024.00 L 0.00 1024.00 L 0.00 0.00 Z M 349.95 293.81 C 348.05 294.46 346.16 295.79 346.14 297.99 C 346.14 304.13 345.72 310.69 346.32 316.75 C 348.50 319.14 351.47 319.72 354.00 321.79 C 357.97 322.49 359.44 324.82 362.99 326.39 C 366.78 327.03 368.93 324.20 372.54 323.45 C 374.99 320.95 378.15 320.01 381.00 318.10 C 382.83 317.37 383.04 315.77 383.05 314.00 C 382.92 308.11 383.42 302.23 382.51 296.46 C 378.47 292.33 374.66 292.04 370.54 288.55 C 368.51 288.07 368.14 286.12 366.00 286.28 C 363.62 284.17 361.34 287.01 358.94 287.94 C 356.50 291.07 352.74 291.19 349.95 293.81 Z M 343.46 568.51 C 344.80 568.66 346.20 568.65 347.54 568.51 C 350.17 564.98 353.96 565.60 356.61 562.61 C 358.18 561.44 362.12 560.42 361.88 558.01 C 361.84 552.52 362.23 546.89 361.50 541.44 C 359.63 539.42 356.54 538.57 354.54 536.55 C 350.04 535.70 348.44 531.03 343.45 532.49 C 340.85 534.90 337.05 536.33 334.11 538.27 C 332.23 539.39 328.99 540.33 329.18 542.99 C 329.11 548.31 329.01 553.66 329.17 558.98 C 329.31 560.33 331.41 560.93 332.33 561.64 C 333.70 562.52 334.12 563.86 336.00 563.72 C 337.27 564.05 337.82 565.31 339.02 565.66 C 340.98 565.95 342.07 567.28 343.46 568.51 Z M 574.47 635.56 C 575.86 637.77 577.90 637.90 579.91 639.20 C 584.44 642.61 587.48 643.94 592.48 646.48 C 595.81 647.29 597.85 643.59 600.47 642.52 C 603.68 640.37 607.57 638.90 610.67 636.67 C 612.56 635.37 611.83 632.97 611.99 631.00 C 611.85 625.83 612.35 620.52 611.51 615.43 C 609.81 612.95 605.99 612.35 604.05 609.94 C 602.16 608.83 600.10 607.87 598.11 606.92 C 596.78 605.63 594.43 603.91 592.47 604.51 C 589.72 605.91 586.62 607.46 583.96 608.95 C 580.87 612.36 576.05 612.38 574.50 616.47 C 574.34 622.80 574.39 629.22 574.47 635.56 Z M 581.88 797.14 C 579.00 796.19 575.15 792.32 572.23 794.06 C 570.70 794.68 569.76 795.39 568.52 796.42 C 565.03 798.06 560.57 799.99 557.47 802.46 C 556.45 804.31 556.80 806.92 556.68 809.00 C 556.75 813.33 556.55 817.69 556.74 822.01 C 556.97 824.01 559.71 824.80 561.26 825.62 C 564.46 827.19 568.46 828.55 571.09 830.94 C 572.45 831.31 573.61 832.67 575.01 832.40 C 577.46 831.10 579.81 829.95 582.01 828.28 C 584.58 828.07 585.82 826.13 588.13 825.30 C 589.85 824.32 592.22 823.38 592.07 821.00 C 592.05 815.37 592.37 809.61 591.82 804.01 C 591.39 801.77 590.28 801.27 588.24 800.70 C 586.09 798.61 584.48 798.29 581.88 797.14 Z"/>
        <path id="p1" d="M 366.00 286.28 C 368.14 286.12 368.51 288.07 370.54 288.55 C 374.66 292.04 378.47 292.33 382.51 296.46 C 383.42 302.23 382.92 308.11 383.05 314.00 C 383.04 315.77 382.83 317.37 381.00 318.10 C 378.15 320.01 374.99 320.95 372.54 323.45 C 368.93 324.20 366.78 327.03 362.99 326.39 C 359.44 324.82 357.97 322.49 354.00 321.79 C 351.47 319.72 348.50 319.14 346.32 316.75 C 345.72 310.69 346.14 304.13 346.14 297.99 C 346.16 295.79 348.05 294.46 349.95 293.81 C 352.74 291.19 356.50 291.07 358.94 287.94 C 361.34 287.01 363.62 284.17 366.00 286.28 Z"/>
        <path id="p2" d="M 343.45 532.49 C 348.44 531.03 350.04 535.70 354.54 536.55 C 356.54 538.57 359.63 539.42 361.50 541.44 C 362.23 546.89 361.84 552.52 361.88 558.01 C 362.12 560.42 358.18 561.44 356.61 562.61 C 353.96 565.60 350.17 564.98 347.54 568.51 C 346.20 568.65 344.80 568.66 343.46 568.51 C 342.07 567.28 340.98 565.95 339.02 565.66 C 337.82 565.31 337.27 564.05 336.00 563.72 C 334.12 563.86 333.70 562.52 332.33 561.64 C 331.41 560.93 329.31 560.33 329.17 558.98 C 329.01 553.66 329.11 548.31 329.18 542.99 C 328.99 540.33 332.23 539.39 334.11 538.27 C 337.05 536.33 340.85 534.90 343.45 532.49 Z"/>
        <path id="p3" d="M 592.47 604.51 C 594.43 603.91 596.78 605.63 598.11 606.92 C 600.10 607.87 602.16 608.83 604.05 609.94 C 605.99 612.35 609.81 612.95 611.51 615.43 C 612.35 620.52 611.85 625.83 611.99 631.00 C 611.83 632.97 612.56 635.37 610.67 636.67 C 607.57 638.90 603.68 640.37 600.47 642.52 C 597.85 643.59 595.81 647.29 592.48 646.48 C 587.48 643.94 584.44 642.61 579.91 639.20 C 577.90 637.90 575.86 637.77 574.47 635.56 C 574.39 629.22 574.34 622.80 574.50 616.47 C 576.05 612.38 580.87 612.36 583.96 608.95 C 586.62 607.46 589.72 605.91 592.47 604.51 Z"/>
        <path id="p4" d="M 572.23 794.06 C 575.15 792.32 579.00 796.19 581.88 797.14 C 584.48 798.29 586.09 798.61 588.24 800.70 C 590.28 801.27 591.39 801.77 591.82 804.01 C 592.37 809.61 592.05 815.37 592.07 821.00 C 592.22 823.38 589.85 824.32 588.13 825.30 C 585.82 826.13 584.58 828.07 582.01 828.28 C 579.81 829.95 577.46 831.10 575.01 832.40 C 573.61 832.67 572.45 831.31 571.09 830.94 C 568.46 828.55 564.46 827.19 561.26 825.62 C 559.71 824.80 556.97 824.01 556.74 822.01 C 556.55 817.69 556.75 813.33 556.68 809.00 C 556.80 806.92 556.45 804.31 557.47 802.46 C 560.57 799.99 565.03 798.06 568.52 796.42 C 569.76 795.39 570.70 794.68 572.23 794.06 Z"/>
    </defs>
    <g stroke-width="10pt">
        <use stroke="#79d109" xlink:href="#p1"/>
        <use stroke="#79d109" xlink:href="#p2"/>
        <use stroke="#79d109" xlink:href="#p3"/>
        <use stroke="#79d109" xlink:href="#p4"/>
    </g>
    <g>
        <use fill="#79d109" xlink:href="#p1"/>
        <use fill="#79d109" xlink:href="#p2"/>
        <use fill="#79d109" xlink:href="#p3"/>
        <use fill="#79d109" xlink:href="#p4"/>
    </g>
</svg>
