<?xml version="1.0" encoding="UTF-8" standalone="no"?>
<!DOCTYPE svg PUBLIC "-//W3C//DTD SVG 1.1//EN" "http://www.w3.org/Graphics/SVG/1.1/DTD/svg11.dtd">
<svg xmlns="http://www.w3.org/2000/svg" xmlns:xlink="http://www.w3.org/1999/xlink" width="1024.0pt" height="1024.0pt" version="1.1" viewBox="0 0 1024 1024">
    <defs>
        <path id="p0" d="M 0.00 0.00 L 1024.00 0.00 L 1024.00 1024.00 L 0.00 1024.00 L 0.00 0.00 Z M 287.48 277.77 C 292.34 281.32 297.85 283.80 302.91 287.09 C 305.39 288.48 307.80 290.53 310.83 289.71 C 313.14 288.90 315.26 287.40 317.36 286.15 C 322.03 283.20 326.92 280.73 331.45 277.55 C 331.60 270.68 331.76 263.78 331.44 256.92 C 331.17 254.57 331.33 252.33 329.05 250.97 C 324.35 247.95 319.41 245.31 314.67 242.35 C 312.15 240.95 309.73 239.21 306.82 240.81 C 301.69 243.61 296.76 246.78 291.67 249.66 C 289.91 250.88 287.75 251.67 287.68 254.14 C 287.24 261.99 287.41 269.91 287.48 277.77 Z M 646.40 362.61 C 645.38 369.39 645.51 377.04 645.94 383.89 C 647.39 386.86 652.24 388.18 654.90 390.07 C 658.08 391.61 662.14 395.53 665.82 394.64 C 669.22 393.43 672.26 391.06 675.42 389.32 C 677.98 387.72 681.16 386.40 683.20 384.14 C 683.68 377.12 683.98 369.46 682.56 362.53 C 677.04 359.43 671.73 355.85 666.09 352.98 C 664.09 351.88 662.73 353.14 660.95 353.98 C 656.07 356.80 651.26 359.74 646.40 362.61 Z M 499.14 412.79 C 502.98 414.89 506.57 417.50 510.50 419.40 C 513.62 420.75 515.86 418.85 518.44 417.38 C 523.11 414.33 528.07 411.76 532.73 408.72 C 535.07 407.57 534.30 404.20 534.55 402.03 C 534.34 395.63 535.16 388.57 533.61 382.35 C 529.96 378.76 524.50 376.68 520.24 373.77 C 517.69 372.39 514.22 369.35 511.18 370.30 C 507.63 371.80 504.43 374.21 501.07 376.10 C 498.03 378.01 494.57 379.57 491.86 381.94 C 490.71 386.07 490.79 390.73 490.66 395.00 C 490.74 398.94 490.33 403.09 491.03 406.97 C 492.29 409.81 496.67 411.09 499.14 412.79 Z M 122.66 564.90 C 122.13 573.20 121.35 581.73 122.15 590.01 C 122.11 592.50 124.79 593.26 126.52 594.38 C 132.00 597.12 137.03 600.68 142.48 603.42 C 145.90 604.81 148.37 602.81 151.18 601.18 C 156.52 597.73 162.19 594.88 167.47 591.34 C 167.64 583.58 167.94 575.72 167.31 567.98 C 167.18 566.24 166.65 564.87 165.10 563.92 C 160.22 560.73 155.02 558.02 150.05 554.96 C 147.50 553.70 145.24 551.58 142.37 553.35 C 135.69 556.99 129.21 561.03 122.66 564.90 Z M 310.33 575.63 C 309.18 581.55 309.65 587.85 309.47 594.00 C 309.54 596.93 309.19 600.17 309.98 603.00 C 314.92 606.51 320.62 608.94 325.66 612.37 C 328.36 613.79 331.54 616.70 334.68 614.70 C 341.36 611.03 347.71 606.74 354.43 603.10 C 355.99 594.33 355.42 584.78 354.09 576.01 C 349.29 572.36 343.66 569.73 338.59 566.42 C 335.68 564.82 332.74 562.26 329.36 564.36 C 322.97 568.02 316.72 571.96 310.33 575.63 Z M 559.51 714.53 C 558.05 721.77 558.76 729.56 558.52 737.00 C 558.72 739.50 557.93 742.90 560.49 744.42 C 564.03 746.69 567.88 748.45 571.46 750.68 C 574.65 752.43 577.64 754.68 580.98 756.14 C 584.16 757.51 586.96 755.17 589.60 753.69 C 595.45 749.92 601.74 746.80 607.42 742.79 C 607.48 733.48 608.32 723.66 606.51 714.50 C 600.07 710.58 593.56 706.76 587.06 702.95 C 584.80 701.65 582.66 700.82 580.22 702.27 C 573.24 706.20 566.34 710.33 559.51 714.53 Z M 296.47 786.41 C 295.58 793.93 295.67 801.45 295.72 809.01 C 295.86 810.84 295.70 813.34 297.57 814.37 C 302.54 817.46 307.78 820.10 312.72 823.25 C 315.44 824.74 317.95 826.84 321.14 825.12 C 326.65 822.01 331.94 818.50 337.49 815.44 C 339.23 814.20 341.53 813.56 341.37 811.02 C 341.59 804.30 341.71 797.47 341.24 790.77 C 340.92 789.23 340.97 786.56 339.47 785.68 C 336.28 783.44 332.77 781.67 329.45 779.63 C 325.54 777.42 322.41 774.87 318.04 773.63 C 310.73 777.59 303.48 781.95 296.47 786.41 Z"/>
        <path id="p1" d="M 314.67 242.35 C 319.41 245.31 324.35 247.95 329.05 250.97 C 331.33 252.33 331.17 254.57 331.44 256.92 C 331.76 263.78 331.60 270.68 331.45 277.55 C 326.92 280.73 322.03 283.20 317.36 286.15 C 315.26 287.40 313.14 288.90 310.83 289.71 C 307.80 290.53 305.39 288.48 302.91 287.09 C 297.85 283.80 292.34 281.32 287.48 277.77 C 287.41 269.91 287.24 261.99 287.68 254.14 C 287.75 251.67 289.91 250.88 291.67 249.66 C 296.76 246.78 301.69 243.61 306.82 240.81 C 309.73 239.21 312.15 240.95 314.67 242.35 Z"/>
        <path id="p2" d="M 666.09 352.98 C 671.73 355.85 677.04 359.43 682.56 362.53 C 683.98 369.46 683.68 377.12 683.20 384.14 C 681.16 386.40 677.98 387.72 675.42 389.32 C 672.26 391.06 669.22 393.43 665.82 394.64 C 662.14 395.53 658.08 391.61 654.90 390.07 C 652.24 388.18 647.39 386.86 645.94 383.89 C 645.51 377.04 645.38 369.39 646.40 362.61 C 651.26 359.74 656.07 356.80 660.95 353.98 C 662.73 353.14 664.09 351.88 666.09 352.98 Z"/>
        <path id="p3" d="M 511.18 370.30 C 514.22 369.35 517.69 372.39 520.24 373.77 C 524.50 376.68 529.96 378.76 533.61 382.35 C 535.16 388.57 534.34 395.63 534.55 402.03 C 534.30 404.20 535.07 407.57 532.73 408.72 C 528.07 411.76 523.11 414.33 518.44 417.38 C 515.86 418.85 513.62 420.75 510.50 419.40 C 506.57 417.50 502.98 414.89 499.14 412.79 C 496.67 411.09 492.29 409.81 491.03 406.97 C 490.33 403.09 490.74 398.94 490.66 395.00 C 490.79 390.73 490.71 386.07 491.86 381.94 C 494.57 379.57 498.03 378.01 501.07 376.10 C 504.43 374.21 507.63 371.80 511.18 370.30 Z"/>
        <path id="p4" d="M 150.05 554.96 C 155.02 558.02 160.22 560.73 165.10 563.92 C 166.65 564.87 167.18 566.24 167.31 567.98 C 167.94 575.72 167.64 583.58 167.47 591.34 C 162.19 594.88 156.52 597.73 151.18 601.18 C 148.37 602.81 145.90 604.81 142.48 603.42 C 137.03 600.68 132.00 597.12 126.52 594.38 C 124.79 593.26 122.11 592.50 122.15 590.01 C 121.35 581.73 122.13 573.20 122.66 564.90 C 129.21 561.03 135.69 556.99 142.37 553.35 C 145.24 551.58 147.50 553.70 150.05 554.96 Z"/>
        <path id="p5" d="M 338.59 566.42 C 343.66 569.73 349.29 572.36 354.09 576.01 C 355.42 584.78 355.99 594.33 354.43 603.10 C 347.71 606.74 341.36 611.03 334.68 614.70 C 331.54 616.70 328.36 613.79 325.66 612.37 C 320.62 608.94 314.92 606.51 309.98 603.00 C 309.19 600.17 309.54 596.93 309.47 594.00 C 309.65 587.85 309.18 581.55 310.33 575.63 C 316.72 571.96 322.97 568.02 329.36 564.36 C 332.74 562.26 335.68 564.82 338.59 566.42 Z"/>
        <path id="p6" d="M 587.06 702.95 C 593.56 706.76 600.07 710.58 606.51 714.50 C 608.32 723.66 607.48 733.48 607.42 742.79 C 601.74 746.80 595.45 749.92 589.60 753.69 C 586.96 755.17 584.16 757.51 580.98 756.14 C 577.64 754.68 574.65 752.43 571.46 750.68 C 567.88 748.45 564.03 746.69 560.49 744.42 C 557.93 742.90 558.72 739.50 558.52 737.00 C 558.76 729.56 558.05 721.77 559.51 714.53 C 566.34 710.33 573.24 706.20 580.22 702.27 C 582.66 700.82 584.80 701.65 587.06 702.95 Z"/>
        <path id="p7" d="M 318.04 773.63 C 322.41 774.87 325.54 777.42 329.45 779.63 C 332.77 781.67 336.28 783.44 339.47 785.68 C 340.97 786.56 340.92 789.23 341.24 790.77 C 341.71 797.47 341.59 804.30 341.37 811.02 C 341.53 813.56 339.23 814.20 337.49 815.44 C 331.94 818.50 326.65 822.01 321.14 825.12 C 317.95 826.84 315.44 824.74 312.72 823.25 C 307.78 820.10 302.54 817.46 297.57 814.37 C 295.70 813.34 295.86 810.84 295.72 809.01 C 295.67 801.45 295.58 793.93 296.47 786.41 C 303.48 781.95 310.73 777.59 318.04 773.63 Z"/>
    </defs>
    <g stroke-width="10pt">
        <use stroke="#f9c501" xlink:href="#p1"/>
        <use stroke="#f9c501" xlink:href="#p2"/>
        <use stroke="#f9c501" xlink:href="#p3"/>
        <use stroke="#f9c501" xlink:href="#p4"/>
        <use stroke="#f9c501" xlink:href="#p5"/>
        <use stroke="#f9c501" xlink:href="#p6"/>
        <use stroke="#f9c501" xlink:href="#p7"/>
    </g>
    <g>
        <use fill="#f9c501" xlink:href="#p1"/>
        <use fill="#f9c501" xlink:href="#p2"/>
        <use fill="#f9c501" xlink:href="#p3"/>
        <use fill="#f9c501" xlink:href="#p4"/>
        <use fill="#f9c501" xlink:href="#p5"/>
        <use fill="#f9c501" xlink:href="#p6"/>
        <use fill="#f9c501" xlink:href="#p7"/>
    </g>
</svg>
