<?xml version="1.0" encoding="UTF-8" standalone="no"?>
<!DOCTYPE svg PUBLIC "-//W3C//DTD SVG 1.1//EN" "http://www.w3.org/Graphics/SVG/1.1/DTD/svg11.dtd">
<svg xmlns="http://www.w3.org/2000/svg" xmlns:xlink="http://www.w3.org/1999/xlink" width="1024.0pt" height="1024.0pt" version="1.1" viewBox="0 0 1024 1024">
    <defs>
        <path id="p0" d="M 0.00 0.00 L 1024.00 0.00 L 1024.00 1024.00 L 0.00 1024.00 L 0.00 0.00 Z M 820.08 527.48 C 793.39 527.40 766.68 527.48 739.99 527.43 C 737.89 527.41 736.11 526.70 734.03 526.42 C 731.03 526.26 727.96 526.73 724.96 526.51 C 723.28 526.33 721.74 525.67 720.03 525.60 C 686.40 525.62 652.66 525.48 619.00 525.53 C 613.84 525.17 609.21 527.46 604.02 527.38 C 555.61 527.43 507.18 527.56 458.77 527.35 C 459.21 526.29 459.77 525.34 460.46 524.50 C 487.15 497.76 513.75 471.19 540.45 444.47 C 549.32 435.55 558.22 426.66 567.13 417.78 C 570.42 418.17 573.69 418.26 577.00 418.20 C 603.82 418.17 630.93 418.22 657.73 418.18 C 657.74 425.09 657.75 431.99 657.72 438.90 C 657.68 448.93 657.72 458.97 657.72 469.01 C 657.72 475.54 660.60 482.15 665.51 486.48 C 670.55 490.75 677.43 493.08 684.01 491.89 C 694.66 490.54 703.53 480.83 703.60 470.03 C 703.69 452.77 703.50 435.50 703.72 418.24 C 707.57 418.29 711.24 418.15 715.03 418.98 C 719.71 420.08 724.28 419.05 729.00 420.01 C 737.03 421.42 744.38 419.67 752.24 419.56 C 752.36 426.02 752.26 432.47 752.31 438.93 C 752.76 446.76 750.88 455.63 754.71 462.46 C 758.14 468.95 764.55 473.95 771.99 474.61 C 776.43 474.91 780.89 474.90 784.96 472.86 C 790.46 470.11 795.19 465.07 797.02 459.14 C 798.89 452.89 798.10 445.42 798.23 438.88 C 798.25 432.67 798.12 426.44 798.31 420.22 L 798.59 419.38 C 809.40 419.42 820.20 419.46 831.00 419.42 C 836.07 419.09 840.96 421.87 846.28 419.73 C 849.73 417.79 853.15 418.46 856.99 418.22 C 881.21 418.11 905.48 418.30 929.69 418.13 C 934.46 417.75 939.22 417.89 944.00 417.88 C 962.00 417.84 980.02 417.94 998.02 417.84 C 1006.84 417.85 1014.56 409.75 1014.49 401.01 C 1011.67 315.39 983.24 231.07 933.91 161.05 C 923.45 146.08 912.00 131.79 899.80 118.20 C 897.17 115.31 895.03 112.47 891.46 110.66 C 885.91 107.62 878.80 108.06 873.60 111.63 C 871.71 112.98 870.06 114.79 868.41 116.42 C 853.40 131.41 838.41 146.42 823.39 161.40 C 813.51 171.18 803.69 181.04 793.86 190.86 C 788.88 195.73 784.52 200.65 778.67 204.60 C 776.58 205.99 774.80 207.60 773.46 209.73 C 772.95 209.29 772.43 208.85 771.92 208.41 C 765.39 202.49 759.25 196.19 752.41 190.61 C 690.75 136.37 614.00 99.66 533.00 86.00 C 465.91 74.54 396.07 78.45 330.75 97.66 C 253.27 120.24 182.44 164.43 127.77 223.77 C 79.12 276.34 43.34 340.64 24.63 409.80 C 14.95 445.35 9.69 482.16 9.12 519.00 C 8.77 525.05 8.77 530.95 9.13 536.99 C 10.34 605.81 27.71 674.24 59.65 735.22 C 98.50 809.91 158.94 873.05 231.83 915.17 C 288.26 948.02 351.96 968.09 416.99 973.70 C 464.10 977.90 511.94 974.67 558.03 964.07 C 630.95 947.40 699.31 911.91 755.10 862.12 C 812.74 810.84 856.87 744.72 881.56 671.59 C 894.50 633.69 902.15 593.97 904.49 554.00 C 904.59 549.65 905.24 544.98 904.40 540.70 C 902.64 533.32 895.65 527.57 888.00 527.54 C 865.37 527.46 842.72 527.58 820.08 527.48 Z"/>
        <path id="p1" d="M 533.00 86.00 C 614.00 99.66 690.75 136.37 752.41 190.61 C 759.25 196.19 765.39 202.49 771.92 208.41 C 768.11 214.72 762.49 220.18 756.79 224.81 C 751.94 229.06 748.00 234.03 742.62 237.71 C 735.41 242.69 729.01 248.65 723.63 255.57 C 720.07 260.16 716.41 264.58 711.90 268.28 C 707.01 266.04 704.47 262.16 700.30 258.75 C 697.34 256.36 694.74 253.63 692.04 250.96 C 679.10 239.61 665.12 229.62 650.56 220.45 C 627.66 205.59 602.16 193.97 576.55 184.62 C 543.60 173.43 508.79 166.43 474.00 165.16 C 462.83 164.27 451.16 164.20 440.01 165.25 C 409.20 166.18 378.39 171.99 348.94 180.99 C 314.05 191.87 280.95 208.14 250.84 228.83 C 222.30 248.43 197.01 272.32 175.00 299.00 C 160.96 316.28 148.67 335.14 137.76 354.54 C 129.82 369.94 122.36 385.20 116.60 401.58 C 108.93 422.16 102.99 443.48 99.45 465.17 C 97.49 476.03 95.98 486.96 95.38 497.99 C 94.03 508.67 94.29 519.25 94.23 530.00 C 94.34 536.42 94.09 542.78 94.66 549.19 C 96.29 573.11 99.81 596.82 106.00 620.00 C 122.97 684.92 158.53 744.65 207.25 790.75 C 249.46 830.87 301.40 860.62 357.43 876.54 C 374.30 880.75 390.74 884.90 408.02 887.10 C 435.20 890.79 462.69 891.39 490.02 889.00 C 543.44 884.41 595.80 867.20 641.93 839.93 C 694.84 808.57 739.60 763.75 770.60 710.60 C 803.11 655.43 820.29 591.49 820.08 527.48 C 842.72 527.58 865.37 527.46 888.00 527.54 C 895.65 527.57 902.64 533.32 904.40 540.70 C 905.24 544.98 904.59 549.65 904.49 554.00 C 902.15 593.97 894.50 633.69 881.56 671.59 C 856.87 744.72 812.74 810.84 755.10 862.12 C 699.31 911.91 630.95 947.40 558.03 964.07 C 511.94 974.67 464.10 977.90 416.99 973.70 C 351.96 968.09 288.26 948.02 231.83 915.17 C 158.94 873.05 98.50 809.91 59.65 735.22 C 27.71 674.24 10.34 605.81 9.13 536.99 C 8.77 530.95 8.77 525.05 9.12 519.00 C 9.69 482.16 14.95 445.35 24.63 409.80 C 43.34 340.64 79.12 276.34 127.77 223.77 C 182.44 164.43 253.27 120.24 330.75 97.66 C 396.07 78.45 465.91 74.54 533.00 86.00 Z"/>
        <path id="p2" d="M 891.46 110.66 C 895.03 112.47 897.17 115.31 899.80 118.20 C 912.00 131.79 923.45 146.08 933.91 161.05 C 983.24 231.07 1011.67 315.39 1014.49 401.01 C 1014.56 409.75 1006.84 417.85 998.02 417.84 C 980.02 417.94 962.00 417.84 944.00 417.88 C 939.22 417.89 934.46 417.75 929.69 418.13 C 930.04 352.07 911.62 286.19 877.20 229.80 C 862.10 205.01 844.06 181.79 823.39 161.40 C 838.41 146.42 853.40 131.41 868.41 116.42 C 870.06 114.79 871.71 112.98 873.60 111.63 C 878.80 108.06 885.91 107.62 891.46 110.66 Z"/>
        <path id="p3" d="M 823.39 161.40 C 844.06 181.79 862.10 205.01 877.20 229.80 C 911.62 286.19 930.04 352.07 929.69 418.13 C 905.48 418.30 881.21 418.11 856.99 418.22 C 853.15 418.46 849.73 417.79 846.28 419.73 C 840.96 421.87 836.07 419.09 831.00 419.42 C 820.20 419.46 809.40 419.42 798.59 419.38 L 798.31 420.22 C 794.65 417.72 789.31 419.44 785.00 419.20 C 774.07 418.75 763.17 419.31 752.24 419.56 C 744.38 419.67 737.03 421.42 729.00 420.01 C 724.28 419.05 719.71 420.08 715.03 418.98 C 711.24 418.15 707.57 418.29 703.72 418.24 C 703.50 435.50 703.69 452.77 703.60 470.03 C 703.53 480.83 694.66 490.54 684.01 491.89 C 677.43 493.08 670.55 490.75 665.51 486.48 C 660.60 482.15 657.72 475.54 657.72 469.01 C 657.72 458.97 657.68 448.93 657.72 438.90 C 672.87 438.69 688.04 439.02 703.18 438.75 C 703.72 431.91 703.66 424.75 703.13 417.92 C 694.77 417.55 686.37 417.90 678.00 417.78 C 671.22 417.84 664.49 417.49 657.73 418.18 C 630.93 418.22 603.82 418.17 577.00 418.20 C 573.69 418.26 570.42 418.17 567.13 417.78 C 573.11 411.53 579.30 405.49 585.44 399.41 C 586.78 398.21 587.20 396.67 587.93 395.11 C 589.29 394.07 590.83 393.31 592.12 392.15 C 616.45 367.87 639.29 345.07 663.70 320.68 C 667.33 317.52 669.88 313.48 673.79 310.69 C 676.93 308.22 679.45 305.24 682.39 302.37 C 688.24 296.55 694.19 290.89 699.39 284.45 C 702.34 280.66 706.39 278.11 709.26 274.27 C 712.13 270.38 715.93 267.66 719.20 264.17 C 724.65 258.47 728.74 252.01 734.71 246.75 C 738.12 243.69 741.90 241.23 745.46 238.38 C 749.71 234.98 753.16 230.85 757.33 227.34 C 763.39 222.30 769.33 216.49 773.46 209.73 C 774.80 207.60 776.58 205.99 778.67 204.60 C 784.52 200.65 788.88 195.73 793.86 190.86 C 803.69 181.04 813.51 171.18 823.39 161.40 Z"/>
        <path id="p4" d="M 440.01 165.25 C 451.16 164.20 462.83 164.27 474.00 165.16 C 508.79 166.43 543.60 173.43 576.55 184.62 C 602.16 193.97 627.66 205.59 650.56 220.45 C 665.12 229.62 679.10 239.61 692.04 250.96 C 694.74 253.63 697.34 256.36 700.30 258.75 C 704.47 262.16 707.01 266.04 711.90 268.28 C 716.41 264.58 720.07 260.16 723.63 255.57 C 729.01 248.65 735.41 242.69 742.62 237.71 C 748.00 234.03 751.94 229.06 756.79 224.81 C 762.49 220.18 768.11 214.72 771.92 208.41 C 772.43 208.85 772.95 209.29 773.46 209.73 C 769.33 216.49 763.39 222.30 757.33 227.34 C 753.16 230.85 749.71 234.98 745.46 238.38 C 741.90 241.23 738.12 243.69 734.71 246.75 C 728.74 252.01 724.65 258.47 719.20 264.17 C 715.93 267.66 712.13 270.38 709.26 274.27 C 706.39 278.11 702.34 280.66 699.39 284.45 C 694.19 290.89 688.24 296.55 682.39 302.37 C 679.45 305.24 676.93 308.22 673.79 310.69 C 669.88 313.48 667.33 317.52 663.70 320.68 C 639.29 345.07 616.45 367.87 592.12 392.15 C 590.83 393.31 589.29 394.07 587.93 395.11 C 587.20 396.67 586.78 398.21 585.44 399.41 C 579.30 405.49 573.11 411.53 567.13 417.78 C 558.22 426.66 549.32 435.55 540.45 444.47 C 528.41 444.08 516.41 444.59 504.38 443.73 C 509.26 438.49 514.38 433.50 519.43 428.44 C 529.52 418.19 539.54 407.94 550.02 398.09 C 556.00 392.96 561.81 387.76 566.69 381.55 C 568.79 378.76 571.94 378.75 574.61 376.65 C 577.76 374.10 580.70 371.33 583.16 368.10 C 585.55 365.00 589.43 364.06 591.99 360.98 C 595.65 356.59 599.50 352.42 602.61 347.60 C 605.63 343.08 609.94 341.19 614.23 338.19 C 617.29 336.13 618.90 333.04 621.23 330.21 C 624.68 325.98 628.55 322.19 631.75 317.72 C 633.88 314.82 635.65 311.66 637.86 308.82 C 641.29 304.46 645.88 301.93 649.79 297.79 C 656.15 291.13 662.80 284.80 669.24 278.23 C 672.24 275.19 675.48 272.50 678.06 269.05 C 674.83 266.18 671.27 263.82 667.82 261.23 C 643.33 243.73 616.67 229.39 588.65 218.39 C 554.31 205.31 518.76 196.63 481.99 194.59 C 435.11 191.54 387.70 197.35 343.09 212.14 C 297.33 227.22 254.62 251.62 218.41 283.39 C 171.30 324.35 135.14 377.66 114.54 436.59 C 103.57 467.67 97.19 500.16 94.77 533.00 C 94.56 538.39 94.72 543.80 94.66 549.19 C 94.09 542.78 94.34 536.42 94.23 530.00 C 94.29 519.25 94.03 508.67 95.38 497.99 C 95.98 486.96 97.49 476.03 99.45 465.17 C 102.99 443.48 108.93 422.16 116.60 401.58 C 122.36 385.20 129.82 369.94 137.76 354.54 C 148.67 335.14 160.96 316.28 175.00 299.00 C 197.01 272.32 222.30 248.43 250.84 228.83 C 280.95 208.14 314.05 191.87 348.94 180.99 C 378.39 171.99 409.20 166.18 440.01 165.25 Z"/>
        <path id="p5" d="M 481.99 194.59 C 518.76 196.63 554.31 205.31 588.65 218.39 C 616.67 229.39 643.33 243.73 667.82 261.23 C 671.27 263.82 674.83 266.18 678.06 269.05 C 675.48 272.50 672.24 275.19 669.24 278.23 C 662.80 284.80 656.15 291.13 649.79 297.79 C 645.88 301.93 641.29 304.46 637.86 308.82 C 635.65 311.66 633.88 314.82 631.75 317.72 C 628.55 322.19 624.68 325.98 621.23 330.21 C 618.90 333.04 617.29 336.13 614.23 338.19 C 609.94 341.19 605.63 343.08 602.61 347.60 C 599.50 352.42 595.65 356.59 591.99 360.98 C 589.43 364.06 585.55 365.00 583.16 368.10 C 580.70 371.33 577.76 374.10 574.61 376.65 C 571.94 378.75 568.79 378.76 566.69 381.55 C 561.81 387.76 556.00 392.96 550.02 398.09 C 539.54 407.94 529.52 418.19 519.43 428.44 C 514.38 433.50 509.26 438.49 504.38 443.73 C 516.41 444.59 528.41 444.08 540.45 444.47 C 513.75 471.19 487.15 497.76 460.46 524.50 C 459.77 525.34 459.21 526.29 458.77 527.35 C 507.18 527.56 555.61 527.43 604.02 527.38 C 609.21 527.46 613.84 525.17 619.00 525.53 C 652.66 525.48 686.40 525.62 720.03 525.60 C 721.74 525.67 723.28 526.33 724.96 526.51 C 727.96 526.73 731.03 526.26 734.03 526.42 C 736.11 526.70 737.89 527.41 739.99 527.43 C 766.68 527.48 793.39 527.40 820.08 527.48 C 820.29 591.49 803.11 655.43 770.60 710.60 C 739.60 763.75 694.84 808.57 641.93 839.93 C 595.80 867.20 543.44 884.41 490.02 889.00 C 462.69 891.39 435.20 890.79 408.02 887.10 C 390.74 884.90 374.30 880.75 357.43 876.54 C 301.40 860.62 249.46 830.87 207.25 790.75 C 158.53 744.65 122.97 684.92 106.00 620.00 C 99.81 596.82 96.29 573.11 94.66 549.19 C 94.72 543.80 94.56 538.39 94.77 533.00 C 97.19 500.16 103.57 467.67 114.54 436.59 C 135.14 377.66 171.30 324.35 218.41 283.39 C 254.62 251.62 297.33 227.22 343.09 212.14 C 387.70 197.35 435.11 191.54 481.99 194.59 Z"/>
        <path id="p6" d="M 657.73 418.18 C 664.49 417.49 671.22 417.84 678.00 417.78 C 686.37 417.90 694.77 417.55 703.13 417.92 C 703.66 424.75 703.72 431.91 703.18 438.75 C 688.04 439.02 672.87 438.69 657.72 438.90 C 657.75 431.99 657.74 425.09 657.73 418.18 Z"/>
        <path id="p7" d="M 785.00 419.20 C 789.31 419.44 794.65 417.72 798.31 420.22 C 798.12 426.44 798.25 432.67 798.23 438.88 C 782.93 438.83 767.61 438.77 752.31 438.93 C 752.26 432.47 752.36 426.02 752.24 419.56 C 763.17 419.31 774.07 418.75 785.00 419.20 Z"/>
        <path id="p8" d="M 752.31 438.93 C 767.61 438.77 782.93 438.83 798.23 438.88 C 798.10 445.42 798.89 452.89 797.02 459.14 C 795.19 465.07 790.46 470.11 784.96 472.86 C 780.89 474.90 776.43 474.91 771.99 474.61 C 764.55 473.95 758.14 468.95 754.71 462.46 C 750.88 455.63 752.76 446.76 752.31 438.93 Z"/>
    </defs>
    <g stroke-width="10pt">
        <use stroke="#c29674" xlink:href="#p1"/>
        <use stroke="#c29674" xlink:href="#p2"/>
        <use stroke="#fed060" xlink:href="#p3"/>
        <use stroke="#e2bb54" xlink:href="#p4"/>
        <use stroke="#fed060" xlink:href="#p5"/>
        <use stroke="#e2bb54" xlink:href="#p6"/>
        <use stroke="#e2bb54" xlink:href="#p7"/>
        <use stroke="#fed060" xlink:href="#p8"/>
    </g>
    <g>
        <use fill="#c29674" xlink:href="#p1"/>
        <use fill="#c29674" xlink:href="#p2"/>
        <use fill="#fed060" xlink:href="#p3"/>
        <use fill="#e2bb54" xlink:href="#p4"/>
        <use fill="#fed060" xlink:href="#p5"/>
        <use fill="#e2bb54" xlink:href="#p6"/>
        <use fill="#e2bb54" xlink:href="#p7"/>
        <use fill="#fed060" xlink:href="#p8"/>
    </g>
</svg>
