<?xml version="1.0" encoding="UTF-8" standalone="no"?>
<!DOCTYPE svg PUBLIC "-//W3C//DTD SVG 1.1//EN" "http://www.w3.org/Graphics/SVG/1.1/DTD/svg11.dtd">
<svg xmlns="http://www.w3.org/2000/svg" xmlns:xlink="http://www.w3.org/1999/xlink" width="1024.0pt" height="1024.0pt" version="1.1" viewBox="0 0 1024 1024">
    <defs>
        <path id="p0" d="M 0.00 0.00 L 1024.00 0.00 L 1024.00 1024.00 L 0.00 1024.00 L 0.00 0.00 Z M 821.33 203.41 C 812.95 206.01 806.84 214.18 807.17 223.03 C 807.02 232.75 814.61 241.36 824.12 242.90 C 833.94 244.66 843.89 238.47 846.89 229.02 C 849.57 220.73 846.56 211.53 839.53 206.42 C 834.39 202.56 827.44 201.39 821.33 203.41 Z M 422.43 303.67 C 411.82 305.78 403.52 315.10 402.76 325.91 C 401.96 335.27 406.93 344.35 414.98 349.06 C 422.53 353.53 432.35 353.49 439.86 348.96 C 447.46 344.49 452.35 335.85 451.84 326.99 C 451.85 317.53 445.47 308.72 436.85 305.10 C 432.36 303.15 427.22 302.77 422.43 303.67 Z M 303.48 473.65 C 296.34 476.00 290.42 481.95 288.29 489.19 C 286.25 496.01 287.43 503.64 291.62 509.42 C 297.46 517.70 308.44 521.49 318.08 518.13 C 326.81 515.29 333.24 507.18 334.06 498.04 C 334.88 489.60 330.72 481.00 323.60 476.38 C 317.70 472.43 310.24 471.46 303.48 473.65 Z M 548.51 541.80 C 536.69 544.36 528.30 556.01 529.84 568.06 C 531.04 579.73 541.24 589.14 552.96 589.45 C 563.55 589.93 573.58 582.84 576.78 572.77 C 579.77 563.73 576.92 553.49 569.75 547.25 C 563.99 542.10 556.04 540.12 548.51 541.80 Z M 727.45 616.60 C 718.46 619.54 711.98 628.50 712.34 638.01 C 712.39 648.84 721.19 658.43 731.95 659.47 C 741.37 660.60 750.70 655.21 754.54 646.56 C 758.32 638.34 756.43 628.30 749.99 621.96 C 744.18 616.09 735.29 613.96 727.45 616.60 Z M 187.45 655.66 C 176.06 657.69 167.64 668.49 168.59 680.06 C 169.36 692.45 180.63 702.33 193.03 701.48 C 205.56 700.85 215.69 689.56 214.74 677.00 C 214.09 663.32 200.90 653.04 187.45 655.66 Z"/>
        <path id="p1" d="M 821.33 203.41 C 827.44 201.39 834.39 202.56 839.53 206.42 C 846.56 211.53 849.57 220.73 846.89 229.02 C 843.89 238.47 833.94 244.66 824.12 242.90 C 814.61 241.36 807.02 232.75 807.17 223.03 C 806.84 214.18 812.95 206.01 821.33 203.41 Z"/>
        <path id="p2" d="M 422.43 303.67 C 427.22 302.77 432.36 303.15 436.85 305.10 C 445.47 308.72 451.85 317.53 451.84 326.99 C 452.35 335.85 447.46 344.49 439.86 348.96 C 432.35 353.49 422.53 353.53 414.98 349.06 C 406.93 344.35 401.96 335.27 402.76 325.91 C 403.52 315.10 411.82 305.78 422.43 303.67 Z"/>
        <path id="p3" d="M 303.48 473.65 C 310.24 471.46 317.70 472.43 323.60 476.38 C 330.72 481.00 334.88 489.60 334.06 498.04 C 333.24 507.18 326.81 515.29 318.08 518.13 C 308.44 521.49 297.46 517.70 291.62 509.42 C 287.43 503.64 286.25 496.01 288.29 489.19 C 290.42 481.95 296.34 476.00 303.48 473.65 Z"/>
        <path id="p4" d="M 548.51 541.80 C 556.04 540.12 563.99 542.10 569.75 547.25 C 576.92 553.49 579.77 563.73 576.78 572.77 C 573.58 582.84 563.55 589.93 552.96 589.45 C 541.24 589.14 531.04 579.73 529.84 568.06 C 528.30 556.01 536.69 544.36 548.51 541.80 Z"/>
        <path id="p5" d="M 727.45 616.60 C 735.29 613.96 744.18 616.09 749.99 621.96 C 756.43 628.30 758.32 638.34 754.54 646.56 C 750.70 655.21 741.37 660.60 731.95 659.47 C 721.19 658.43 712.39 648.84 712.34 638.01 C 711.98 628.50 718.46 619.54 727.45 616.60 Z"/>
        <path id="p6" d="M 187.45 655.66 C 200.90 653.04 214.09 663.32 214.74 677.00 C 215.69 689.56 205.56 700.85 193.03 701.48 C 180.63 702.33 169.36 692.45 168.59 680.06 C 167.64 668.49 176.06 657.69 187.45 655.66 Z"/>
    </defs>
    <g stroke-width="10pt">
        <use stroke="#6e4e37" xlink:href="#p1"/>
        <use stroke="#6e4e37" xlink:href="#p2"/>
        <use stroke="#6e4e37" xlink:href="#p3"/>
        <use stroke="#6e4e37" xlink:href="#p4"/>
        <use stroke="#6e4e37" xlink:href="#p5"/>
        <use stroke="#6e4e37" xlink:href="#p6"/>
    </g>
    <g>
        <use fill="#6e4e37" xlink:href="#p1"/>
        <use fill="#6e4e37" xlink:href="#p2"/>
        <use fill="#6e4e37" xlink:href="#p3"/>
        <use fill="#6e4e37" xlink:href="#p4"/>
        <use fill="#6e4e37" xlink:href="#p5"/>
        <use fill="#6e4e37" xlink:href="#p6"/>
    </g>
</svg>
